mtllib RailRight_13.mtl
o RailRight_13_15
usemtl mat_15
v 0.090000 0.025000 -0.190150
v 0.120000 0.025000 -0.189200
v 0.120000 0.025000 -0.202500
v 0.090000 0.025000 -0.202500
v 0.090000 0.025000 -0.183500
v 0.120000 0.025000 -0.183500
v 0.120000 0.025000 -0.189200
v 0.090000 0.025000 -0.190150
v 0.090000 0.024951 -0.183066
v 0.120000 0.024947 -0.183033
v 0.120000 0.025000 -0.183500
v 0.090000 0.025000 -0.183500
v 0.090000 0.024925 -0.182832
v 0.120000 0.024925 -0.182832
v 0.120000 0.024947 -0.183033
v 0.090000 0.024951 -0.183066
v 0.090000 0.024703 -0.182198
v 0.120000 0.024703 -0.182198
v 0.120000 0.024769 -0.182389
v 0.090000 0.024781 -0.182420
v 0.090000 0.024781 -0.182420
v 0.120000 0.024769 -0.182389
v 0.120000 0.024925 -0.182832
v 0.090000 0.024925 -0.182832
v 0.090000 0.024345 -0.181630
v 0.120000 0.024345 -0.181630
v 0.120000 0.024453 -0.181800
v 0.090000 0.024471 -0.181829
v 0.090000 0.024471 -0.181829
v 0.120000 0.024453 -0.181800
v 0.120000 0.024703 -0.182198
v 0.090000 0.024703 -0.182198
v 0.090000 0.023870 -0.181155
v 0.120000 0.023870 -0.181155
v 0.120000 0.024013 -0.181297
v 0.090000 0.024037 -0.181321
v 0.090000 0.024037 -0.181321
v 0.120000 0.024013 -0.181297
v 0.120000 0.024345 -0.181630
v 0.090000 0.024345 -0.181630
v 0.090000 0.023080 -0.180719
v 0.120000 0.023111 -0.180731
v 0.120000 0.023302 -0.180797
v 0.090000 0.023302 -0.180797
v 0.090000 0.023302 -0.180797
v 0.120000 0.023302 -0.180797
v 0.120000 0.023472 -0.180904
v 0.090000 0.023501 -0.180922
v 0.090000 0.023501 -0.180922
v 0.120000 0.023472 -0.180904
v 0.120000 0.023870 -0.181155
v 0.090000 0.023870 -0.181155
v 0.090000 0.022434 -0.180549
v 0.120000 0.022467 -0.180553
v 0.120000 0.022668 -0.180575
v 0.090000 0.022668 -0.180575
v 0.090000 0.022668 -0.180575
v 0.120000 0.022668 -0.180575
v 0.120000 0.023111 -0.180731
v 0.090000 0.023080 -0.180719
v 0.090000 0.022000 -0.180500
v 0.120000 0.022000 -0.180500
v 0.120000 0.022467 -0.180553
v 0.090000 0.022434 -0.180549
v 0.090000 0.015350 -0.180500
v 0.120000 0.016300 -0.180500
v 0.120000 0.022000 -0.180500
v 0.090000 0.022000 -0.180500
v 0.090000 0.003000 -0.180500
v 0.120000 0.003000 -0.180500
v 0.120000 0.016300 -0.180500
v 0.090000 0.015350 -0.180500
v 0.090000 0.002566 -0.180549
v 0.120000 0.002533 -0.180553
v 0.120000 0.003000 -0.180500
v 0.090000 0.003000 -0.180500
v 0.090000 0.002111 -0.180653
v 0.120000 0.002142 -0.180642
v 0.120000 0.002332 -0.180575
v 0.090000 0.002332 -0.180575
v 0.090000 0.002332 -0.180575
v 0.120000 0.002332 -0.180575
v 0.120000 0.002533 -0.180553
v 0.090000 0.002566 -0.180549
v 0.090000 0.001499 -0.180922
v 0.120000 0.001528 -0.180904
v 0.120000 0.001698 -0.180797
v 0.090000 0.001698 -0.180797
v 0.090000 0.001698 -0.180797
v 0.120000 0.001698 -0.180797
v 0.120000 0.002142 -0.180642
v 0.090000 0.002111 -0.180653
v 0.090000 0.001130 -0.181155
v 0.120000 0.001130 -0.181155
v 0.120000 0.001528 -0.180904
v 0.090000 0.001499 -0.180922
v 0.090000 0.000655 -0.181630
v 0.120000 0.000655 -0.181630
v 0.120000 0.000797 -0.181487
v 0.090000 0.000821 -0.181463
v 0.090000 0.000821 -0.181463
v 0.120000 0.000797 -0.181487
v 0.120000 0.001130 -0.181155
v 0.090000 0.001130 -0.181155
v 0.090000 0.000297 -0.182198
v 0.120000 0.000297 -0.182198
v 0.120000 0.000404 -0.182028
v 0.090000 0.000422 -0.181999
v 0.090000 0.000422 -0.181999
v 0.120000 0.000404 -0.182028
v 0.120000 0.000655 -0.181630
v 0.090000 0.000655 -0.181630
v 0.090000 0.000075 -0.182832
v 0.120000 0.000075 -0.182832
v 0.120000 0.000142 -0.182642
v 0.090000 0.000153 -0.182611
v 0.090000 0.000153 -0.182611
v 0.120000 0.000142 -0.182642
v 0.120000 0.000297 -0.182198
v 0.090000 0.000297 -0.182198
v 0.090000 0.000000 -0.183500
v 0.120000 0.000000 -0.183500
v 0.120000 0.000023 -0.183300
v 0.090000 0.000026 -0.183266
v 0.090000 0.000026 -0.183266
v 0.120000 0.000023 -0.183300
v 0.120000 0.000075 -0.182832
v 0.090000 0.000075 -0.182832
v 0.090000 0.000000 -0.195850
v 0.120000 0.000000 -0.196800
v 0.120000 0.000000 -0.183500
v 0.090000 0.000000 -0.183500
v 0.090000 0.000000 -0.202500
v 0.120000 0.000000 -0.202500
v 0.120000 0.000000 -0.196800
v 0.090000 0.000000 -0.195850
v 0.090000 0.000049 -0.202934
v 0.120000 0.000053 -0.202967
v 0.120000 0.000000 -0.202500
v 0.090000 0.000000 -0.202500
v 0.090000 0.000075 -0.203168
v 0.120000 0.000075 -0.203168
v 0.120000 0.000053 -0.202967
v 0.090000 0.000049 -0.202934
v 0.090000 0.000297 -0.203802
v 0.120000 0.000297 -0.203802
v 0.120000 0.000231 -0.203611
v 0.090000 0.000219 -0.203580
v 0.090000 0.000219 -0.203580
v 0.120000 0.000231 -0.203611
v 0.120000 0.000075 -0.203168
v 0.090000 0.000075 -0.203168
v 0.090000 0.000655 -0.204370
v 0.120000 0.000655 -0.204370
v 0.120000 0.000547 -0.204200
v 0.090000 0.000529 -0.204171
v 0.090000 0.000529 -0.204171
v 0.120000 0.000547 -0.204200
v 0.120000 0.000297 -0.203802
v 0.090000 0.000297 -0.203802
v 0.090000 0.001130 -0.204845
v 0.120000 0.001130 -0.204845
v 0.120000 0.000987 -0.204703
v 0.090000 0.000963 -0.204679
v 0.090000 0.000963 -0.204679
v 0.120000 0.000987 -0.204703
v 0.120000 0.000655 -0.204370
v 0.090000 0.000655 -0.204370
v 0.090000 0.001920 -0.205281
v 0.120000 0.001889 -0.205269
v 0.120000 0.001698 -0.205203
v 0.090000 0.001698 -0.205203
v 0.090000 0.001698 -0.205203
v 0.120000 0.001698 -0.205203
v 0.120000 0.001528 -0.205096
v 0.090000 0.001499 -0.205078
v 0.090000 0.001499 -0.205078
v 0.120000 0.001528 -0.205096
v 0.120000 0.001130 -0.204845
v 0.090000 0.001130 -0.204845
v 0.090000 0.002332 -0.205425
v 0.120000 0.002332 -0.205425
v 0.120000 0.001889 -0.205269
v 0.090000 0.001920 -0.205281
v 0.090000 0.003000 -0.205500
v 0.120000 0.003000 -0.205500
v 0.120000 0.002800 -0.205477
v 0.090000 0.002766 -0.205474
v 0.090000 0.002766 -0.205474
v 0.120000 0.002800 -0.205477
v 0.120000 0.002332 -0.205425
v 0.090000 0.002332 -0.205425
v 0.090000 0.015350 -0.205500
v 0.120000 0.016300 -0.205500
v 0.120000 0.003000 -0.205500
v 0.090000 0.003000 -0.205500
v 0.090000 0.022000 -0.205500
v 0.120000 0.022000 -0.205500
v 0.120000 0.016300 -0.205500
v 0.090000 0.015350 -0.205500
v 0.090000 0.022434 -0.205451
v 0.120000 0.022467 -0.205447
v 0.120000 0.022000 -0.205500
v 0.090000 0.022000 -0.205500
v 0.090000 0.022668 -0.205425
v 0.120000 0.022668 -0.205425
v 0.120000 0.022467 -0.205447
v 0.090000 0.022434 -0.205451
v 0.090000 0.023302 -0.205203
v 0.120000 0.023302 -0.205203
v 0.120000 0.023111 -0.205269
v 0.090000 0.023080 -0.205281
v 0.090000 0.023080 -0.205281
v 0.120000 0.023111 -0.205269
v 0.120000 0.022668 -0.205425
v 0.090000 0.022668 -0.205425
v 0.090000 0.023870 -0.204845
v 0.120000 0.023870 -0.204845
v 0.120000 0.023700 -0.204953
v 0.090000 0.023671 -0.204971
v 0.090000 0.023671 -0.204971
v 0.120000 0.023700 -0.204953
v 0.120000 0.023302 -0.205203
v 0.090000 0.023302 -0.205203
v 0.090000 0.024345 -0.204370
v 0.120000 0.024345 -0.204370
v 0.120000 0.024203 -0.204513
v 0.090000 0.024179 -0.204537
v 0.090000 0.024179 -0.204537
v 0.120000 0.024203 -0.204513
v 0.120000 0.023870 -0.204845
v 0.090000 0.023870 -0.204845
v 0.090000 0.024781 -0.203580
v 0.120000 0.024769 -0.203611
v 0.120000 0.024703 -0.203802
v 0.090000 0.024703 -0.203802
v 0.090000 0.024703 -0.203802
v 0.120000 0.024703 -0.203802
v 0.120000 0.024596 -0.203972
v 0.090000 0.024578 -0.204001
v 0.090000 0.024578 -0.204001
v 0.120000 0.024596 -0.203972
v 0.120000 0.024345 -0.204370
v 0.090000 0.024345 -0.204370
v 0.090000 0.024951 -0.202934
v 0.120000 0.024947 -0.202967
v 0.120000 0.024925 -0.203168
v 0.090000 0.024925 -0.203168
v 0.090000 0.024925 -0.203168
v 0.120000 0.024925 -0.203168
v 0.120000 0.024769 -0.203611
v 0.090000 0.024781 -0.203580
v 0.090000 0.025000 -0.202500
v 0.120000 0.025000 -0.202500
v 0.120000 0.024947 -0.202967
v 0.090000 0.024951 -0.202934
v 0.120000 0.002035 -0.201812
v 0.090000 0.002033 -0.201789
v 0.090000 0.002000 -0.201500
v 0.120000 0.002000 -0.201500
v 0.090000 0.002033 -0.201789
v 0.120000 0.002035 -0.201812
v 0.120000 0.002050 -0.201945
v 0.090000 0.002050 -0.201945
v 0.090000 0.002146 -0.202220
v 0.120000 0.002154 -0.202241
v 0.120000 0.002198 -0.202368
v 0.090000 0.002198 -0.202368
v 0.120000 0.002154 -0.202241
v 0.090000 0.002146 -0.202220
v 0.090000 0.002050 -0.201945
v 0.120000 0.002050 -0.201945
v 0.090000 0.002353 -0.202614
v 0.120000 0.002365 -0.202633
v 0.120000 0.002436 -0.202747
v 0.090000 0.002436 -0.202747
v 0.120000 0.002365 -0.202633
v 0.090000 0.002353 -0.202614
v 0.090000 0.002198 -0.202368
v 0.120000 0.002198 -0.202368
v 0.090000 0.002642 -0.202953
v 0.120000 0.002658 -0.202969
v 0.120000 0.002753 -0.203064
v 0.090000 0.002753 -0.203064
v 0.120000 0.002658 -0.202969
v 0.090000 0.002642 -0.202953
v 0.090000 0.002436 -0.202747
v 0.120000 0.002436 -0.202747
v 0.090000 0.003132 -0.203302
v 0.120000 0.003132 -0.203302
v 0.120000 0.003259 -0.203346
v 0.090000 0.003280 -0.203354
v 0.090000 0.003000 -0.203219
v 0.120000 0.003018 -0.203230
v 0.120000 0.003132 -0.203302
v 0.090000 0.003132 -0.203302
v 0.120000 0.003018 -0.203230
v 0.090000 0.003000 -0.203219
v 0.090000 0.002753 -0.203064
v 0.120000 0.002753 -0.203064
v 0.090000 0.003555 -0.203450
v 0.120000 0.003555 -0.203450
v 0.120000 0.003688 -0.203465
v 0.090000 0.003711 -0.203467
v 0.120000 0.003555 -0.203450
v 0.090000 0.003555 -0.203450
v 0.090000 0.003280 -0.203354
v 0.120000 0.003259 -0.203346
v 0.120000 0.004000 -0.203500
v 0.090000 0.004000 -0.203500
v 0.090000 0.003711 -0.203467
v 0.120000 0.003688 -0.203465
v 0.120000 0.002000 -0.196400
v 0.090000 0.002000 -0.195550
v 0.090000 0.002000 -0.184500
v 0.120000 0.002000 -0.184500
v 0.090000 0.002000 -0.195550
v 0.120000 0.002000 -0.196400
v 0.120000 0.002000 -0.201500
v 0.090000 0.002000 -0.201500
v 0.120000 0.003688 -0.182535
v 0.090000 0.003711 -0.182533
v 0.090000 0.004000 -0.182500
v 0.120000 0.004000 -0.182500
v 0.090000 0.003711 -0.182533
v 0.120000 0.003688 -0.182535
v 0.120000 0.003555 -0.182550
v 0.090000 0.003555 -0.182550
v 0.090000 0.003280 -0.182646
v 0.120000 0.003259 -0.182654
v 0.120000 0.003132 -0.182698
v 0.090000 0.003132 -0.182698
v 0.120000 0.003259 -0.182654
v 0.090000 0.003280 -0.182646
v 0.090000 0.003555 -0.182550
v 0.120000 0.003555 -0.182550
v 0.090000 0.002886 -0.182853
v 0.120000 0.002867 -0.182865
v 0.120000 0.002753 -0.182936
v 0.090000 0.002753 -0.182936
v 0.120000 0.002867 -0.182865
v 0.090000 0.002886 -0.182853
v 0.090000 0.003132 -0.182698
v 0.120000 0.003132 -0.182698
v 0.090000 0.002436 -0.183253
v 0.120000 0.002436 -0.183253
v 0.120000 0.002365 -0.183367
v 0.090000 0.002353 -0.183386
v 0.090000 0.002547 -0.183142
v 0.120000 0.002531 -0.183158
v 0.120000 0.002436 -0.183253
v 0.090000 0.002436 -0.183253
v 0.120000 0.002531 -0.183158
v 0.090000 0.002547 -0.183142
v 0.090000 0.002753 -0.182936
v 0.120000 0.002753 -0.182936
v 0.090000 0.002198 -0.183632
v 0.120000 0.002198 -0.183632
v 0.120000 0.002154 -0.183759
v 0.090000 0.002146 -0.183780
v 0.120000 0.002198 -0.183632
v 0.090000 0.002198 -0.183632
v 0.090000 0.002353 -0.183386
v 0.120000 0.002365 -0.183367
v 0.120000 0.002050 -0.184055
v 0.090000 0.002050 -0.184055
v 0.090000 0.002146 -0.183780
v 0.120000 0.002154 -0.183759
v 0.090000 0.002018 -0.184344
v 0.120000 0.002015 -0.184366
v 0.120000 0.002000 -0.184500
v 0.090000 0.002000 -0.184500
v 0.120000 0.002015 -0.184366
v 0.090000 0.002018 -0.184344
v 0.090000 0.002050 -0.184055
v 0.120000 0.002050 -0.184055
v 0.120000 0.009100 -0.182500
v 0.090000 0.009950 -0.182500
v 0.090000 0.021000 -0.182500
v 0.120000 0.021000 -0.182500
v 0.090000 0.009950 -0.182500
v 0.120000 0.009100 -0.182500
v 0.120000 0.004000 -0.182500
v 0.090000 0.004000 -0.182500
v 0.090000 0.023000 -0.184500
v 0.120000 0.023000 -0.184500
v 0.120000 0.022985 -0.184366
v 0.090000 0.022982 -0.184344
v 0.090000 0.022950 -0.184055
v 0.120000 0.022950 -0.184055
v 0.120000 0.022905 -0.183928
v 0.090000 0.022898 -0.183907
v 0.120000 0.022950 -0.184055
v 0.090000 0.022950 -0.184055
v 0.090000 0.022982 -0.184344
v 0.120000 0.022985 -0.184366
v 0.120000 0.022802 -0.183632
v 0.090000 0.022802 -0.183632
v 0.090000 0.022898 -0.183907
v 0.120000 0.022905 -0.183928
v 0.090000 0.022647 -0.183386
v 0.120000 0.022635 -0.183367
v 0.120000 0.022564 -0.183253
v 0.090000 0.022564 -0.183253
v 0.120000 0.022635 -0.183367
v 0.090000 0.022647 -0.183386
v 0.090000 0.022802 -0.183632
v 0.120000 0.022802 -0.183632
v 0.090000 0.022358 -0.183047
v 0.120000 0.022342 -0.183031
v 0.120000 0.022247 -0.182936
v 0.090000 0.022247 -0.182936
v 0.120000 0.022342 -0.183031
v 0.090000 0.022358 -0.183047
v 0.090000 0.022564 -0.183253
v 0.120000 0.022564 -0.183253
v 0.090000 0.022000 -0.182781
v 0.120000 0.021982 -0.182770
v 0.120000 0.021868 -0.182698
v 0.090000 0.021868 -0.182698
v 0.120000 0.021982 -0.182770
v 0.090000 0.022000 -0.182781
v 0.090000 0.022247 -0.182936
v 0.120000 0.022247 -0.182936
v 0.090000 0.021445 -0.182550
v 0.120000 0.021445 -0.182550
v 0.120000 0.021312 -0.182535
v 0.090000 0.021289 -0.182533
v 0.090000 0.021593 -0.182602
v 0.120000 0.021572 -0.182595
v 0.120000 0.021445 -0.182550
v 0.090000 0.021445 -0.182550
v 0.120000 0.021572 -0.182595
v 0.090000 0.021593 -0.182602
v 0.090000 0.021868 -0.182698
v 0.120000 0.021868 -0.182698
v 0.120000 0.021000 -0.182500
v 0.090000 0.021000 -0.182500
v 0.090000 0.021289 -0.182533
v 0.120000 0.021312 -0.182535
v 0.120000 0.023000 -0.189600
v 0.090000 0.023000 -0.190450
v 0.090000 0.023000 -0.201500
v 0.120000 0.023000 -0.201500
v 0.090000 0.023000 -0.190450
v 0.120000 0.023000 -0.189600
v 0.120000 0.023000 -0.184500
v 0.090000 0.023000 -0.184500
v 0.120000 0.021312 -0.203465
v 0.090000 0.021289 -0.203467
v 0.090000 0.021000 -0.203500
v 0.120000 0.021000 -0.203500
v 0.090000 0.021289 -0.203467
v 0.120000 0.021312 -0.203465
v 0.120000 0.021445 -0.203450
v 0.090000 0.021445 -0.203450
v 0.090000 0.021720 -0.203354
v 0.120000 0.021741 -0.203346
v 0.120000 0.021868 -0.203302
v 0.090000 0.021868 -0.203302
v 0.120000 0.021741 -0.203346
v 0.090000 0.021720 -0.203354
v 0.090000 0.021445 -0.203450
v 0.120000 0.021445 -0.203450
v 0.090000 0.022247 -0.203064
v 0.120000 0.022247 -0.203064
v 0.120000 0.022342 -0.202969
v 0.090000 0.022358 -0.202953
v 0.090000 0.022114 -0.203147
v 0.120000 0.022133 -0.203135
v 0.120000 0.022247 -0.203064
v 0.090000 0.022247 -0.203064
v 0.120000 0.022133 -0.203135
v 0.090000 0.022114 -0.203147
v 0.090000 0.021868 -0.203302
v 0.120000 0.021868 -0.203302
v 0.120000 0.022564 -0.202747
v 0.090000 0.022564 -0.202747
v 0.090000 0.022358 -0.202953
v 0.120000 0.022342 -0.202969
v 0.090000 0.022719 -0.202500
v 0.120000 0.022730 -0.202482
v 0.120000 0.022802 -0.202368
v 0.090000 0.022802 -0.202368
v 0.120000 0.022730 -0.202482
v 0.090000 0.022719 -0.202500
v 0.090000 0.022564 -0.202747
v 0.120000 0.022564 -0.202747
v 0.090000 0.022950 -0.201945
v 0.120000 0.022950 -0.201945
v 0.120000 0.022965 -0.201812
v 0.090000 0.022967 -0.201789
v 0.090000 0.022898 -0.202093
v 0.120000 0.022905 -0.202072
v 0.120000 0.022950 -0.201945
v 0.090000 0.022950 -0.201945
v 0.120000 0.022905 -0.202072
v 0.090000 0.022898 -0.202093
v 0.090000 0.022802 -0.202368
v 0.120000 0.022802 -0.202368
v 0.120000 0.023000 -0.201500
v 0.090000 0.023000 -0.201500
v 0.090000 0.022967 -0.201789
v 0.120000 0.022965 -0.201812
v 0.120000 0.015900 -0.203500
v 0.090000 0.015050 -0.203500
v 0.090000 0.004000 -0.203500
v 0.120000 0.004000 -0.203500
v 0.090000 0.015050 -0.203500
v 0.120000 0.015900 -0.203500
v 0.120000 0.021000 -0.203500
v 0.090000 0.021000 -0.203500
f 1 2 3
f 1 3 4
f 5 6 7
f 5 7 8
f 9 10 11
f 9 11 12
f 13 14 15
f 13 15 16
f 17 18 19
f 17 19 20
f 21 22 23
f 21 23 24
f 25 26 27
f 25 27 28
f 29 30 31
f 29 31 32
f 33 34 35
f 33 35 36
f 37 38 39
f 37 39 40
f 41 42 43
f 41 43 44
f 45 46 47
f 45 47 48
f 49 50 51
f 49 51 52
f 53 54 55
f 53 55 56
f 57 58 59
f 57 59 60
f 61 62 63
f 61 63 64
f 65 66 67
f 65 67 68
f 69 70 71
f 69 71 72
f 73 74 75
f 73 75 76
f 77 78 79
f 77 79 80
f 81 82 83
f 81 83 84
f 85 86 87
f 85 87 88
f 89 90 91
f 89 91 92
f 93 94 95
f 93 95 96
f 97 98 99
f 97 99 100
f 101 102 103
f 101 103 104
f 105 106 107
f 105 107 108
f 109 110 111
f 109 111 112
f 113 114 115
f 113 115 116
f 117 118 119
f 117 119 120
f 121 122 123
f 121 123 124
f 125 126 127
f 125 127 128
f 129 130 131
f 129 131 132
f 133 134 135
f 133 135 136
f 137 138 139
f 137 139 140
f 141 142 143
f 141 143 144
f 145 146 147
f 145 147 148
f 149 150 151
f 149 151 152
f 153 154 155
f 153 155 156
f 157 158 159
f 157 159 160
f 161 162 163
f 161 163 164
f 165 166 167
f 165 167 168
f 169 170 171
f 169 171 172
f 173 174 175
f 173 175 176
f 177 178 179
f 177 179 180
f 181 182 183
f 181 183 184
f 185 186 187
f 185 187 188
f 189 190 191
f 189 191 192
f 193 194 195
f 193 195 196
f 197 198 199
f 197 199 200
f 201 202 203
f 201 203 204
f 205 206 207
f 205 207 208
f 209 210 211
f 209 211 212
f 213 214 215
f 213 215 216
f 217 218 219
f 217 219 220
f 221 222 223
f 221 223 224
f 225 226 227
f 225 227 228
f 229 230 231
f 229 231 232
f 233 234 235
f 233 235 236
f 237 238 239
f 237 239 240
f 241 242 243
f 241 243 244
f 245 246 247
f 245 247 248
f 249 250 251
f 249 251 252
f 253 254 255
f 253 255 256
f 257 258 259
f 257 259 260
f 261 262 263
f 261 263 264
f 265 266 267
f 265 267 268
f 269 270 271
f 269 271 272
f 273 274 275
f 273 275 276
f 277 278 279
f 277 279 280
f 281 282 283
f 281 283 284
f 285 286 287
f 285 287 288
f 289 290 291
f 289 291 292
f 293 294 295
f 293 295 296
f 297 298 299
f 297 299 300
f 301 302 303
f 301 303 304
f 305 306 307
f 305 307 308
f 309 310 311
f 309 311 312
f 313 314 315
f 313 315 316
f 317 318 319
f 317 319 320
f 321 322 323
f 321 323 324
f 325 326 327
f 325 327 328
f 329 330 331
f 329 331 332
f 333 334 335
f 333 335 336
f 337 338 339
f 337 339 340
f 341 342 343
f 341 343 344
f 345 346 347
f 345 347 348
f 349 350 351
f 349 351 352
f 353 354 355
f 353 355 356
f 357 358 359
f 357 359 360
f 361 362 363
f 361 363 364
f 365 366 367
f 365 367 368
f 369 370 371
f 369 371 372
f 373 374 375
f 373 375 376
f 377 378 379
f 377 379 380
f 381 382 383
f 381 383 384
f 385 386 387
f 385 387 388
f 389 390 391
f 389 391 392
f 393 394 395
f 393 395 396
f 397 398 399
f 397 399 400
f 401 402 403
f 401 403 404
f 405 406 407
f 405 407 408
f 409 410 411
f 409 411 412
f 413 414 415
f 413 415 416
f 417 418 419
f 417 419 420
f 421 422 423
f 421 423 424
f 425 426 427
f 425 427 428
f 429 430 431
f 429 431 432
f 433 434 435
f 433 435 436
f 437 438 439
f 437 439 440
f 441 442 443
f 441 443 444
f 445 446 447
f 445 447 448
f 449 450 451
f 449 451 452
f 453 454 455
f 453 455 456
f 457 458 459
f 457 459 460
f 461 462 463
f 461 463 464
f 465 466 467
f 465 467 468
f 469 470 471
f 469 471 472
f 473 474 475
f 473 475 476
f 477 478 479
f 477 479 480
f 481 482 483
f 481 483 484
f 485 486 487
f 485 487 488
f 489 490 491
f 489 491 492
f 493 494 495
f 493 495 496
f 497 498 499
f 497 499 500
f 501 502 503
f 501 503 504
f 505 506 507
f 505 507 508
f 509 510 511
f 509 511 512
