mtllib RailLeft_19.mtl
o RailLeft_19_14
usemtl mat_14
v 0.270000 0.025000 0.201550
v 0.300000 0.025000 0.202500
v 0.300000 0.025000 0.183500
v 0.270000 0.025000 0.183500
v 0.270000 0.025000 0.202500
v 0.300000 0.025000 0.202500
v 0.270000 0.025000 0.201550
v 0.270000 0.024929 0.203134
v 0.300000 0.024925 0.203168
v 0.300000 0.025000 0.202500
v 0.270000 0.025000 0.202500
v 0.270000 0.024925 0.203168
v 0.300000 0.024925 0.203168
v 0.270000 0.024929 0.203134
v 0.270000 0.024703 0.203802
v 0.300000 0.024703 0.203802
v 0.270000 0.024714 0.203770
v 0.270000 0.024714 0.203770
v 0.300000 0.024703 0.203802
v 0.300000 0.024925 0.203168
v 0.270000 0.024925 0.203168
v 0.270000 0.024345 0.204370
v 0.300000 0.024345 0.204370
v 0.270000 0.024363 0.204342
v 0.270000 0.024363 0.204342
v 0.300000 0.024345 0.204370
v 0.300000 0.024703 0.203802
v 0.270000 0.024703 0.203802
v 0.270000 0.023870 0.204845
v 0.300000 0.023870 0.204845
v 0.270000 0.023894 0.204822
v 0.270000 0.023894 0.204822
v 0.300000 0.023870 0.204845
v 0.300000 0.024345 0.204370
v 0.270000 0.024345 0.204370
v 0.270000 0.023270 0.205214
v 0.300000 0.023302 0.205203
v 0.270000 0.023302 0.205203
v 0.270000 0.023302 0.205203
v 0.300000 0.023302 0.205203
v 0.270000 0.023330 0.205185
v 0.270000 0.023330 0.205185
v 0.300000 0.023302 0.205203
v 0.300000 0.023870 0.204845
v 0.270000 0.023870 0.204845
v 0.270000 0.022634 0.205429
v 0.300000 0.022668 0.205425
v 0.270000 0.022668 0.205425
v 0.270000 0.022668 0.205425
v 0.300000 0.022668 0.205425
v 0.300000 0.023302 0.205203
v 0.270000 0.023270 0.205214
v 0.270000 0.022000 0.205500
v 0.300000 0.022000 0.205500
v 0.300000 0.022668 0.205425
v 0.270000 0.022634 0.205429
v 0.270000 0.021050 0.205500
v 0.300000 0.022000 0.205500
v 0.270000 0.022000 0.205500
v 0.270000 0.003000 0.205500
v 0.300000 0.003000 0.205500
v 0.300000 0.022000 0.205500
v 0.270000 0.021050 0.205500
v 0.270000 0.002366 0.205429
v 0.300000 0.002332 0.205425
v 0.300000 0.003000 0.205500
v 0.270000 0.003000 0.205500
v 0.270000 0.002332 0.205425
v 0.300000 0.002332 0.205425
v 0.270000 0.002366 0.205429
v 0.270000 0.001698 0.205203
v 0.300000 0.001698 0.205203
v 0.270000 0.001730 0.205214
v 0.270000 0.001730 0.205214
v 0.300000 0.001698 0.205203
v 0.300000 0.002332 0.205425
v 0.270000 0.002332 0.205425
v 0.270000 0.001130 0.204845
v 0.300000 0.001130 0.204845
v 0.270000 0.001158 0.204863
v 0.270000 0.001158 0.204863
v 0.300000 0.001130 0.204845
v 0.300000 0.001698 0.205203
v 0.270000 0.001698 0.205203
v 0.270000 0.000655 0.204370
v 0.300000 0.000655 0.204370
v 0.270000 0.000678 0.204394
v 0.270000 0.000678 0.204394
v 0.300000 0.000655 0.204370
v 0.300000 0.001130 0.204845
v 0.270000 0.001130 0.204845
v 0.270000 0.000286 0.203770
v 0.300000 0.000297 0.203802
v 0.270000 0.000297 0.203802
v 0.270000 0.000297 0.203802
v 0.300000 0.000297 0.203802
v 0.270000 0.000315 0.203830
v 0.270000 0.000315 0.203830
v 0.300000 0.000297 0.203802
v 0.300000 0.000655 0.204370
v 0.270000 0.000655 0.204370
v 0.270000 0.000071 0.203134
v 0.300000 0.000075 0.203168
v 0.270000 0.000075 0.203168
v 0.270000 0.000075 0.203168
v 0.300000 0.000075 0.203168
v 0.300000 0.000297 0.203802
v 0.270000 0.000286 0.203770
v 0.270000 0.000000 0.202500
v 0.300000 0.000000 0.202500
v 0.300000 0.000075 0.203168
v 0.270000 0.000071 0.203134
v 0.270000 0.000000 0.184450
v 0.300000 0.000000 0.183500
v 0.300000 0.000000 0.202500
v 0.270000 0.000000 0.202500
v 0.270000 0.000000 0.183500
v 0.300000 0.000000 0.183500
v 0.270000 0.000000 0.184450
v 0.270000 0.000071 0.182866
v 0.300000 0.000075 0.182832
v 0.300000 0.000000 0.183500
v 0.270000 0.000000 0.183500
v 0.270000 0.000075 0.182832
v 0.300000 0.000075 0.182832
v 0.270000 0.000071 0.182866
v 0.270000 0.000297 0.182198
v 0.300000 0.000297 0.182198
v 0.270000 0.000286 0.182230
v 0.270000 0.000286 0.182230
v 0.300000 0.000297 0.182198
v 0.300000 0.000075 0.182832
v 0.270000 0.000075 0.182832
v 0.270000 0.000655 0.181630
v 0.300000 0.000655 0.181630
v 0.270000 0.000637 0.181658
v 0.270000 0.000637 0.181658
v 0.300000 0.000655 0.181630
v 0.300000 0.000297 0.182198
v 0.270000 0.000297 0.182198
v 0.270000 0.001130 0.181155
v 0.300000 0.001130 0.181155
v 0.270000 0.001106 0.181178
v 0.270000 0.001106 0.181178
v 0.300000 0.001130 0.181155
v 0.300000 0.000655 0.181630
v 0.270000 0.000655 0.181630
v 0.270000 0.001730 0.180786
v 0.300000 0.001698 0.180797
v 0.270000 0.001698 0.180797
v 0.270000 0.001698 0.180797
v 0.300000 0.001698 0.180797
v 0.270000 0.001670 0.180815
v 0.270000 0.001670 0.180815
v 0.300000 0.001698 0.180797
v 0.300000 0.001130 0.181155
v 0.270000 0.001130 0.181155
v 0.270000 0.002366 0.180571
v 0.300000 0.002332 0.180575
v 0.270000 0.002332 0.180575
v 0.270000 0.002332 0.180575
v 0.300000 0.002332 0.180575
v 0.300000 0.001698 0.180797
v 0.270000 0.001730 0.180786
v 0.270000 0.003000 0.180500
v 0.300000 0.003000 0.180500
v 0.300000 0.002332 0.180575
v 0.270000 0.002366 0.180571
v 0.270000 0.021050 0.180500
v 0.300000 0.022000 0.180500
v 0.300000 0.003000 0.180500
v 0.270000 0.003000 0.180500
v 0.270000 0.022000 0.180500
v 0.300000 0.022000 0.180500
v 0.270000 0.021050 0.180500
v 0.270000 0.022634 0.180571
v 0.300000 0.022668 0.180575
v 0.300000 0.022000 0.180500
v 0.270000 0.022000 0.180500
v 0.270000 0.022668 0.180575
v 0.300000 0.022668 0.180575
v 0.270000 0.022634 0.180571
v 0.270000 0.023302 0.180797
v 0.300000 0.023302 0.180797
v 0.270000 0.023270 0.180786
v 0.270000 0.023270 0.180786
v 0.300000 0.023302 0.180797
v 0.300000 0.022668 0.180575
v 0.270000 0.022668 0.180575
v 0.270000 0.023870 0.181155
v 0.300000 0.023870 0.181155
v 0.270000 0.023842 0.181137
v 0.270000 0.023842 0.181137
v 0.300000 0.023870 0.181155
v 0.300000 0.023302 0.180797
v 0.270000 0.023302 0.180797
v 0.270000 0.024345 0.181630
v 0.300000 0.024345 0.181630
v 0.270000 0.024322 0.181606
v 0.270000 0.024322 0.181606
v 0.300000 0.024345 0.181630
v 0.300000 0.023870 0.181155
v 0.270000 0.023870 0.181155
v 0.270000 0.024714 0.182230
v 0.300000 0.024703 0.182198
v 0.270000 0.024703 0.182198
v 0.270000 0.024703 0.182198
v 0.300000 0.024703 0.182198
v 0.270000 0.024685 0.182170
v 0.270000 0.024685 0.182170
v 0.300000 0.024703 0.182198
v 0.300000 0.024345 0.181630
v 0.270000 0.024345 0.181630
v 0.270000 0.024929 0.182866
v 0.300000 0.024925 0.182832
v 0.270000 0.024925 0.182832
v 0.270000 0.024925 0.182832
v 0.300000 0.024925 0.182832
v 0.300000 0.024703 0.182198
v 0.270000 0.024714 0.182230
v 0.270000 0.025000 0.183500
v 0.300000 0.025000 0.183500
v 0.300000 0.024925 0.182832
v 0.270000 0.024929 0.182866
v 0.300000 0.002050 0.184055
v 0.270000 0.002048 0.184077
v 0.270000 0.002000 0.184500
v 0.300000 0.002000 0.184500
v 0.270000 0.002048 0.184077
v 0.300000 0.002050 0.184055
v 0.270000 0.002050 0.184055
v 0.270000 0.002191 0.183653
v 0.300000 0.002198 0.183632
v 0.270000 0.002198 0.183632
v 0.300000 0.002198 0.183632
v 0.270000 0.002191 0.183653
v 0.270000 0.002050 0.184055
v 0.300000 0.002050 0.184055
v 0.270000 0.002424 0.183272
v 0.300000 0.002436 0.183253
v 0.270000 0.002436 0.183253
v 0.300000 0.002436 0.183253
v 0.270000 0.002424 0.183272
v 0.270000 0.002198 0.183632
v 0.300000 0.002198 0.183632
v 0.270000 0.002737 0.182952
v 0.300000 0.002753 0.182936
v 0.270000 0.002753 0.182936
v 0.300000 0.002753 0.182936
v 0.270000 0.002737 0.182952
v 0.270000 0.002436 0.183253
v 0.300000 0.002436 0.183253
v 0.270000 0.003132 0.182698
v 0.300000 0.003132 0.182698
v 0.270000 0.003153 0.182691
v 0.270000 0.003113 0.182710
v 0.300000 0.003132 0.182698
v 0.270000 0.003132 0.182698
v 0.300000 0.003132 0.182698
v 0.270000 0.003113 0.182710
v 0.270000 0.002753 0.182936
v 0.300000 0.002753 0.182936
v 0.270000 0.003555 0.182550
v 0.300000 0.003555 0.182550
v 0.270000 0.003577 0.182548
v 0.300000 0.003555 0.182550
v 0.270000 0.003555 0.182550
v 0.270000 0.003153 0.182691
v 0.300000 0.003132 0.182698
v 0.300000 0.004000 0.182500
v 0.270000 0.004000 0.182500
v 0.270000 0.003577 0.182548
v 0.300000 0.003555 0.182550
v 0.300000 0.002000 0.184500
v 0.270000 0.002000 0.185350
v 0.270000 0.002000 0.201500
v 0.300000 0.002000 0.201500
v 0.270000 0.002000 0.185350
v 0.300000 0.002000 0.184500
v 0.270000 0.002000 0.184500
v 0.300000 0.003555 0.203450
v 0.270000 0.003577 0.203452
v 0.270000 0.004000 0.203500
v 0.300000 0.004000 0.203500
v 0.270000 0.003577 0.203452
v 0.300000 0.003555 0.203450
v 0.270000 0.003555 0.203450
v 0.270000 0.003153 0.203309
v 0.300000 0.003132 0.203302
v 0.270000 0.003132 0.203302
v 0.300000 0.003132 0.203302
v 0.270000 0.003153 0.203309
v 0.270000 0.003555 0.203450
v 0.300000 0.003555 0.203450
v 0.270000 0.002772 0.203076
v 0.300000 0.002753 0.203064
v 0.270000 0.002753 0.203064
v 0.300000 0.002753 0.203064
v 0.270000 0.002772 0.203076
v 0.270000 0.003132 0.203302
v 0.300000 0.003132 0.203302
v 0.270000 0.002436 0.202747
v 0.300000 0.002436 0.202747
v 0.270000 0.002424 0.202728
v 0.270000 0.002452 0.202763
v 0.300000 0.002436 0.202747
v 0.270000 0.002436 0.202747
v 0.300000 0.002436 0.202747
v 0.270000 0.002452 0.202763
v 0.270000 0.002753 0.203064
v 0.300000 0.002753 0.203064
v 0.270000 0.002198 0.202368
v 0.300000 0.002198 0.202368
v 0.270000 0.002191 0.202347
v 0.300000 0.002198 0.202368
v 0.270000 0.002198 0.202368
v 0.270000 0.002424 0.202728
v 0.300000 0.002436 0.202747
v 0.300000 0.002050 0.201945
v 0.270000 0.002050 0.201945
v 0.270000 0.002191 0.202347
v 0.300000 0.002198 0.202368
v 0.270000 0.002003 0.201522
v 0.300000 0.002000 0.201500
v 0.270000 0.002000 0.201500
v 0.300000 0.002000 0.201500
v 0.270000 0.002003 0.201522
v 0.270000 0.002050 0.201945
v 0.300000 0.002050 0.201945
v 0.300000 0.004000 0.203500
v 0.270000 0.004850 0.203500
v 0.270000 0.021000 0.203500
v 0.300000 0.021000 0.203500
v 0.270000 0.004850 0.203500
v 0.300000 0.004000 0.203500
v 0.270000 0.004000 0.203500
v 0.270000 0.023000 0.201500
v 0.300000 0.023000 0.201500
v 0.270000 0.022997 0.201522
v 0.270000 0.022950 0.201945
v 0.300000 0.022950 0.201945
v 0.270000 0.022942 0.201966
v 0.300000 0.022950 0.201945
v 0.270000 0.022950 0.201945
v 0.270000 0.022997 0.201522
v 0.300000 0.023000 0.201500
v 0.300000 0.022802 0.202368
v 0.270000 0.022802 0.202368
v 0.270000 0.022942 0.201966
v 0.300000 0.022950 0.201945
v 0.270000 0.022576 0.202728
v 0.300000 0.022564 0.202747
v 0.270000 0.022564 0.202747
v 0.300000 0.022564 0.202747
v 0.270000 0.022576 0.202728
v 0.270000 0.022802 0.202368
v 0.300000 0.022802 0.202368
v 0.270000 0.022263 0.203048
v 0.300000 0.022247 0.203064
v 0.270000 0.022247 0.203064
v 0.300000 0.022247 0.203064
v 0.270000 0.022263 0.203048
v 0.270000 0.022564 0.202747
v 0.300000 0.022564 0.202747
v 0.270000 0.021887 0.203290
v 0.300000 0.021868 0.203302
v 0.270000 0.021868 0.203302
v 0.300000 0.021868 0.203302
v 0.270000 0.021887 0.203290
v 0.270000 0.022247 0.203064
v 0.300000 0.022247 0.203064
v 0.270000 0.021445 0.203450
v 0.300000 0.021445 0.203450
v 0.270000 0.021423 0.203452
v 0.270000 0.021466 0.203442
v 0.300000 0.021445 0.203450
v 0.270000 0.021445 0.203450
v 0.300000 0.021445 0.203450
v 0.270000 0.021466 0.203442
v 0.270000 0.021868 0.203302
v 0.300000 0.021868 0.203302
v 0.300000 0.021000 0.203500
v 0.270000 0.021000 0.203500
v 0.270000 0.021423 0.203452
v 0.300000 0.021445 0.203450
v 0.300000 0.023000 0.201500
v 0.270000 0.023000 0.200650
v 0.270000 0.023000 0.184500
v 0.300000 0.023000 0.184500
v 0.270000 0.023000 0.200650
v 0.300000 0.023000 0.201500
v 0.270000 0.023000 0.201500
v 0.300000 0.021445 0.182550
v 0.270000 0.021423 0.182548
v 0.270000 0.021000 0.182500
v 0.300000 0.021000 0.182500
v 0.270000 0.021423 0.182548
v 0.300000 0.021445 0.182550
v 0.270000 0.021445 0.182550
v 0.270000 0.021847 0.182691
v 0.300000 0.021868 0.182698
v 0.270000 0.021868 0.182698
v 0.300000 0.021868 0.182698
v 0.270000 0.021847 0.182691
v 0.270000 0.021445 0.182550
v 0.300000 0.021445 0.182550
v 0.270000 0.022247 0.182936
v 0.300000 0.022247 0.182936
v 0.270000 0.022263 0.182952
v 0.270000 0.022228 0.182924
v 0.300000 0.022247 0.182936
v 0.270000 0.022247 0.182936
v 0.300000 0.022247 0.182936
v 0.270000 0.022228 0.182924
v 0.270000 0.021868 0.182698
v 0.300000 0.021868 0.182698
v 0.300000 0.022564 0.183253
v 0.270000 0.022564 0.183253
v 0.270000 0.022263 0.182952
v 0.300000 0.022247 0.182936
v 0.270000 0.022790 0.183613
v 0.300000 0.022802 0.183632
v 0.270000 0.022802 0.183632
v 0.300000 0.022802 0.183632
v 0.270000 0.022790 0.183613
v 0.270000 0.022564 0.183253
v 0.300000 0.022564 0.183253
v 0.270000 0.022942 0.184034
v 0.300000 0.022950 0.184055
v 0.270000 0.022950 0.184055
v 0.300000 0.022950 0.184055
v 0.270000 0.022942 0.184034
v 0.270000 0.022802 0.183632
v 0.300000 0.022802 0.183632
v 0.270000 0.022997 0.184478
v 0.300000 0.023000 0.184500
v 0.270000 0.023000 0.184500
v 0.300000 0.023000 0.184500
v 0.270000 0.022997 0.184478
v 0.270000 0.022950 0.184055
v 0.300000 0.022950 0.184055
v 0.300000 0.021000 0.182500
v 0.270000 0.020150 0.182500
v 0.270000 0.004000 0.182500
v 0.300000 0.004000 0.182500
v 0.270000 0.020150 0.182500
v 0.300000 0.021000 0.182500
v 0.270000 0.021000 0.182500
v 0.300000 0.002436 0.202747
v 0.300000 0.000655 0.204370
v 0.300000 0.000297 0.203802
v 0.300000 0.002436 0.202747
v 0.300000 0.001130 0.204845
v 0.300000 0.000655 0.204370
v 0.300000 0.002753 0.203064
v 0.300000 0.001698 0.205203
v 0.300000 0.001130 0.204845
v 0.300000 0.002753 0.203064
v 0.300000 0.001130 0.204845
v 0.300000 0.002436 0.202747
v 0.300000 0.002198 0.202368
v 0.300000 0.000075 0.203168
v 0.300000 0.000000 0.202500
v 0.300000 0.002198 0.202368
v 0.300000 0.000297 0.203802
v 0.300000 0.000075 0.203168
v 0.300000 0.002198 0.202368
v 0.300000 0.002436 0.202747
v 0.300000 0.000297 0.203802
v 0.300000 0.003132 0.203302
v 0.300000 0.002332 0.205425
v 0.300000 0.001698 0.205203
v 0.300000 0.003132 0.203302
v 0.300000 0.003000 0.205500
v 0.300000 0.002332 0.205425
v 0.300000 0.003132 0.203302
v 0.300000 0.001698 0.205203
v 0.300000 0.002753 0.203064
v 0.300000 0.002050 0.201945
v 0.300000 0.002198 0.202368
v 0.300000 0.000000 0.202500
v 0.300000 0.003555 0.203450
v 0.300000 0.003000 0.205500
v 0.300000 0.003132 0.203302
v 0.300000 0.002000 0.201500
v 0.300000 0.002050 0.201945
v 0.300000 0.000000 0.202500
v 0.300000 0.004000 0.203500
v 0.300000 0.003000 0.205500
v 0.300000 0.003555 0.203450
v 0.300000 0.022000 0.205500
v 0.300000 0.003000 0.205500
v 0.300000 0.004000 0.203500
v 0.300000 0.002000 0.184500
v 0.300000 0.000000 0.202500
v 0.300000 0.000000 0.183500
v 0.300000 0.002000 0.184500
v 0.300000 0.002000 0.201500
v 0.300000 0.000000 0.202500
v 0.300000 0.021000 0.203500
v 0.300000 0.022000 0.205500
v 0.300000 0.004000 0.203500
v 0.300000 0.002050 0.184055
v 0.300000 0.002000 0.184500
v 0.300000 0.000000 0.183500
v 0.300000 0.021445 0.203450
v 0.300000 0.022000 0.205500
v 0.300000 0.021000 0.203500
v 0.300000 0.002198 0.183632
v 0.300000 0.002050 0.184055
v 0.300000 0.000000 0.183500
v 0.300000 0.002198 0.183632
v 0.300000 0.000075 0.182832
v 0.300000 0.000297 0.182198
v 0.300000 0.002198 0.183632
v 0.300000 0.000000 0.183500
v 0.300000 0.000075 0.182832
v 0.300000 0.021868 0.203302
v 0.300000 0.022668 0.205425
v 0.300000 0.022000 0.205500
v 0.300000 0.021868 0.203302
v 0.300000 0.023302 0.205203
v 0.300000 0.022668 0.205425
v 0.300000 0.021868 0.203302
v 0.300000 0.022000 0.205500
v 0.300000 0.021445 0.203450
v 0.300000 0.002436 0.183253
v 0.300000 0.002198 0.183632
v 0.300000 0.000297 0.182198
v 0.300000 0.002436 0.183253
v 0.300000 0.000297 0.182198
v 0.300000 0.000655 0.181630
v 0.300000 0.022247 0.203064
v 0.300000 0.023870 0.204845
v 0.300000 0.023302 0.205203
v 0.300000 0.022247 0.203064
v 0.300000 0.023302 0.205203
v 0.300000 0.021868 0.203302
v 0.300000 0.002753 0.182936
v 0.300000 0.002436 0.183253
v 0.300000 0.000655 0.181630
v 0.300000 0.001130 0.181155
v 0.300000 0.002753 0.182936
v 0.300000 0.000655 0.181630
v 0.300000 0.024345 0.204370
v 0.300000 0.023870 0.204845
v 0.300000 0.022247 0.203064
v 0.300000 0.024345 0.204370
v 0.300000 0.022247 0.203064
v 0.300000 0.022564 0.202747
v 0.300000 0.024703 0.203802
v 0.300000 0.024345 0.204370
v 0.300000 0.022564 0.202747
v 0.300000 0.024703 0.203802
v 0.300000 0.022564 0.202747
v 0.300000 0.022802 0.202368
v 0.300000 0.001698 0.180797
v 0.300000 0.003132 0.182698
v 0.300000 0.002753 0.182936
v 0.300000 0.001698 0.180797
v 0.300000 0.002753 0.182936
v 0.300000 0.001130 0.181155
v 0.300000 0.024925 0.203168
v 0.300000 0.024703 0.203802
v 0.300000 0.022802 0.202368
v 0.300000 0.002332 0.180575
v 0.300000 0.003132 0.182698
v 0.300000 0.001698 0.180797
v 0.300000 0.025000 0.202500
v 0.300000 0.022802 0.202368
v 0.300000 0.022950 0.201945
v 0.300000 0.025000 0.202500
v 0.300000 0.024925 0.203168
v 0.300000 0.022802 0.202368
v 0.300000 0.025000 0.202500
v 0.300000 0.022950 0.201945
v 0.300000 0.023000 0.201500
v 0.300000 0.003000 0.180500
v 0.300000 0.004000 0.182500
v 0.300000 0.003555 0.182550
v 0.300000 0.003000 0.180500
v 0.300000 0.003555 0.182550
v 0.300000 0.003132 0.182698
v 0.300000 0.003000 0.180500
v 0.300000 0.003132 0.182698
v 0.300000 0.002332 0.180575
v 0.300000 0.023000 0.184500
v 0.300000 0.025000 0.202500
v 0.300000 0.023000 0.201500
v 0.300000 0.022000 0.180500
v 0.300000 0.004000 0.182500
v 0.300000 0.003000 0.180500
v 0.300000 0.022000 0.180500
v 0.300000 0.021868 0.182698
v 0.300000 0.021445 0.182550
v 0.300000 0.022000 0.180500
v 0.300000 0.021445 0.182550
v 0.300000 0.021000 0.182500
v 0.300000 0.022000 0.180500
v 0.300000 0.021000 0.182500
v 0.300000 0.004000 0.182500
v 0.300000 0.025000 0.183500
v 0.300000 0.025000 0.202500
v 0.300000 0.023000 0.184500
v 0.300000 0.025000 0.183500
v 0.300000 0.023000 0.184500
v 0.300000 0.022950 0.184055
v 0.300000 0.025000 0.183500
v 0.300000 0.022950 0.184055
v 0.300000 0.022802 0.183632
v 0.300000 0.022668 0.180575
v 0.300000 0.021868 0.182698
v 0.300000 0.022000 0.180500
v 0.300000 0.024925 0.182832
v 0.300000 0.025000 0.183500
v 0.300000 0.022802 0.183632
v 0.300000 0.024703 0.182198
v 0.300000 0.022802 0.183632
v 0.300000 0.022564 0.183253
v 0.300000 0.024703 0.182198
v 0.300000 0.024925 0.182832
v 0.300000 0.022802 0.183632
v 0.300000 0.023302 0.180797
v 0.300000 0.022247 0.182936
v 0.300000 0.021868 0.182698
v 0.300000 0.023302 0.180797
v 0.300000 0.021868 0.182698
v 0.300000 0.022668 0.180575
v 0.300000 0.024345 0.181630
v 0.300000 0.024703 0.182198
v 0.300000 0.022564 0.183253
v 0.300000 0.024345 0.181630
v 0.300000 0.022564 0.183253
v 0.300000 0.022247 0.182936
v 0.300000 0.023870 0.181155
v 0.300000 0.024345 0.181630
v 0.300000 0.022247 0.182936
v 0.300000 0.023870 0.181155
v 0.300000 0.022247 0.182936
v 0.300000 0.023302 0.180797
f 1 2 3
f 1 3 4
f 5 6 7
f 8 9 10
f 8 10 11
f 12 13 14
f 15 16 17
f 18 19 20
f 18 20 21
f 22 23 24
f 25 26 27
f 25 27 28
f 29 30 31
f 32 33 34
f 32 34 35
f 36 37 38
f 39 40 41
f 42 43 44
f 42 44 45
f 46 47 48
f 49 50 51
f 49 51 52
f 53 54 55
f 53 55 56
f 57 58 59
f 60 61 62
f 60 62 63
f 64 65 66
f 64 66 67
f 68 69 70
f 71 72 73
f 74 75 76
f 74 76 77
f 78 79 80
f 81 82 83
f 81 83 84
f 85 86 87
f 88 89 90
f 88 90 91
f 92 93 94
f 95 96 97
f 98 99 100
f 98 100 101
f 102 103 104
f 105 106 107
f 105 107 108
f 109 110 111
f 109 111 112
f 113 114 115
f 113 115 116
f 117 118 119
f 120 121 122
f 120 122 123
f 124 125 126
f 127 128 129
f 130 131 132
f 130 132 133
f 134 135 136
f 137 138 139
f 137 139 140
f 141 142 143
f 144 145 146
f 144 146 147
f 148 149 150
f 151 152 153
f 154 155 156
f 154 156 157
f 158 159 160
f 161 162 163
f 161 163 164
f 165 166 167
f 165 167 168
f 169 170 171
f 169 171 172
f 173 174 175
f 176 177 178
f 176 178 179
f 180 181 182
f 183 184 185
f 186 187 188
f 186 188 189
f 190 191 192
f 193 194 195
f 193 195 196
f 197 198 199
f 200 201 202
f 200 202 203
f 204 205 206
f 207 208 209
f 210 211 212
f 210 212 213
f 214 215 216
f 217 218 219
f 217 219 220
f 221 222 223
f 221 223 224
f 225 226 227
f 225 227 228
f 229 230 231
f 232 233 234
f 235 236 237
f 235 237 238
f 239 240 241
f 242 243 244
f 242 244 245
f 246 247 248
f 249 250 251
f 249 251 252
f 253 254 255
f 256 257 258
f 259 260 261
f 259 261 262
f 263 264 265
f 266 267 268
f 266 268 269
f 270 271 272
f 270 272 273
f 274 275 276
f 274 276 277
f 278 279 280
f 281 282 283
f 281 283 284
f 285 286 287
f 288 289 290
f 291 292 293
f 291 293 294
f 295 296 297
f 298 299 300
f 298 300 301
f 302 303 304
f 305 306 307
f 308 309 310
f 308 310 311
f 312 313 314
f 315 316 317
f 315 317 318
f 319 320 321
f 319 321 322
f 323 324 325
f 326 327 328
f 326 328 329
f 330 331 332
f 330 332 333
f 334 335 336
f 337 338 339
f 340 341 342
f 343 344 345
f 343 345 346
f 347 348 349
f 347 349 350
f 351 352 353
f 354 355 356
f 354 356 357
f 358 359 360
f 361 362 363
f 361 363 364
f 365 366 367
f 368 369 370
f 368 370 371
f 372 373 374
f 375 376 377
f 378 379 380
f 378 380 381
f 382 383 384
f 382 384 385
f 386 387 388
f 386 388 389
f 390 391 392
f 393 394 395
f 393 395 396
f 397 398 399
f 400 401 402
f 403 404 405
f 403 405 406
f 407 408 409
f 410 411 412
f 413 414 415
f 413 415 416
f 417 418 419
f 417 419 420
f 421 422 423
f 424 425 426
f 424 426 427
f 428 429 430
f 431 432 433
f 431 433 434
f 435 436 437
f 438 439 440
f 438 440 441
f 442 443 444
f 442 444 445
f 446 447 448
f 449 450 451
f 452 453 454
f 455 456 457
f 458 459 460
f 461 462 463
f 464 465 466
f 467 468 469
f 470 471 472
f 473 474 475
f 476 477 478
f 479 480 481
f 482 483 484
f 485 486 487
f 488 489 490
f 491 492 493
f 494 495 496
f 497 498 499
f 500 501 502
f 503 504 505
f 506 507 508
f 509 510 511
f 512 513 514
f 515 516 517
f 518 519 520
f 521 522 523
f 524 525 526
f 527 528 529
f 530 531 532
f 533 534 535
f 536 537 538
f 539 540 541
f 542 543 544
f 545 546 547
f 548 549 550
f 551 552 553
f 554 555 556
f 557 558 559
f 560 561 562
f 563 564 565
f 566 567 568
f 569 570 571
f 572 573 574
f 575 576 577
f 578 579 580
f 581 582 583
f 584 585 586
f 587 588 589
f 590 591 592
f 593 594 595
f 596 597 598
f 599 600 601
f 602 603 604
f 605 606 607
f 608 609 610
f 611 612 613
f 614 615 616
f 617 618 619
f 620 621 622
f 623 624 625
f 626 627 628
f 629 630 631
f 632 633 634
f 635 636 637
f 638 639 640
