mtllib RailLeft_00.mtl
o RailLeft_00_14
usemtl mat_14
v -0.270000 0.025000 0.184450
v -0.270000 0.025000 0.183500
v -0.300000 0.025000 0.183500
v -0.270000 0.025000 0.202500
v -0.270000 0.025000 0.184450
v -0.300000 0.025000 0.183500
v -0.300000 0.025000 0.202500
v -0.270000 0.024996 0.202533
v -0.270000 0.025000 0.202500
v -0.300000 0.025000 0.202500
v -0.270000 0.024925 0.203168
v -0.270000 0.024996 0.202533
v -0.300000 0.025000 0.202500
v -0.300000 0.024925 0.203168
v -0.270000 0.024703 0.203802
v -0.270000 0.024914 0.203199
v -0.300000 0.024925 0.203168
v -0.300000 0.024703 0.203802
v -0.270000 0.024914 0.203199
v -0.270000 0.024925 0.203168
v -0.300000 0.024925 0.203168
v -0.270000 0.024345 0.204370
v -0.270000 0.024685 0.203830
v -0.300000 0.024703 0.203802
v -0.300000 0.024345 0.204370
v -0.270000 0.024685 0.203830
v -0.270000 0.024703 0.203802
v -0.300000 0.024703 0.203802
v -0.270000 0.023870 0.204845
v -0.270000 0.024322 0.204394
v -0.300000 0.024345 0.204370
v -0.300000 0.023870 0.204845
v -0.270000 0.024322 0.204394
v -0.270000 0.024345 0.204370
v -0.300000 0.024345 0.204370
v -0.270000 0.022699 0.205414
v -0.270000 0.023302 0.205203
v -0.300000 0.023302 0.205203
v -0.300000 0.022668 0.205425
v -0.270000 0.023302 0.205203
v -0.270000 0.023842 0.204863
v -0.300000 0.023870 0.204845
v -0.300000 0.023302 0.205203
v -0.270000 0.023842 0.204863
v -0.270000 0.023870 0.204845
v -0.300000 0.023870 0.204845
v -0.270000 0.022033 0.205496
v -0.270000 0.022668 0.205425
v -0.300000 0.022668 0.205425
v -0.300000 0.022000 0.205500
v -0.270000 0.022668 0.205425
v -0.270000 0.022699 0.205414
v -0.300000 0.022668 0.205425
v -0.270000 0.022000 0.205500
v -0.270000 0.022033 0.205496
v -0.300000 0.022000 0.205500
v -0.270000 0.003950 0.205500
v -0.270000 0.022000 0.205500
v -0.300000 0.022000 0.205500
v -0.300000 0.003000 0.205500
v -0.270000 0.003000 0.205500
v -0.270000 0.003950 0.205500
v -0.300000 0.003000 0.205500
v -0.270000 0.002967 0.205496
v -0.270000 0.003000 0.205500
v -0.300000 0.003000 0.205500
v -0.270000 0.002332 0.205425
v -0.270000 0.002967 0.205496
v -0.300000 0.003000 0.205500
v -0.300000 0.002332 0.205425
v -0.270000 0.001698 0.205203
v -0.270000 0.002301 0.205414
v -0.300000 0.002332 0.205425
v -0.300000 0.001698 0.205203
v -0.270000 0.002301 0.205414
v -0.270000 0.002332 0.205425
v -0.300000 0.002332 0.205425
v -0.270000 0.001130 0.204845
v -0.270000 0.001670 0.205185
v -0.300000 0.001698 0.205203
v -0.300000 0.001130 0.204845
v -0.270000 0.001670 0.205185
v -0.270000 0.001698 0.205203
v -0.300000 0.001698 0.205203
v -0.270000 0.000655 0.204370
v -0.270000 0.001106 0.204822
v -0.300000 0.001130 0.204845
v -0.300000 0.000655 0.204370
v -0.270000 0.001106 0.204822
v -0.270000 0.001130 0.204845
v -0.300000 0.001130 0.204845
v -0.270000 0.000086 0.203199
v -0.270000 0.000297 0.203802
v -0.300000 0.000297 0.203802
v -0.300000 0.000075 0.203168
v -0.270000 0.000297 0.203802
v -0.270000 0.000637 0.204342
v -0.300000 0.000655 0.204370
v -0.300000 0.000297 0.203802
v -0.270000 0.000637 0.204342
v -0.270000 0.000655 0.204370
v -0.300000 0.000655 0.204370
v -0.270000 0.000004 0.202533
v -0.270000 0.000075 0.203168
v -0.300000 0.000075 0.203168
v -0.300000 0.000000 0.202500
v -0.270000 0.000075 0.203168
v -0.270000 0.000086 0.203199
v -0.300000 0.000075 0.203168
v -0.270000 0.000000 0.202500
v -0.270000 0.000004 0.202533
v -0.300000 0.000000 0.202500
v -0.270000 0.000000 0.201550
v -0.270000 0.000000 0.202500
v -0.300000 0.000000 0.202500
v -0.270000 0.000000 0.183500
v -0.270000 0.000000 0.201550
v -0.300000 0.000000 0.202500
v -0.300000 0.000000 0.183500
v -0.270000 0.000004 0.183467
v -0.270000 0.000000 0.183500
v -0.300000 0.000000 0.183500
v -0.270000 0.000075 0.182832
v -0.270000 0.000004 0.183467
v -0.300000 0.000000 0.183500
v -0.300000 0.000075 0.182832
v -0.270000 0.000297 0.182198
v -0.270000 0.000086 0.182801
v -0.300000 0.000075 0.182832
v -0.300000 0.000297 0.182198
v -0.270000 0.000086 0.182801
v -0.270000 0.000075 0.182832
v -0.300000 0.000075 0.182832
v -0.270000 0.000655 0.181630
v -0.270000 0.000315 0.182170
v -0.300000 0.000297 0.182198
v -0.300000 0.000655 0.181630
v -0.270000 0.000315 0.182170
v -0.270000 0.000297 0.182198
v -0.300000 0.000297 0.182198
v -0.270000 0.001130 0.181155
v -0.270000 0.000678 0.181606
v -0.300000 0.000655 0.181630
v -0.300000 0.001130 0.181155
v -0.270000 0.000678 0.181606
v -0.270000 0.000655 0.181630
v -0.300000 0.000655 0.181630
v -0.270000 0.002301 0.180586
v -0.270000 0.001698 0.180797
v -0.300000 0.001698 0.180797
v -0.300000 0.002332 0.180575
v -0.270000 0.001698 0.180797
v -0.270000 0.001158 0.181137
v -0.300000 0.001130 0.181155
v -0.300000 0.001698 0.180797
v -0.270000 0.001158 0.181137
v -0.270000 0.001130 0.181155
v -0.300000 0.001130 0.181155
v -0.270000 0.002967 0.180504
v -0.270000 0.002332 0.180575
v -0.300000 0.002332 0.180575
v -0.300000 0.003000 0.180500
v -0.270000 0.002332 0.180575
v -0.270000 0.002301 0.180586
v -0.300000 0.002332 0.180575
v -0.270000 0.003000 0.180500
v -0.270000 0.002967 0.180504
v -0.300000 0.003000 0.180500
v -0.270000 0.003950 0.180500
v -0.270000 0.003000 0.180500
v -0.300000 0.003000 0.180500
v -0.270000 0.022000 0.180500
v -0.270000 0.003950 0.180500
v -0.300000 0.003000 0.180500
v -0.300000 0.022000 0.180500
v -0.270000 0.022033 0.180504
v -0.270000 0.022000 0.180500
v -0.300000 0.022000 0.180500
v -0.270000 0.022668 0.180575
v -0.270000 0.022033 0.180504
v -0.300000 0.022000 0.180500
v -0.300000 0.022668 0.180575
v -0.270000 0.023302 0.180797
v -0.270000 0.022699 0.180586
v -0.300000 0.022668 0.180575
v -0.300000 0.023302 0.180797
v -0.270000 0.022699 0.180586
v -0.270000 0.022668 0.180575
v -0.300000 0.022668 0.180575
v -0.270000 0.023870 0.181155
v -0.270000 0.023330 0.180815
v -0.300000 0.023302 0.180797
v -0.300000 0.023870 0.181155
v -0.270000 0.023330 0.180815
v -0.270000 0.023302 0.180797
v -0.300000 0.023302 0.180797
v -0.270000 0.024345 0.181630
v -0.270000 0.023894 0.181178
v -0.300000 0.023870 0.181155
v -0.300000 0.024345 0.181630
v -0.270000 0.023894 0.181178
v -0.270000 0.023870 0.181155
v -0.300000 0.023870 0.181155
v -0.270000 0.024914 0.182801
v -0.270000 0.024703 0.182198
v -0.300000 0.024703 0.182198
v -0.300000 0.024925 0.182832
v -0.270000 0.024703 0.182198
v -0.270000 0.024363 0.181658
v -0.300000 0.024345 0.181630
v -0.300000 0.024703 0.182198
v -0.270000 0.024363 0.181658
v -0.270000 0.024345 0.181630
v -0.300000 0.024345 0.181630
v -0.270000 0.024996 0.183467
v -0.270000 0.024925 0.182832
v -0.300000 0.024925 0.182832
v -0.300000 0.025000 0.183500
v -0.270000 0.024925 0.182832
v -0.270000 0.024914 0.182801
v -0.300000 0.024925 0.182832
v -0.270000 0.025000 0.183500
v -0.270000 0.024996 0.183467
v -0.300000 0.025000 0.183500
v -0.270000 0.002003 0.184478
v -0.300000 0.002000 0.184500
v -0.270000 0.002000 0.184500
v -0.270000 0.002003 0.184478
v -0.270000 0.002050 0.184055
v -0.300000 0.002050 0.184055
v -0.300000 0.002000 0.184500
v -0.270000 0.002058 0.184034
v -0.270000 0.002198 0.183632
v -0.300000 0.002198 0.183632
v -0.300000 0.002050 0.184055
v -0.270000 0.002058 0.184034
v -0.300000 0.002050 0.184055
v -0.270000 0.002050 0.184055
v -0.270000 0.002210 0.183613
v -0.270000 0.002436 0.183253
v -0.300000 0.002436 0.183253
v -0.300000 0.002198 0.183632
v -0.270000 0.002210 0.183613
v -0.300000 0.002198 0.183632
v -0.270000 0.002198 0.183632
v -0.270000 0.002452 0.183237
v -0.270000 0.002753 0.182936
v -0.300000 0.002753 0.182936
v -0.300000 0.002436 0.183253
v -0.270000 0.002452 0.183237
v -0.300000 0.002436 0.183253
v -0.270000 0.002436 0.183253
v -0.270000 0.003132 0.182698
v -0.270000 0.003534 0.182558
v -0.300000 0.003555 0.182550
v -0.300000 0.003132 0.182698
v -0.270000 0.002772 0.182924
v -0.270000 0.003132 0.182698
v -0.300000 0.003132 0.182698
v -0.300000 0.002753 0.182936
v -0.270000 0.002772 0.182924
v -0.300000 0.002753 0.182936
v -0.270000 0.002753 0.182936
v -0.270000 0.003555 0.182550
v -0.270000 0.003978 0.182503
v -0.300000 0.004000 0.182500
v -0.300000 0.003555 0.182550
v -0.270000 0.003555 0.182550
v -0.300000 0.003555 0.182550
v -0.270000 0.003534 0.182558
v -0.270000 0.004000 0.182500
v -0.300000 0.004000 0.182500
v -0.270000 0.003978 0.182503
v -0.270000 0.002000 0.200650
v -0.300000 0.002000 0.201500
v -0.270000 0.002000 0.201500
v -0.270000 0.002000 0.200650
v -0.270000 0.002000 0.184500
v -0.300000 0.002000 0.184500
v -0.300000 0.002000 0.201500
v -0.270000 0.003978 0.203497
v -0.300000 0.004000 0.203500
v -0.270000 0.004000 0.203500
v -0.270000 0.003978 0.203497
v -0.270000 0.003555 0.203450
v -0.300000 0.003555 0.203450
v -0.300000 0.004000 0.203500
v -0.270000 0.003534 0.203442
v -0.270000 0.003132 0.203302
v -0.300000 0.003132 0.203302
v -0.300000 0.003555 0.203450
v -0.270000 0.003534 0.203442
v -0.300000 0.003555 0.203450
v -0.270000 0.003555 0.203450
v -0.270000 0.003113 0.203290
v -0.270000 0.002753 0.203064
v -0.300000 0.002753 0.203064
v -0.300000 0.003132 0.203302
v -0.270000 0.003113 0.203290
v -0.300000 0.003132 0.203302
v -0.270000 0.003132 0.203302
v -0.270000 0.002436 0.202747
v -0.270000 0.002210 0.202387
v -0.300000 0.002198 0.202368
v -0.300000 0.002436 0.202747
v -0.270000 0.002737 0.203048
v -0.270000 0.002436 0.202747
v -0.300000 0.002436 0.202747
v -0.300000 0.002753 0.203064
v -0.270000 0.002737 0.203048
v -0.300000 0.002753 0.203064
v -0.270000 0.002753 0.203064
v -0.270000 0.002198 0.202368
v -0.270000 0.002058 0.201966
v -0.300000 0.002050 0.201945
v -0.300000 0.002198 0.202368
v -0.270000 0.002198 0.202368
v -0.300000 0.002198 0.202368
v -0.270000 0.002210 0.202387
v -0.270000 0.002050 0.201945
v -0.300000 0.002050 0.201945
v -0.270000 0.002058 0.201966
v -0.270000 0.002048 0.201923
v -0.270000 0.002000 0.201500
v -0.300000 0.002000 0.201500
v -0.300000 0.002050 0.201945
v -0.270000 0.002048 0.201923
v -0.300000 0.002050 0.201945
v -0.270000 0.002050 0.201945
v -0.270000 0.020150 0.203500
v -0.300000 0.021000 0.203500
v -0.270000 0.021000 0.203500
v -0.270000 0.020150 0.203500
v -0.270000 0.004000 0.203500
v -0.300000 0.004000 0.203500
v -0.300000 0.021000 0.203500
v -0.270000 0.023000 0.201500
v -0.270000 0.022952 0.201923
v -0.300000 0.022950 0.201945
v -0.300000 0.023000 0.201500
v -0.270000 0.022950 0.201945
v -0.270000 0.022809 0.202347
v -0.300000 0.022802 0.202368
v -0.300000 0.022950 0.201945
v -0.270000 0.022950 0.201945
v -0.300000 0.022950 0.201945
v -0.270000 0.022952 0.201923
v -0.270000 0.022802 0.202368
v -0.300000 0.022802 0.202368
v -0.270000 0.022809 0.202347
v -0.270000 0.022790 0.202387
v -0.270000 0.022564 0.202747
v -0.300000 0.022564 0.202747
v -0.300000 0.022802 0.202368
v -0.270000 0.022790 0.202387
v -0.300000 0.022802 0.202368
v -0.270000 0.022802 0.202368
v -0.270000 0.022548 0.202763
v -0.270000 0.022247 0.203064
v -0.300000 0.022247 0.203064
v -0.300000 0.022564 0.202747
v -0.270000 0.022548 0.202763
v -0.300000 0.022564 0.202747
v -0.270000 0.022564 0.202747
v -0.270000 0.022228 0.203076
v -0.270000 0.021868 0.203302
v -0.300000 0.021868 0.203302
v -0.300000 0.022247 0.203064
v -0.270000 0.022228 0.203076
v -0.300000 0.022247 0.203064
v -0.270000 0.022247 0.203064
v -0.270000 0.021445 0.203450
v -0.270000 0.021022 0.203497
v -0.300000 0.021000 0.203500
v -0.300000 0.021445 0.203450
v -0.270000 0.021847 0.203309
v -0.270000 0.021445 0.203450
v -0.300000 0.021445 0.203450
v -0.300000 0.021868 0.203302
v -0.270000 0.021847 0.203309
v -0.300000 0.021868 0.203302
v -0.270000 0.021868 0.203302
v -0.270000 0.021000 0.203500
v -0.300000 0.021000 0.203500
v -0.270000 0.021022 0.203497
v -0.270000 0.023000 0.185350
v -0.300000 0.023000 0.184500
v -0.270000 0.023000 0.184500
v -0.270000 0.023000 0.185350
v -0.270000 0.023000 0.201500
v -0.300000 0.023000 0.201500
v -0.300000 0.023000 0.184500
v -0.270000 0.021022 0.182503
v -0.300000 0.021000 0.182500
v -0.270000 0.021000 0.182500
v -0.270000 0.021022 0.182503
v -0.270000 0.021445 0.182550
v -0.300000 0.021445 0.182550
v -0.300000 0.021000 0.182500
v -0.270000 0.021466 0.182558
v -0.270000 0.021868 0.182698
v -0.300000 0.021868 0.182698
v -0.300000 0.021445 0.182550
v -0.270000 0.021466 0.182558
v -0.300000 0.021445 0.182550
v -0.270000 0.021445 0.182550
v -0.270000 0.022247 0.182936
v -0.270000 0.022548 0.183237
v -0.300000 0.022564 0.183253
v -0.300000 0.022247 0.182936
v -0.270000 0.021887 0.182710
v -0.270000 0.022247 0.182936
v -0.300000 0.022247 0.182936
v -0.300000 0.021868 0.182698
v -0.270000 0.021887 0.182710
v -0.300000 0.021868 0.182698
v -0.270000 0.021868 0.182698
v -0.270000 0.022564 0.183253
v -0.300000 0.022564 0.183253
v -0.270000 0.022548 0.183237
v -0.270000 0.022576 0.183272
v -0.270000 0.022802 0.183632
v -0.300000 0.022802 0.183632
v -0.300000 0.022564 0.183253
v -0.270000 0.022576 0.183272
v -0.300000 0.022564 0.183253
v -0.270000 0.022564 0.183253
v -0.270000 0.022809 0.183653
v -0.270000 0.022950 0.184055
v -0.300000 0.022950 0.184055
v -0.300000 0.022802 0.183632
v -0.270000 0.022809 0.183653
v -0.300000 0.022802 0.183632
v -0.270000 0.022802 0.183632
v -0.270000 0.022952 0.184077
v -0.270000 0.023000 0.184500
v -0.300000 0.023000 0.184500
v -0.300000 0.022950 0.184055
v -0.270000 0.022952 0.184077
v -0.300000 0.022950 0.184055
v -0.270000 0.022950 0.184055
v -0.270000 0.004850 0.182500
v -0.300000 0.004000 0.182500
v -0.270000 0.004000 0.182500
v -0.270000 0.004850 0.182500
v -0.270000 0.021000 0.182500
v -0.300000 0.021000 0.182500
v -0.300000 0.004000 0.182500
v -0.300000 0.002436 0.202747
v -0.300000 0.000297 0.203802
v -0.300000 0.000655 0.204370
v -0.300000 0.002436 0.202747
v -0.300000 0.000655 0.204370
v -0.300000 0.001130 0.204845
v -0.300000 0.002753 0.203064
v -0.300000 0.001130 0.204845
v -0.300000 0.001698 0.205203
v -0.300000 0.002753 0.203064
v -0.300000 0.002436 0.202747
v -0.300000 0.001130 0.204845
v -0.300000 0.002198 0.202368
v -0.300000 0.000000 0.202500
v -0.300000 0.000075 0.203168
v -0.300000 0.002198 0.202368
v -0.300000 0.000075 0.203168
v -0.300000 0.000297 0.203802
v -0.300000 0.002198 0.202368
v -0.300000 0.000297 0.203802
v -0.300000 0.002436 0.202747
v -0.300000 0.003132 0.203302
v -0.300000 0.001698 0.205203
v -0.300000 0.002332 0.205425
v -0.300000 0.003132 0.203302
v -0.300000 0.002332 0.205425
v -0.300000 0.003000 0.205500
v -0.300000 0.003132 0.203302
v -0.300000 0.002753 0.203064
v -0.300000 0.001698 0.205203
v -0.300000 0.002050 0.201945
v -0.300000 0.000000 0.202500
v -0.300000 0.002198 0.202368
v -0.300000 0.003555 0.203450
v -0.300000 0.003132 0.203302
v -0.300000 0.003000 0.205500
v -0.300000 0.002000 0.201500
v -0.300000 0.000000 0.202500
v -0.300000 0.002050 0.201945
v -0.300000 0.004000 0.203500
v -0.300000 0.003555 0.203450
v -0.300000 0.003000 0.205500
v -0.300000 0.022000 0.205500
v -0.300000 0.004000 0.203500
v -0.300000 0.003000 0.205500
v -0.300000 0.002000 0.184500
v -0.300000 0.000000 0.183500
v -0.300000 0.000000 0.202500
v -0.300000 0.002000 0.184500
v -0.300000 0.000000 0.202500
v -0.300000 0.002000 0.201500
v -0.300000 0.021000 0.203500
v -0.300000 0.004000 0.203500
v -0.300000 0.022000 0.205500
v -0.300000 0.002050 0.184055
v -0.300000 0.000000 0.183500
v -0.300000 0.002000 0.184500
v -0.300000 0.021445 0.203450
v -0.300000 0.021000 0.203500
v -0.300000 0.022000 0.205500
v -0.300000 0.002198 0.183632
v -0.300000 0.000000 0.183500
v -0.300000 0.002050 0.184055
v -0.300000 0.002198 0.183632
v -0.300000 0.000297 0.182198
v -0.300000 0.000075 0.182832
v -0.300000 0.002198 0.183632
v -0.300000 0.000075 0.182832
v -0.300000 0.000000 0.183500
v -0.300000 0.021868 0.203302
v -0.300000 0.022000 0.205500
v -0.300000 0.022668 0.205425
v -0.300000 0.021868 0.203302
v -0.300000 0.022668 0.205425
v -0.300000 0.023302 0.205203
v -0.300000 0.021868 0.203302
v -0.300000 0.021445 0.203450
v -0.300000 0.022000 0.205500
v -0.300000 0.002436 0.183253
v -0.300000 0.000297 0.182198
v -0.300000 0.002198 0.183632
v -0.300000 0.002436 0.183253
v -0.300000 0.000655 0.181630
v -0.300000 0.000297 0.182198
v -0.300000 0.022247 0.203064
v -0.300000 0.023302 0.205203
v -0.300000 0.023870 0.204845
v -0.300000 0.022247 0.203064
v -0.300000 0.021868 0.203302
v -0.300000 0.023302 0.205203
v -0.300000 0.002753 0.182936
v -0.300000 0.000655 0.181630
v -0.300000 0.002436 0.183253
v -0.300000 0.001130 0.181155
v -0.300000 0.000655 0.181630
v -0.300000 0.002753 0.182936
v -0.300000 0.024345 0.204370
v -0.300000 0.022247 0.203064
v -0.300000 0.023870 0.204845
v -0.300000 0.024345 0.204370
v -0.300000 0.022564 0.202747
v -0.300000 0.022247 0.203064
v -0.300000 0.024703 0.203802
v -0.300000 0.022564 0.202747
v -0.300000 0.024345 0.204370
v -0.300000 0.024703 0.203802
v -0.300000 0.022802 0.202368
v -0.300000 0.022564 0.202747
v -0.300000 0.001698 0.180797
v -0.300000 0.002753 0.182936
v -0.300000 0.003132 0.182698
v -0.300000 0.001698 0.180797
v -0.300000 0.001130 0.181155
v -0.300000 0.002753 0.182936
v -0.300000 0.024925 0.203168
v -0.300000 0.022802 0.202368
v -0.300000 0.024703 0.203802
v -0.300000 0.002332 0.180575
v -0.300000 0.001698 0.180797
v -0.300000 0.003132 0.182698
v -0.300000 0.025000 0.202500
v -0.300000 0.022950 0.201945
v -0.300000 0.022802 0.202368
v -0.300000 0.025000 0.202500
v -0.300000 0.022802 0.202368
v -0.300000 0.024925 0.203168
v -0.300000 0.025000 0.202500
v -0.300000 0.023000 0.201500
v -0.300000 0.022950 0.201945
v -0.300000 0.003000 0.180500
v -0.300000 0.003555 0.182550
v -0.300000 0.004000 0.182500
v -0.300000 0.003000 0.180500
v -0.300000 0.003132 0.182698
v -0.300000 0.003555 0.182550
v -0.300000 0.003000 0.180500
v -0.300000 0.002332 0.180575
v -0.300000 0.003132 0.182698
v -0.300000 0.023000 0.184500
v -0.300000 0.023000 0.201500
v -0.300000 0.025000 0.202500
v -0.300000 0.022000 0.180500
v -0.300000 0.003000 0.180500
v -0.300000 0.004000 0.182500
v -0.300000 0.022000 0.180500
v -0.300000 0.021445 0.182550
v -0.300000 0.021868 0.182698
v -0.300000 0.022000 0.180500
v -0.300000 0.021000 0.182500
v -0.300000 0.021445 0.182550
v -0.300000 0.022000 0.180500
v -0.300000 0.004000 0.182500
v -0.300000 0.021000 0.182500
v -0.300000 0.025000 0.183500
v -0.300000 0.023000 0.184500
v -0.300000 0.025000 0.202500
v -0.300000 0.025000 0.183500
v -0.300000 0.022950 0.184055
v -0.300000 0.023000 0.184500
v -0.300000 0.025000 0.183500
v -0.300000 0.022802 0.183632
v -0.300000 0.022950 0.184055
v -0.300000 0.022668 0.180575
v -0.300000 0.022000 0.180500
v -0.300000 0.021868 0.182698
v -0.300000 0.024925 0.182832
v -0.300000 0.022802 0.183632
v -0.300000 0.025000 0.183500
v -0.300000 0.024703 0.182198
v -0.300000 0.022564 0.183253
v -0.300000 0.022802 0.183632
v -0.300000 0.024703 0.182198
v -0.300000 0.022802 0.183632
v -0.300000 0.024925 0.182832
v -0.300000 0.023302 0.180797
v -0.300000 0.021868 0.182698
v -0.300000 0.022247 0.182936
v -0.300000 0.023302 0.180797
v -0.300000 0.022668 0.180575
v -0.300000 0.021868 0.182698
v -0.300000 0.024345 0.181630
v -0.300000 0.022564 0.183253
v -0.300000 0.024703 0.182198
v -0.300000 0.024345 0.181630
v -0.300000 0.022247 0.182936
v -0.300000 0.022564 0.183253
v -0.300000 0.023870 0.181155
v -0.300000 0.022247 0.182936
v -0.300000 0.024345 0.181630
v -0.300000 0.023870 0.181155
v -0.300000 0.023302 0.180797
v -0.300000 0.022247 0.182936
f 1 2 3
f 4 5 6
f 4 6 7
f 8 9 10
f 11 12 13
f 11 13 14
f 15 16 17
f 15 17 18
f 19 20 21
f 22 23 24
f 22 24 25
f 26 27 28
f 29 30 31
f 29 31 32
f 33 34 35
f 36 37 38
f 36 38 39
f 40 41 42
f 40 42 43
f 44 45 46
f 47 48 49
f 47 49 50
f 51 52 53
f 54 55 56
f 57 58 59
f 57 59 60
f 61 62 63
f 64 65 66
f 67 68 69
f 67 69 70
f 71 72 73
f 71 73 74
f 75 76 77
f 78 79 80
f 78 80 81
f 82 83 84
f 85 86 87
f 85 87 88
f 89 90 91
f 92 93 94
f 92 94 95
f 96 97 98
f 96 98 99
f 100 101 102
f 103 104 105
f 103 105 106
f 107 108 109
f 110 111 112
f 113 114 115
f 116 117 118
f 116 118 119
f 120 121 122
f 123 124 125
f 123 125 126
f 127 128 129
f 127 129 130
f 131 132 133
f 134 135 136
f 134 136 137
f 138 139 140
f 141 142 143
f 141 143 144
f 145 146 147
f 148 149 150
f 148 150 151
f 152 153 154
f 152 154 155
f 156 157 158
f 159 160 161
f 159 161 162
f 163 164 165
f 166 167 168
f 169 170 171
f 172 173 174
f 172 174 175
f 176 177 178
f 179 180 181
f 179 181 182
f 183 184 185
f 183 185 186
f 187 188 189
f 190 191 192
f 190 192 193
f 194 195 196
f 197 198 199
f 197 199 200
f 201 202 203
f 204 205 206
f 204 206 207
f 208 209 210
f 208 210 211
f 212 213 214
f 215 216 217
f 215 217 218
f 219 220 221
f 222 223 224
f 225 226 227
f 228 229 230
f 228 230 231
f 232 233 234
f 232 234 235
f 236 237 238
f 239 240 241
f 239 241 242
f 243 244 245
f 246 247 248
f 246 248 249
f 250 251 252
f 253 254 255
f 253 255 256
f 257 258 259
f 257 259 260
f 261 262 263
f 264 265 266
f 264 266 267
f 268 269 270
f 271 272 273
f 274 275 276
f 277 278 279
f 277 279 280
f 281 282 283
f 284 285 286
f 284 286 287
f 288 289 290
f 288 290 291
f 292 293 294
f 295 296 297
f 295 297 298
f 299 300 301
f 302 303 304
f 302 304 305
f 306 307 308
f 306 308 309
f 310 311 312
f 313 314 315
f 313 315 316
f 317 318 319
f 320 321 322
f 323 324 325
f 323 325 326
f 327 328 329
f 330 331 332
f 333 334 335
f 333 335 336
f 337 338 339
f 337 339 340
f 341 342 343
f 341 343 344
f 345 346 347
f 348 349 350
f 351 352 353
f 351 353 354
f 355 356 357
f 358 359 360
f 358 360 361
f 362 363 364
f 365 366 367
f 365 367 368
f 369 370 371
f 372 373 374
f 372 374 375
f 376 377 378
f 376 378 379
f 380 381 382
f 383 384 385
f 386 387 388
f 389 390 391
f 389 391 392
f 393 394 395
f 396 397 398
f 396 398 399
f 400 401 402
f 400 402 403
f 404 405 406
f 407 408 409
f 407 409 410
f 411 412 413
f 411 413 414
f 415 416 417
f 418 419 420
f 421 422 423
f 421 423 424
f 425 426 427
f 428 429 430
f 428 430 431
f 432 433 434
f 435 436 437
f 435 437 438
f 439 440 441
f 442 443 444
f 445 446 447
f 445 447 448
f 449 450 451
f 452 453 454
f 455 456 457
f 458 459 460
f 461 462 463
f 464 465 466
f 467 468 469
f 470 471 472
f 473 474 475
f 476 477 478
f 479 480 481
f 482 483 484
f 485 486 487
f 488 489 490
f 491 492 493
f 494 495 496
f 497 498 499
f 500 501 502
f 503 504 505
f 506 507 508
f 509 510 511
f 512 513 514
f 515 516 517
f 518 519 520
f 521 522 523
f 524 525 526
f 527 528 529
f 530 531 532
f 533 534 535
f 536 537 538
f 539 540 541
f 542 543 544
f 545 546 547
f 548 549 550
f 551 552 553
f 554 555 556
f 557 558 559
f 560 561 562
f 563 564 565
f 566 567 568
f 569 570 571
f 572 573 574
f 575 576 577
f 578 579 580
f 581 582 583
f 584 585 586
f 587 588 589
f 590 591 592
f 593 594 595
f 596 597 598
f 599 600 601
f 602 603 604
f 605 606 607
f 608 609 610
f 611 612 613
f 614 615 616
f 617 618 619
f 620 621 622
f 623 624 625
f 626 627 628
f 629 630 631
f 632 633 634
f 635 636 637
f 638 639 640
