mtllib RailLeft_04.mtl
o RailLeft_04_14
usemtl mat_14
v -0.180000 0.025000 0.187300
v -0.150000 0.025000 0.188250
v -0.150000 0.025000 0.183500
v -0.180000 0.025000 0.183500
v -0.180000 0.025000 0.202500
v -0.150000 0.025000 0.202500
v -0.150000 0.025000 0.188250
v -0.180000 0.025000 0.187300
v -0.180000 0.024985 0.202634
v -0.150000 0.024981 0.202667
v -0.150000 0.025000 0.202500
v -0.180000 0.025000 0.202500
v -0.180000 0.024925 0.203168
v -0.150000 0.024925 0.203168
v -0.150000 0.024981 0.202667
v -0.180000 0.024985 0.202634
v -0.180000 0.024703 0.203802
v -0.150000 0.024703 0.203802
v -0.150000 0.024869 0.203326
v -0.180000 0.024880 0.203294
v -0.180000 0.024880 0.203294
v -0.150000 0.024869 0.203326
v -0.150000 0.024925 0.203168
v -0.180000 0.024925 0.203168
v -0.180000 0.024345 0.204370
v -0.150000 0.024345 0.204370
v -0.150000 0.024614 0.203944
v -0.180000 0.024631 0.203915
v -0.180000 0.024631 0.203915
v -0.150000 0.024614 0.203944
v -0.150000 0.024703 0.203802
v -0.180000 0.024703 0.203802
v -0.180000 0.023870 0.204845
v -0.150000 0.023870 0.204845
v -0.150000 0.024227 0.204489
v -0.180000 0.024250 0.204465
v -0.180000 0.024250 0.204465
v -0.150000 0.024227 0.204489
v -0.150000 0.024345 0.204370
v -0.180000 0.024345 0.204370
v -0.180000 0.022794 0.205380
v -0.150000 0.022826 0.205369
v -0.150000 0.023302 0.205203
v -0.180000 0.023302 0.205203
v -0.180000 0.023302 0.205203
v -0.150000 0.023302 0.205203
v -0.150000 0.023728 0.204935
v -0.180000 0.023757 0.204917
v -0.180000 0.023757 0.204917
v -0.150000 0.023728 0.204935
v -0.150000 0.023870 0.204845
v -0.180000 0.023870 0.204845
v -0.180000 0.022134 0.205485
v -0.150000 0.022167 0.205481
v -0.150000 0.022668 0.205425
v -0.180000 0.022668 0.205425
v -0.180000 0.022668 0.205425
v -0.150000 0.022668 0.205425
v -0.150000 0.022826 0.205369
v -0.180000 0.022794 0.205380
v -0.180000 0.022000 0.205500
v -0.150000 0.022000 0.205500
v -0.150000 0.022167 0.205481
v -0.180000 0.022134 0.205485
v -0.180000 0.006800 0.205500
v -0.150000 0.007750 0.205500
v -0.150000 0.022000 0.205500
v -0.180000 0.022000 0.205500
v -0.180000 0.003000 0.205500
v -0.150000 0.003000 0.205500
v -0.150000 0.007750 0.205500
v -0.180000 0.006800 0.205500
v -0.180000 0.002866 0.205485
v -0.150000 0.002833 0.205481
v -0.150000 0.003000 0.205500
v -0.180000 0.003000 0.205500
v -0.180000 0.002332 0.205425
v -0.150000 0.002332 0.205425
v -0.150000 0.002833 0.205481
v -0.180000 0.002866 0.205485
v -0.180000 0.001698 0.205203
v -0.150000 0.001698 0.205203
v -0.150000 0.002174 0.205369
v -0.180000 0.002206 0.205380
v -0.180000 0.002206 0.205380
v -0.150000 0.002174 0.205369
v -0.150000 0.002332 0.205425
v -0.180000 0.002332 0.205425
v -0.180000 0.001130 0.204845
v -0.150000 0.001130 0.204845
v -0.150000 0.001556 0.205114
v -0.180000 0.001585 0.205131
v -0.180000 0.001585 0.205131
v -0.150000 0.001556 0.205114
v -0.150000 0.001698 0.205203
v -0.180000 0.001698 0.205203
v -0.180000 0.000655 0.204370
v -0.150000 0.000655 0.204370
v -0.150000 0.001011 0.204727
v -0.180000 0.001035 0.204750
v -0.180000 0.001035 0.204750
v -0.150000 0.001011 0.204727
v -0.150000 0.001130 0.204845
v -0.180000 0.001130 0.204845
v -0.180000 0.000120 0.203294
v -0.150000 0.000131 0.203326
v -0.150000 0.000297 0.203802
v -0.180000 0.000297 0.203802
v -0.180000 0.000297 0.203802
v -0.150000 0.000297 0.203802
v -0.150000 0.000565 0.204228
v -0.180000 0.000583 0.204257
v -0.180000 0.000583 0.204257
v -0.150000 0.000565 0.204228
v -0.150000 0.000655 0.204370
v -0.180000 0.000655 0.204370
v -0.180000 0.000015 0.202634
v -0.150000 0.000019 0.202667
v -0.150000 0.000075 0.203168
v -0.180000 0.000075 0.203168
v -0.180000 0.000075 0.203168
v -0.150000 0.000075 0.203168
v -0.150000 0.000131 0.203326
v -0.180000 0.000120 0.203294
v -0.180000 0.000000 0.202500
v -0.150000 0.000000 0.202500
v -0.150000 0.000019 0.202667
v -0.180000 0.000015 0.202634
v -0.180000 0.000000 0.198700
v -0.150000 0.000000 0.197750
v -0.150000 0.000000 0.202500
v -0.180000 0.000000 0.202500
v -0.180000 0.000000 0.183500
v -0.150000 0.000000 0.183500
v -0.150000 0.000000 0.197750
v -0.180000 0.000000 0.198700
v -0.180000 0.000015 0.183366
v -0.150000 0.000019 0.183333
v -0.150000 0.000000 0.183500
v -0.180000 0.000000 0.183500
v -0.180000 0.000075 0.182832
v -0.150000 0.000075 0.182832
v -0.150000 0.000019 0.183333
v -0.180000 0.000015 0.183366
v -0.180000 0.000297 0.182198
v -0.150000 0.000297 0.182198
v -0.150000 0.000131 0.182674
v -0.180000 0.000120 0.182706
v -0.180000 0.000120 0.182706
v -0.150000 0.000131 0.182674
v -0.150000 0.000075 0.182832
v -0.180000 0.000075 0.182832
v -0.180000 0.000655 0.181630
v -0.150000 0.000655 0.181630
v -0.150000 0.000386 0.182056
v -0.180000 0.000369 0.182085
v -0.180000 0.000369 0.182085
v -0.150000 0.000386 0.182056
v -0.150000 0.000297 0.182198
v -0.180000 0.000297 0.182198
v -0.180000 0.001130 0.181155
v -0.150000 0.001130 0.181155
v -0.150000 0.000773 0.181511
v -0.180000 0.000750 0.181535
v -0.180000 0.000750 0.181535
v -0.150000 0.000773 0.181511
v -0.150000 0.000655 0.181630
v -0.180000 0.000655 0.181630
v -0.180000 0.002206 0.180620
v -0.150000 0.002174 0.180631
v -0.150000 0.001698 0.180797
v -0.180000 0.001698 0.180797
v -0.180000 0.001698 0.180797
v -0.150000 0.001698 0.180797
v -0.150000 0.001272 0.181065
v -0.180000 0.001243 0.181083
v -0.180000 0.001243 0.181083
v -0.150000 0.001272 0.181065
v -0.150000 0.001130 0.181155
v -0.180000 0.001130 0.181155
v -0.180000 0.002866 0.180515
v -0.150000 0.002833 0.180519
v -0.150000 0.002332 0.180575
v -0.180000 0.002332 0.180575
v -0.180000 0.002332 0.180575
v -0.150000 0.002332 0.180575
v -0.150000 0.002174 0.180631
v -0.180000 0.002206 0.180620
v -0.180000 0.003000 0.180500
v -0.150000 0.003000 0.180500
v -0.150000 0.002833 0.180519
v -0.180000 0.002866 0.180515
v -0.180000 0.006800 0.180500
v -0.150000 0.007750 0.180500
v -0.150000 0.003000 0.180500
v -0.180000 0.003000 0.180500
v -0.180000 0.022000 0.180500
v -0.150000 0.022000 0.180500
v -0.150000 0.007750 0.180500
v -0.180000 0.006800 0.180500
v -0.180000 0.022134 0.180515
v -0.150000 0.022167 0.180519
v -0.150000 0.022000 0.180500
v -0.180000 0.022000 0.180500
v -0.180000 0.022668 0.180575
v -0.150000 0.022668 0.180575
v -0.150000 0.022167 0.180519
v -0.180000 0.022134 0.180515
v -0.180000 0.023302 0.180797
v -0.150000 0.023302 0.180797
v -0.150000 0.022826 0.180631
v -0.180000 0.022794 0.180620
v -0.180000 0.022794 0.180620
v -0.150000 0.022826 0.180631
v -0.150000 0.022668 0.180575
v -0.180000 0.022668 0.180575
v -0.180000 0.023870 0.181155
v -0.150000 0.023870 0.181155
v -0.150000 0.023444 0.180886
v -0.180000 0.023415 0.180869
v -0.180000 0.023415 0.180869
v -0.150000 0.023444 0.180886
v -0.150000 0.023302 0.180797
v -0.180000 0.023302 0.180797
v -0.180000 0.024345 0.181630
v -0.150000 0.024345 0.181630
v -0.150000 0.023989 0.181273
v -0.180000 0.023965 0.181250
v -0.180000 0.023965 0.181250
v -0.150000 0.023989 0.181273
v -0.150000 0.023870 0.181155
v -0.180000 0.023870 0.181155
v -0.180000 0.024880 0.182706
v -0.150000 0.024869 0.182674
v -0.150000 0.024703 0.182198
v -0.180000 0.024703 0.182198
v -0.180000 0.024703 0.182198
v -0.150000 0.024703 0.182198
v -0.150000 0.024435 0.181772
v -0.180000 0.024417 0.181743
v -0.180000 0.024417 0.181743
v -0.150000 0.024435 0.181772
v -0.150000 0.024345 0.181630
v -0.180000 0.024345 0.181630
v -0.180000 0.024985 0.183366
v -0.150000 0.024981 0.183333
v -0.150000 0.024925 0.182832
v -0.180000 0.024925 0.182832
v -0.180000 0.024925 0.182832
v -0.150000 0.024925 0.182832
v -0.150000 0.024869 0.182674
v -0.180000 0.024880 0.182706
v -0.180000 0.025000 0.183500
v -0.150000 0.025000 0.183500
v -0.150000 0.024981 0.183333
v -0.180000 0.024985 0.183366
v -0.150000 0.002013 0.184389
v -0.180000 0.002010 0.184411
v -0.180000 0.002000 0.184500
v -0.150000 0.002000 0.184500
v -0.180000 0.002010 0.184411
v -0.150000 0.002013 0.184389
v -0.150000 0.002050 0.184055
v -0.180000 0.002050 0.184055
v -0.180000 0.002080 0.183970
v -0.150000 0.002087 0.183949
v -0.150000 0.002198 0.183632
v -0.180000 0.002198 0.183632
v -0.150000 0.002087 0.183949
v -0.180000 0.002080 0.183970
v -0.180000 0.002050 0.184055
v -0.150000 0.002050 0.184055
v -0.180000 0.002246 0.183556
v -0.150000 0.002258 0.183537
v -0.150000 0.002436 0.183253
v -0.180000 0.002436 0.183253
v -0.150000 0.002258 0.183537
v -0.180000 0.002246 0.183556
v -0.180000 0.002198 0.183632
v -0.150000 0.002198 0.183632
v -0.180000 0.002500 0.183190
v -0.150000 0.002516 0.183174
v -0.150000 0.002753 0.182936
v -0.180000 0.002753 0.182936
v -0.150000 0.002516 0.183174
v -0.180000 0.002500 0.183190
v -0.180000 0.002436 0.183253
v -0.150000 0.002436 0.183253
v -0.180000 0.003132 0.182698
v -0.150000 0.003132 0.182698
v -0.150000 0.003449 0.182587
v -0.180000 0.003470 0.182580
v -0.180000 0.002829 0.182889
v -0.150000 0.002848 0.182877
v -0.150000 0.003132 0.182698
v -0.180000 0.003132 0.182698
v -0.150000 0.002848 0.182877
v -0.180000 0.002829 0.182889
v -0.180000 0.002753 0.182936
v -0.150000 0.002753 0.182936
v -0.180000 0.003555 0.182550
v -0.150000 0.003555 0.182550
v -0.150000 0.003889 0.182513
v -0.180000 0.003911 0.182510
v -0.150000 0.003555 0.182550
v -0.180000 0.003555 0.182550
v -0.180000 0.003470 0.182580
v -0.150000 0.003449 0.182587
v -0.150000 0.004000 0.182500
v -0.180000 0.004000 0.182500
v -0.180000 0.003911 0.182510
v -0.150000 0.003889 0.182513
v -0.150000 0.002000 0.197250
v -0.180000 0.002000 0.198100
v -0.180000 0.002000 0.201500
v -0.150000 0.002000 0.201500
v -0.180000 0.002000 0.198100
v -0.150000 0.002000 0.197250
v -0.150000 0.002000 0.184500
v -0.180000 0.002000 0.184500
v -0.150000 0.003889 0.203487
v -0.180000 0.003911 0.203490
v -0.180000 0.004000 0.203500
v -0.150000 0.004000 0.203500
v -0.180000 0.003911 0.203490
v -0.150000 0.003889 0.203487
v -0.150000 0.003555 0.203450
v -0.180000 0.003555 0.203450
v -0.180000 0.003470 0.203420
v -0.150000 0.003449 0.203413
v -0.150000 0.003132 0.203302
v -0.180000 0.003132 0.203302
v -0.150000 0.003449 0.203413
v -0.180000 0.003470 0.203420
v -0.180000 0.003555 0.203450
v -0.150000 0.003555 0.203450
v -0.180000 0.003056 0.203254
v -0.150000 0.003037 0.203242
v -0.150000 0.002753 0.203064
v -0.180000 0.002753 0.203064
v -0.150000 0.003037 0.203242
v -0.180000 0.003056 0.203254
v -0.180000 0.003132 0.203302
v -0.150000 0.003132 0.203302
v -0.180000 0.002436 0.202747
v -0.150000 0.002436 0.202747
v -0.150000 0.002258 0.202463
v -0.180000 0.002246 0.202444
v -0.180000 0.002690 0.203000
v -0.150000 0.002674 0.202984
v -0.150000 0.002436 0.202747
v -0.180000 0.002436 0.202747
v -0.150000 0.002674 0.202984
v -0.180000 0.002690 0.203000
v -0.180000 0.002753 0.203064
v -0.150000 0.002753 0.203064
v -0.180000 0.002198 0.202368
v -0.150000 0.002198 0.202368
v -0.150000 0.002087 0.202051
v -0.180000 0.002080 0.202030
v -0.150000 0.002198 0.202368
v -0.180000 0.002198 0.202368
v -0.180000 0.002246 0.202444
v -0.150000 0.002258 0.202463
v -0.150000 0.002050 0.201945
v -0.180000 0.002050 0.201945
v -0.180000 0.002080 0.202030
v -0.150000 0.002087 0.202051
v -0.180000 0.002040 0.201856
v -0.150000 0.002038 0.201834
v -0.150000 0.002000 0.201500
v -0.180000 0.002000 0.201500
v -0.150000 0.002038 0.201834
v -0.180000 0.002040 0.201856
v -0.180000 0.002050 0.201945
v -0.150000 0.002050 0.201945
v -0.150000 0.016750 0.203500
v -0.180000 0.017600 0.203500
v -0.180000 0.021000 0.203500
v -0.150000 0.021000 0.203500
v -0.180000 0.017600 0.203500
v -0.150000 0.016750 0.203500
v -0.150000 0.004000 0.203500
v -0.180000 0.004000 0.203500
v -0.180000 0.023000 0.201500
v -0.150000 0.023000 0.201500
v -0.150000 0.022962 0.201834
v -0.180000 0.022960 0.201856
v -0.180000 0.022950 0.201945
v -0.150000 0.022950 0.201945
v -0.150000 0.022839 0.202262
v -0.180000 0.022832 0.202283
v -0.150000 0.022950 0.201945
v -0.180000 0.022950 0.201945
v -0.180000 0.022960 0.201856
v -0.150000 0.022962 0.201834
v -0.150000 0.022802 0.202368
v -0.180000 0.022802 0.202368
v -0.180000 0.022832 0.202283
v -0.150000 0.022839 0.202262
v -0.180000 0.022754 0.202444
v -0.150000 0.022742 0.202463
v -0.150000 0.022564 0.202747
v -0.180000 0.022564 0.202747
v -0.150000 0.022742 0.202463
v -0.180000 0.022754 0.202444
v -0.180000 0.022802 0.202368
v -0.150000 0.022802 0.202368
v -0.180000 0.022500 0.202810
v -0.150000 0.022484 0.202826
v -0.150000 0.022247 0.203064
v -0.180000 0.022247 0.203064
v -0.150000 0.022484 0.202826
v -0.180000 0.022500 0.202810
v -0.180000 0.022564 0.202747
v -0.150000 0.022564 0.202747
v -0.180000 0.022171 0.203111
v -0.150000 0.022152 0.203123
v -0.150000 0.021868 0.203302
v -0.180000 0.021868 0.203302
v -0.150000 0.022152 0.203123
v -0.180000 0.022171 0.203111
v -0.180000 0.022247 0.203064
v -0.150000 0.022247 0.203064
v -0.180000 0.021445 0.203450
v -0.150000 0.021445 0.203450
v -0.150000 0.021111 0.203487
v -0.180000 0.021089 0.203490
v -0.180000 0.021783 0.203332
v -0.150000 0.021762 0.203339
v -0.150000 0.021445 0.203450
v -0.180000 0.021445 0.203450
v -0.150000 0.021762 0.203339
v -0.180000 0.021783 0.203332
v -0.180000 0.021868 0.203302
v -0.150000 0.021868 0.203302
v -0.150000 0.021000 0.203500
v -0.180000 0.021000 0.203500
v -0.180000 0.021089 0.203490
v -0.150000 0.021111 0.203487
v -0.150000 0.023000 0.188750
v -0.180000 0.023000 0.187900
v -0.180000 0.023000 0.184500
v -0.150000 0.023000 0.184500
v -0.180000 0.023000 0.187900
v -0.150000 0.023000 0.188750
v -0.150000 0.023000 0.201500
v -0.180000 0.023000 0.201500
v -0.150000 0.021111 0.182513
v -0.180000 0.021089 0.182510
v -0.180000 0.021000 0.182500
v -0.150000 0.021000 0.182500
v -0.180000 0.021089 0.182510
v -0.150000 0.021111 0.182513
v -0.150000 0.021445 0.182550
v -0.180000 0.021445 0.182550
v -0.180000 0.021530 0.182580
v -0.150000 0.021551 0.182587
v -0.150000 0.021868 0.182698
v -0.180000 0.021868 0.182698
v -0.150000 0.021551 0.182587
v -0.180000 0.021530 0.182580
v -0.180000 0.021445 0.182550
v -0.150000 0.021445 0.182550
v -0.180000 0.022247 0.182936
v -0.150000 0.022247 0.182936
v -0.150000 0.022484 0.183174
v -0.180000 0.022500 0.183190
v -0.180000 0.021944 0.182746
v -0.150000 0.021963 0.182758
v -0.150000 0.022247 0.182936
v -0.180000 0.022247 0.182936
v -0.150000 0.021963 0.182758
v -0.180000 0.021944 0.182746
v -0.180000 0.021868 0.182698
v -0.150000 0.021868 0.182698
v -0.150000 0.022564 0.183253
v -0.180000 0.022564 0.183253
v -0.180000 0.022500 0.183190
v -0.150000 0.022484 0.183174
v -0.180000 0.022611 0.183329
v -0.150000 0.022623 0.183348
v -0.150000 0.022802 0.183632
v -0.180000 0.022802 0.183632
v -0.150000 0.022623 0.183348
v -0.180000 0.022611 0.183329
v -0.180000 0.022564 0.183253
v -0.150000 0.022564 0.183253
v -0.180000 0.022832 0.183717
v -0.150000 0.022839 0.183738
v -0.150000 0.022950 0.184055
v -0.180000 0.022950 0.184055
v -0.150000 0.022839 0.183738
v -0.180000 0.022832 0.183717
v -0.180000 0.022802 0.183632
v -0.150000 0.022802 0.183632
v -0.180000 0.022960 0.184144
v -0.150000 0.022962 0.184166
v -0.150000 0.023000 0.184500
v -0.180000 0.023000 0.184500
v -0.150000 0.022962 0.184166
v -0.180000 0.022960 0.184144
v -0.180000 0.022950 0.184055
v -0.150000 0.022950 0.184055
v -0.150000 0.008250 0.182500
v -0.180000 0.007400 0.182500
v -0.180000 0.004000 0.182500
v -0.150000 0.004000 0.182500
v -0.180000 0.007400 0.182500
v -0.150000 0.008250 0.182500
v -0.150000 0.021000 0.182500
v -0.180000 0.021000 0.182500
f 1 2 3
f 1 3 4
f 5 6 7
f 5 7 8
f 9 10 11
f 9 11 12
f 13 14 15
f 13 15 16
f 17 18 19
f 17 19 20
f 21 22 23
f 21 23 24
f 25 26 27
f 25 27 28
f 29 30 31
f 29 31 32
f 33 34 35
f 33 35 36
f 37 38 39
f 37 39 40
f 41 42 43
f 41 43 44
f 45 46 47
f 45 47 48
f 49 50 51
f 49 51 52
f 53 54 55
f 53 55 56
f 57 58 59
f 57 59 60
f 61 62 63
f 61 63 64
f 65 66 67
f 65 67 68
f 69 70 71
f 69 71 72
f 73 74 75
f 73 75 76
f 77 78 79
f 77 79 80
f 81 82 83
f 81 83 84
f 85 86 87
f 85 87 88
f 89 90 91
f 89 91 92
f 93 94 95
f 93 95 96
f 97 98 99
f 97 99 100
f 101 102 103
f 101 103 104
f 105 106 107
f 105 107 108
f 109 110 111
f 109 111 112
f 113 114 115
f 113 115 116
f 117 118 119
f 117 119 120
f 121 122 123
f 121 123 124
f 125 126 127
f 125 127 128
f 129 130 131
f 129 131 132
f 133 134 135
f 133 135 136
f 137 138 139
f 137 139 140
f 141 142 143
f 141 143 144
f 145 146 147
f 145 147 148
f 149 150 151
f 149 151 152
f 153 154 155
f 153 155 156
f 157 158 159
f 157 159 160
f 161 162 163
f 161 163 164
f 165 166 167
f 165 167 168
f 169 170 171
f 169 171 172
f 173 174 175
f 173 175 176
f 177 178 179
f 177 179 180
f 181 182 183
f 181 183 184
f 185 186 187
f 185 187 188
f 189 190 191
f 189 191 192
f 193 194 195
f 193 195 196
f 197 198 199
f 197 199 200
f 201 202 203
f 201 203 204
f 205 206 207
f 205 207 208
f 209 210 211
f 209 211 212
f 213 214 215
f 213 215 216
f 217 218 219
f 217 219 220
f 221 222 223
f 221 223 224
f 225 226 227
f 225 227 228
f 229 230 231
f 229 231 232
f 233 234 235
f 233 235 236
f 237 238 239
f 237 239 240
f 241 242 243
f 241 243 244
f 245 246 247
f 245 247 248
f 249 250 251
f 249 251 252
f 253 254 255
f 253 255 256
f 257 258 259
f 257 259 260
f 261 262 263
f 261 263 264
f 265 266 267
f 265 267 268
f 269 270 271
f 269 271 272
f 273 274 275
f 273 275 276
f 277 278 279
f 277 279 280
f 281 282 283
f 281 283 284
f 285 286 287
f 285 287 288
f 289 290 291
f 289 291 292
f 293 294 295
f 293 295 296
f 297 298 299
f 297 299 300
f 301 302 303
f 301 303 304
f 305 306 307
f 305 307 308
f 309 310 311
f 309 311 312
f 313 314 315
f 313 315 316
f 317 318 319
f 317 319 320
f 321 322 323
f 321 323 324
f 325 326 327
f 325 327 328
f 329 330 331
f 329 331 332
f 333 334 335
f 333 335 336
f 337 338 339
f 337 339 340
f 341 342 343
f 341 343 344
f 345 346 347
f 345 347 348
f 349 350 351
f 349 351 352
f 353 354 355
f 353 355 356
f 357 358 359
f 357 359 360
f 361 362 363
f 361 363 364
f 365 366 367
f 365 367 368
f 369 370 371
f 369 371 372
f 373 374 375
f 373 375 376
f 377 378 379
f 377 379 380
f 381 382 383
f 381 383 384
f 385 386 387
f 385 387 388
f 389 390 391
f 389 391 392
f 393 394 395
f 393 395 396
f 397 398 399
f 397 399 400
f 401 402 403
f 401 403 404
f 405 406 407
f 405 407 408
f 409 410 411
f 409 411 412
f 413 414 415
f 413 415 416
f 417 418 419
f 417 419 420
f 421 422 423
f 421 423 424
f 425 426 427
f 425 427 428
f 429 430 431
f 429 431 432
f 433 434 435
f 433 435 436
f 437 438 439
f 437 439 440
f 441 442 443
f 441 443 444
f 445 446 447
f 445 447 448
f 449 450 451
f 449 451 452
f 453 454 455
f 453 455 456
f 457 458 459
f 457 459 460
f 461 462 463
f 461 463 464
f 465 466 467
f 465 467 468
f 469 470 471
f 469 471 472
f 473 474 475
f 473 475 476
f 477 478 479
f 477 479 480
f 481 482 483
f 481 483 484
f 485 486 487
f 485 487 488
f 489 490 491
f 489 491 492
f 493 494 495
f 493 495 496
f 497 498 499
f 497 499 500
f 501 502 503
f 501 503 504
f 505 506 507
f 505 507 508
f 509 510 511
f 509 511 512
