M48
; DRILL file KiCad 10.0.6-1.fc44 date 2026-09-07T02:40:00
; FORMAT={-:-/ absolute / inch / decimal}
; #@! TF.CreationDate,2026-09-07T02:40:00+09:00
; #@! TF.GenerationSoftware,Kicad,Pcbnew,10.0.6-1.fc44
; #@! TF.FileFunction,Plated,1,2,PTH
FMAT,2
INCH
; #@! TA.AperFunction,Plated,PTH,ViaDrill
T1C0.0157
; #@! TA.AperFunction,Plated,PTH,ComponentDrill
T2C0.0315
; #@! TA.AperFunction,Plated,PTH,ComponentDrill
T3C0.0331
; #@! TA.AperFunction,Plated,PTH,ComponentDrill
T4C0.0394
; #@! TA.AperFunction,Plated,PTH,ComponentDrill
T5C0.0453
; #@! TA.AperFunction,Plated,PTH,ComponentDrill
T6C0.0500
; #@! TA.AperFunction,Plated,PTH,ComponentDrill
T7C0.0591
; #@! TA.AperFunction,Plated,PTH,ComponentDrill
T8C0.0984
%
G90
G05
T1
X8.1296Y-4.4311
X8.7746Y-4.1924
X9.205Y-4.1141
X9.4921Y-4.3804
T2
X8.2134Y-4.4606
X8.6134Y-4.4606
X9.6728Y-4.4606
X9.9728Y-4.4606
T3
X9.4992Y-3.4961
X9.4992Y-3.5961
X9.4992Y-3.6961
X9.4992Y-3.7961
X9.4992Y-3.8961
X9.4992Y-3.9961
X9.4992Y-4.0961
X9.4992Y-4.1961
X10.0992Y-3.4961
X10.0992Y-3.5961
X10.0992Y-3.6961
X10.0992Y-3.7961
X10.0992Y-3.8961
X10.0992Y-3.9961
X10.0992Y-4.0961
X10.0992Y-4.1961
T4
X9.3058Y-3.487
X9.3058Y-3.587
X9.3058Y-3.687
X9.3058Y-3.787
X9.3058Y-3.887
X9.3058Y-3.987
X9.3058Y-4.087
X9.3058Y-4.187
X9.3058Y-4.287
X9.3058Y-4.387
T5
X8.0315Y-3.4646
X8.0787Y-4.622
X8.0787Y-4.811
X8.0787Y-5.0
X8.0787Y-5.189
X8.2205Y-3.4646
X8.3071Y-4.8031
X8.3071Y-4.9921
X8.3071Y-5.1811
X8.4094Y-3.4646
X8.5984Y-3.4646
X10.0866Y-4.9646
X10.0866Y-5.1535
T6
X8.5866Y-3.6181
X8.5866Y-3.7181
X8.5866Y-3.8181
X8.5866Y-3.9181
X8.5866Y-4.0181
X8.5866Y-4.1181
X8.5866Y-4.2181
X8.5866Y-4.3181
T7
X8.561Y-4.7638
X8.561Y-5.0472
X9.8031Y-4.7638
X9.8031Y-5.0472
T8
X8.8058Y-3.487
X8.8058Y-4.387
M30
