%TF.GenerationSoftware,KiCad,Pcbnew,10.0.6-1.fc44*%
%TF.CreationDate,2026-09-07T03:03:42+09:00*%
%TF.ProjectId,compact-sensor-module,636f6d70-6163-4742-9d73-656e736f722d,rev?*%
%TF.SameCoordinates,Original*%
%TF.FileFunction,Copper,L1,Top*%
%TF.FilePolarity,Positive*%
%FSLAX46Y46*%
G04 Gerber Fmt 4.6, Leading zero omitted, Abs format (unit mm)*
G04 Created by KiCad (PCBNEW 10.0.6-1.fc44) date 2026-09-07 03:03:42*
%MOMM*%
%LPD*%
G01*
G04 APERTURE LIST*
G04 Aperture macros list*
%AMRoundRect*
0 Rectangle with rounded corners*
0 $1 Rounding radius*
0 $2 $3 $4 $5 $6 $7 $8 $9 X,Y pos of 4 corners*
0 Add a 4 corners polygon primitive as box body*
4,1,4,$2,$3,$4,$5,$6,$7,$8,$9,$2,$3,0*
0 Add four circle primitives for the rounded corners*
1,1,$1+$1,$2,$3*
1,1,$1+$1,$4,$5*
1,1,$1+$1,$6,$7*
1,1,$1+$1,$8,$9*
0 Add four rect primitives between the rounded corners*
20,1,$1+$1,$2,$3,$4,$5,0*
20,1,$1+$1,$4,$5,$6,$7,0*
20,1,$1+$1,$6,$7,$8,$9,0*
20,1,$1+$1,$8,$9,$2,$3,0*%
%AMFreePoly0*
4,1,13,2.503536,1.503536,2.505000,1.500000,2.505000,-1.500000,2.503536,-1.503536,2.500000,-1.505000,-2.500000,-1.505000,-2.503536,-1.503536,-2.505000,-1.500000,-2.505000,1.500000,-2.503536,1.503536,-2.500000,1.505000,2.500000,1.505000,2.503536,1.503536,2.503536,1.503536,$1*%
G04 Aperture macros list end*
%TA.AperFunction,ComponentPad*%
%ADD10RoundRect,0.250001X0.899999X0.899999X-0.899999X0.899999X-0.899999X-0.899999X0.899999X-0.899999X0*%
%TD*%
%TA.AperFunction,ComponentPad*%
%ADD11C,2.300000*%
%TD*%
%TA.AperFunction,ComponentPad*%
%ADD12C,1.600000*%
%TD*%
%TA.AperFunction,ComponentPad*%
%ADD13RoundRect,0.250001X-0.899999X0.899999X-0.899999X-0.899999X0.899999X-0.899999X0.899999X0.899999X0*%
%TD*%
%TA.AperFunction,ComponentPad*%
%ADD14C,1.348000*%
%TD*%
%TA.AperFunction,ComponentPad*%
%ADD15R,1.778000X1.778000*%
%TD*%
%TA.AperFunction,ComponentPad*%
%ADD16C,1.778000*%
%TD*%
%TA.AperFunction,ComponentPad*%
%ADD17C,3.200000*%
%TD*%
%TA.AperFunction,SMDPad,CuDef*%
%ADD18C,2.000000*%
%TD*%
%TA.AperFunction,ComponentPad*%
%ADD19C,1.905000*%
%TD*%
%TA.AperFunction,ComponentPad*%
%ADD20FreePoly0,0.000000*%
%TD*%
%TA.AperFunction,ViaPad*%
%ADD21C,0.800000*%
%TD*%
%TA.AperFunction,Conductor*%
%ADD22C,0.300000*%
%TD*%
%TA.AperFunction,Conductor*%
%ADD23C,1.000000*%
%TD*%
%TA.AperFunction,Conductor*%
%ADD24C,0.500000*%
%TD*%
G04 APERTURE END LIST*
D10*
%TO.P,MOTOR PIN,1,Pin_1_1*%
%TO.N,/BLUE*%
X218400000Y-88000000D03*
D11*
%TO.P,MOTOR PIN,2,Pin_2_2*%
%TO.N,/GREEN*%
X213600000Y-88000000D03*
%TO.P,MOTOR PIN,3,Pin_3_3*%
%TO.N,/Yellow*%
X208800000Y-88000000D03*
%TO.P,MOTOR PIN,4,Pin_4_4*%
%TO.N,GND*%
X204000000Y-88000000D03*
%TD*%
D12*
%TO.P,20k,1*%
%TO.N,/BK*%
X218780000Y-113300000D03*
%TO.P,20k,2*%
%TO.N,Net-(U4-A0)*%
X208620000Y-113300000D03*
%TD*%
D13*
%TO.P,L298N PIN,1,Pin_1_1*%
%TO.N,/ENA*%
X205200000Y-117400000D03*
D11*
%TO.P,L298N PIN,2,Pin_2_2*%
%TO.N,/IN1*%
X205200000Y-122200000D03*
%TO.P,L298N PIN,3,Pin_3_3*%
%TO.N,/IN2*%
X205200000Y-127000000D03*
%TO.P,L298N PIN,4,Pin_4_4*%
%TO.N,GND*%
X205200000Y-131800000D03*
%TD*%
D14*
%TO.P,ESP32,0,GPIO0_0*%
%TO.N,/IN1*%
X256520000Y-106580000D03*
%TO.P,ESP32,1,GPIO1_1*%
%TO.N,/IN2*%
X256520000Y-104040000D03*
%TO.P,ESP32,2,GPIO2_2*%
%TO.N,unconnected-(U1-GPIO2-Pad2)*%
X256520000Y-101500000D03*
%TO.P,ESP32,3,GPIO3_3*%
%TO.N,/GREEN*%
X256520000Y-98960000D03*
%TO.P,ESP32,3.3,3V3_3.3*%
%TO.N,/BLUE*%
X256520000Y-93880000D03*
%TO.P,ESP32,4,GPIO4_4*%
%TO.N,/ENA*%
X256520000Y-96420000D03*
%TO.P,ESP32,5,GPIO5_5*%
%TO.N,unconnected-(U1-GPIO5-Pad5)*%
X241280000Y-88800000D03*
%TO.P,ESP32,5V,5V_5V*%
%TO.N,unconnected-(U1-Pad5V)*%
X256520000Y-88800000D03*
%TO.P,ESP32,6,GPIO6_6*%
%TO.N,unconnected-(U1-GPIO6-Pad6)*%
X241280000Y-91340000D03*
%TO.P,ESP32,7,GPIO7_7*%
%TO.N,unconnected-(U1-GPIO7-Pad7)*%
X241280000Y-93880000D03*
%TO.P,ESP32,8,GPIO8_8*%
%TO.N,/SDA*%
X241280000Y-96420000D03*
%TO.P,ESP32,9,GPIO9_9*%
%TO.N,/SCL*%
X241280000Y-98960000D03*
%TO.P,ESP32,10,GPIO10_10*%
%TO.N,unconnected-(U1-GPIO10-Pad10)*%
X241280000Y-101500000D03*
%TO.P,ESP32,20,GPIO20_20*%
%TO.N,unconnected-(U1-GPIO20-Pad20)*%
X241280000Y-104040000D03*
%TO.P,ESP32,21,GPIO21_21*%
%TO.N,unconnected-(U1-GPIO21-Pad21)*%
X241280000Y-106580000D03*
%TO.P,ESP32,G,GND_G*%
%TO.N,GND*%
X256520000Y-91340000D03*
%TD*%
D13*
%TO.P,BATTERY,1,Pin_1_1*%
%TO.N,/BAT+*%
X256200000Y-126100000D03*
D11*
%TO.P,BATTERY,2,Pin_2_2*%
%TO.N,/BAT-*%
X256200000Y-130900000D03*
%TD*%
D15*
%TO.P,ADS 1115,1,A3_1*%
%TO.N,unconnected-(U4-A3-Pad1)*%
X236367500Y-88570000D03*
D16*
%TO.P,ADS 1115,2,A2_2*%
%TO.N,unconnected-(U4-A2-Pad2)*%
X236367500Y-91110000D03*
%TO.P,ADS 1115,3,A1_3*%
%TO.N,unconnected-(U4-A1-Pad3)*%
X236367500Y-93650000D03*
%TO.P,ADS 1115,4,A0_4*%
%TO.N,Net-(U4-A0)*%
X236367500Y-96190000D03*
%TO.P,ADS 1115,5,ALERT_5*%
%TO.N,unconnected-(U4-ALERT-Pad5)*%
X236367500Y-98730000D03*
%TO.P,ADS 1115,6,ADDR_6*%
%TO.N,Net-(U4-ADDR)*%
X236367500Y-101270000D03*
%TO.P,ADS 1115,7,SDA_7*%
%TO.N,/SDA*%
X236367500Y-103810000D03*
%TO.P,ADS 1115,8,SCL_8*%
%TO.N,/SCL*%
X236367500Y-106350000D03*
%TO.P,ADS 1115,9,GND_9*%
%TO.N,GND*%
X236367500Y-108890000D03*
%TO.P,ADS 1115,10,VDD_10*%
%TO.N,/BLUE*%
X236367500Y-111430000D03*
D17*
%TO.P,ADS 1115,P1*%
%TO.N,N/C*%
X223667500Y-111430000D03*
%TO.P,ADS 1115,P2*%
X223667500Y-88570000D03*
%TD*%
D18*
%TO.P,AD0,1,1_1*%
%TO.N,Net-(TP2-Pad1)*%
X205000000Y-113400000D03*
%TD*%
%TO.P,Addr,1,1_1*%
%TO.N,Net-(U4-ADDR)*%
X241100000Y-112900000D03*
%TD*%
D19*
%TO.P,MPU 6050,AD0,AD0_AD0*%
%TO.N,Net-(TP2-Pad1)*%
X218100000Y-94440000D03*
%TO.P,MPU 6050,GND,GND_GND*%
%TO.N,GND*%
X218100000Y-107140000D03*
%TO.P,MPU 6050,INT,INT_INT*%
%TO.N,unconnected-(U3-PadINT)*%
X218100000Y-91900000D03*
%TO.P,MPU 6050,SCL,SCL_SCL*%
%TO.N,/SCL*%
X218100000Y-104600000D03*
%TO.P,MPU 6050,SDA,SDA_SDA*%
%TO.N,/SDA*%
X218100000Y-102060000D03*
%TO.P,MPU 6050,VCC,VCC_VCC*%
%TO.N,/BLUE*%
X218100000Y-109680000D03*
%TO.P,MPU 6050,XCL,XCL_XCL*%
%TO.N,unconnected-(U3-PadXCL)*%
X218100000Y-96980000D03*
%TO.P,MPU 6050,XDA,XDA_XDA*%
%TO.N,unconnected-(U3-PadXDA)*%
X218100000Y-99520000D03*
%TD*%
D20*
%TO.P,U2,VIN_N,VIN-_VIN_N*%
%TO.N,/BAT-*%
X249000000Y-128200000D03*
%TO.P,U2,VIN_P,VIN+_VIN_P*%
%TO.N,/BAT+*%
X249000000Y-121000000D03*
%TO.P,U2,VOUT_N,VOUT-_VOUT_N*%
%TO.N,GND*%
X217450000Y-128200000D03*
%TO.P,U2,VOUT_P,VOUT+_VOUT_P*%
%TO.N,/BN*%
X217450000Y-121000000D03*
%TD*%
D12*
%TO.P,10k,1*%
%TO.N,Net-(U4-A0)*%
X253310000Y-113300000D03*
%TO.P,10k,2*%
%TO.N,GND*%
X245690000Y-113300000D03*
%TD*%
D13*
%TO.P,GTRIC SENSOR PIN,1,Pin_1_1*%
%TO.N,/BN*%
X211000000Y-122000000D03*
D11*
%TO.P,GTRIC SENSOR PIN,2,Pin_2_2*%
%TO.N,/BK*%
X211000000Y-126800000D03*
%TO.P,GTRIC SENSOR PIN,3,Pin_3_3*%
%TO.N,GND*%
X211000000Y-131600000D03*
%TD*%
D21*
%TO.N,GND*%
X233806100Y-104499400D03*
%TO.N,Net-(U4-A0)*%
X222875700Y-106487300D03*
%TO.N,Net-(U4-ADDR)*%
X241100000Y-111262100D03*
%TO.N,Net-(TP2-Pad1)*%
X206493100Y-112550100D03*
%TD*%
%TO.N,GND*%
D22*
X217450000Y-128200000D02*
X214050000Y-131600000D01*
X214050000Y-131600000D02*
X211000000Y-131600000D01*
X241280000Y-108890000D02*
X236367500Y-108890000D01*
X205200000Y-131800000D02*
X210800000Y-131800000D01*
X245690000Y-113300000D02*
X241280000Y-108890000D01*
X210800000Y-131800000D02*
X211000000Y-131600000D01*
X233806100Y-104499400D02*
X220740600Y-104499400D01*
X220740600Y-104499400D02*
X218100000Y-107140000D01*
%TO.N,/BN*%
D23*
X217450000Y-121000000D02*
X212000000Y-121000000D01*
X212000000Y-121000000D02*
X211000000Y-122000000D01*
%TO.N,/BAT+*%
X251100000Y-121000000D02*
X256200000Y-126100000D01*
D22*
X249000000Y-121000000D02*
X251100000Y-121000000D01*
%TO.N,/BAT-*%
D23*
X249000000Y-128200000D02*
X253500000Y-128200000D01*
X253500000Y-128200000D02*
X256200000Y-130900000D01*
%TO.N,/BLUE*%
D24*
X248940000Y-86300000D02*
X220100000Y-86300000D01*
X256520000Y-93880000D02*
X248940000Y-86300000D01*
X220100000Y-86300000D02*
X218400000Y-88000000D01*
%TO.N,/GREEN*%
D22*
X257564100Y-95976100D02*
X256508000Y-94920000D01*
X219321700Y-90204000D02*
X215804000Y-90204000D01*
X257564100Y-97915900D02*
X257564100Y-95976100D01*
X215804000Y-90204000D02*
X213600000Y-88000000D01*
X256520000Y-98960000D02*
X257564100Y-97915900D01*
X256508000Y-94920000D02*
X224037700Y-94920000D01*
X224037700Y-94920000D02*
X219321700Y-90204000D01*
%TO.N,/ENA*%
X218077900Y-111831400D02*
X218624000Y-111831400D01*
X234117400Y-105251100D02*
X234288500Y-105080000D01*
X225204300Y-105251100D02*
X234117400Y-105251100D01*
X234288500Y-105080000D02*
X247860000Y-105080000D01*
X205200000Y-117400000D02*
X212509300Y-117400000D01*
X247860000Y-105080000D02*
X256520000Y-96420000D01*
X218624000Y-111831400D02*
X225204300Y-105251100D01*
X212509300Y-117400000D02*
X218077900Y-111831400D01*
%TO.N,/IN2*%
X256520000Y-104160800D02*
X236016500Y-124664300D01*
X236016500Y-124664300D02*
X207535700Y-124664300D01*
X207535700Y-124664300D02*
X205200000Y-127000000D01*
X256520000Y-104040000D02*
X256520000Y-104160800D01*
%TO.N,/IN1*%
X257006700Y-103000300D02*
X252950000Y-103000300D01*
X235873000Y-107620000D02*
X224591800Y-118901200D01*
X257585600Y-103579200D02*
X257006700Y-103000300D01*
X256520000Y-106580000D02*
X257585600Y-105514400D01*
X208498800Y-118901200D02*
X205200000Y-122200000D01*
X252950000Y-103000300D02*
X248330300Y-107620000D01*
X224591800Y-118901200D02*
X208498800Y-118901200D01*
X257585600Y-105514400D02*
X257585600Y-103579200D01*
X248330300Y-107620000D02*
X235873000Y-107620000D01*
%TO.N,Net-(U4-A0)*%
X210935800Y-110984200D02*
X218700000Y-110984200D01*
X208620000Y-113300000D02*
X210935800Y-110984200D01*
X222875700Y-106808500D02*
X222875700Y-106487300D01*
X218700000Y-110984200D02*
X222875700Y-106808500D01*
%TO.N,Net-(U4-ADDR)*%
X241100000Y-112900000D02*
X241100000Y-111262100D01*
%TO.N,Net-(TP2-Pad1)*%
X205643200Y-113400000D02*
X205000000Y-113400000D01*
X206493100Y-112550100D02*
X205643200Y-113400000D01*
%TO.N,/SCL*%
X240240000Y-100000000D02*
X222700000Y-100000000D01*
X241280000Y-98960000D02*
X240240000Y-100000000D01*
X222700000Y-100000000D02*
X218100000Y-104600000D01*
%TO.N,/SDA*%
X240240000Y-97460000D02*
X222700000Y-97460000D01*
X222700000Y-97460000D02*
X218100000Y-102060000D01*
X241280000Y-96420000D02*
X240240000Y-97460000D01*
%TD*%
%TA.AperFunction,Conductor*%
%TO.N,GND*%
G36*
X207252384Y-86019454D02*
G01*
X207333166Y-86073430D01*
X207387142Y-86154212D01*
X207406096Y-86249500D01*
X207387142Y-86344788D01*
X207333168Y-86425566D01*
X207179700Y-86579035D01*
X207179695Y-86579040D01*
X207008091Y-86802678D01*
X207008088Y-86802682D01*
X206867139Y-87046811D01*
X206867131Y-87046827D01*
X206759260Y-87307255D01*
X206759258Y-87307261D01*
X206686296Y-87579558D01*
X206686295Y-87579562D01*
X206686295Y-87579564D01*
X206657629Y-87797304D01*
X206649500Y-87859049D01*
X206649500Y-88140951D01*
X206686296Y-88420442D01*
X206748169Y-88651354D01*
X206759257Y-88692735D01*
X206759260Y-88692744D01*
X206867131Y-88953172D01*
X206867139Y-88953188D01*
X207008088Y-89197317D01*
X207008091Y-89197321D01*
X207172211Y-89411206D01*
X207179700Y-89420965D01*
X207379035Y-89620300D01*
X207379039Y-89620303D01*
X207379040Y-89620304D01*
X207490859Y-89706106D01*
X207602683Y-89791912D01*
X207672209Y-89832053D01*
X207846811Y-89932860D01*
X207846827Y-89932868D01*
X207984746Y-89989995D01*
X208107261Y-90040742D01*
X208379558Y-90113704D01*
X208595010Y-90142069D01*
X208659048Y-90150500D01*
X208659049Y-90150500D01*
X208940952Y-90150500D01*
X208975887Y-90145900D01*
X209220442Y-90113704D01*
X209492739Y-90040742D01*
X209688004Y-89959861D01*
X209753172Y-89932868D01*
X209753177Y-89932865D01*
X209753183Y-89932863D01*
X209997317Y-89791912D01*
X210220965Y-89620300D01*
X210420300Y-89420965D01*
X210591912Y-89197317D01*
X210732863Y-88953183D01*
X210840742Y-88692739D01*
X210913704Y-88420442D01*
X210950500Y-88140951D01*
X210950500Y-87859049D01*
X210913704Y-87579558D01*
X210840742Y-87307261D01*
X210769481Y-87135220D01*
X210732868Y-87046827D01*
X210732860Y-87046811D01*
X210591911Y-86802682D01*
X210591908Y-86802678D01*
X210420304Y-86579040D01*
X210420303Y-86579039D01*
X210420300Y-86579035D01*
X210266831Y-86425566D01*
X210212858Y-86344788D01*
X210193904Y-86249500D01*
X210212858Y-86154212D01*
X210266834Y-86073430D01*
X210347616Y-86019454D01*
X210442904Y-86000500D01*
X211957096Y-86000500D01*
X212052384Y-86019454D01*
X212133166Y-86073430D01*
X212187142Y-86154212D01*
X212206096Y-86249500D01*
X212187142Y-86344788D01*
X212133168Y-86425566D01*
X211979700Y-86579035D01*
X211979695Y-86579040D01*
X211808091Y-86802678D01*
X211808088Y-86802682D01*
X211667139Y-87046811D01*
X211667131Y-87046827D01*
X211559260Y-87307255D01*
X211559258Y-87307261D01*
X211486296Y-87579558D01*
X211486295Y-87579562D01*
X211486295Y-87579564D01*
X211457629Y-87797304D01*
X211449500Y-87859049D01*
X211449500Y-88140951D01*
X211486296Y-88420442D01*
X211548169Y-88651354D01*
X211559257Y-88692735D01*
X211559260Y-88692744D01*
X211667131Y-88953172D01*
X211667139Y-88953188D01*
X211808088Y-89197317D01*
X211808091Y-89197321D01*
X211972211Y-89411206D01*
X211979700Y-89420965D01*
X212179035Y-89620300D01*
X212179039Y-89620303D01*
X212179040Y-89620304D01*
X212290859Y-89706106D01*
X212402683Y-89791912D01*
X212472209Y-89832053D01*
X212646811Y-89932860D01*
X212646827Y-89932868D01*
X212784746Y-89989995D01*
X212907261Y-90040742D01*
X213179558Y-90113704D01*
X213395010Y-90142069D01*
X213459048Y-90150500D01*
X213459049Y-90150500D01*
X213740951Y-90150500D01*
X213957206Y-90122029D01*
X214054152Y-90128383D01*
X214141288Y-90171354D01*
X214165776Y-90192829D01*
X214920184Y-90947236D01*
X214920213Y-90947267D01*
X215054492Y-91081547D01*
X215054503Y-91081556D01*
X215176922Y-91170499D01*
X215176923Y-91170499D01*
X215187091Y-91177886D01*
X215201006Y-91187996D01*
X215201009Y-91187997D01*
X215201014Y-91188001D01*
X215317996Y-91247606D01*
X215362361Y-91270211D01*
X215534591Y-91326172D01*
X215713454Y-91354501D01*
X215713458Y-91354501D01*
X215904821Y-91354501D01*
X215904845Y-91354500D01*
X215918034Y-91354500D01*
X216013322Y-91373454D01*
X216094104Y-91427430D01*
X216148080Y-91508212D01*
X216167034Y-91603500D01*
X216164904Y-91636001D01*
X216147000Y-91771994D01*
X216147000Y-92028006D01*
X216180417Y-92281829D01*
X216184470Y-92296954D01*
X216238838Y-92499861D01*
X216246678Y-92529118D01*
X216283551Y-92618139D01*
X216344646Y-92765635D01*
X216344648Y-92765639D01*
X216344650Y-92765643D01*
X216472656Y-92987357D01*
X216496491Y-93018419D01*
X216539461Y-93105555D01*
X216545815Y-93202502D01*
X216514585Y-93294501D01*
X216496492Y-93321578D01*
X216483630Y-93338340D01*
X216472655Y-93352644D01*
X216472653Y-93352647D01*
X216344648Y-93574360D01*
X216344646Y-93574364D01*
X216246678Y-93810882D01*
X216246676Y-93810888D01*
X216180416Y-94058174D01*
X216147000Y-94311994D01*
X216147000Y-94568005D01*
X216180416Y-94821825D01*
X216246676Y-95069111D01*
X216246678Y-95069117D01*
X216344646Y-95305635D01*
X216344648Y-95305639D01*
X216344650Y-95305643D01*
X216472656Y-95527357D01*
X216496491Y-95558419D01*
X216539461Y-95645555D01*
X216545815Y-95742502D01*
X216514585Y-95834501D01*
X216496492Y-95861578D01*
X216486411Y-95874717D01*
X216472655Y-95892644D01*
X216472653Y-95892647D01*
X216344648Y-96114360D01*
X216344646Y-96114364D01*
X216246678Y-96350882D01*
X216246676Y-96350888D01*
X216180416Y-96598174D01*
X216147000Y-96851994D01*
X216147000Y-97108005D01*
X216180416Y-97361825D01*
X216238838Y-97579861D01*
X216246678Y-97609118D01*
X216283551Y-97698139D01*
X216344646Y-97845635D01*
X216344648Y-97845639D01*
X216344650Y-97845643D01*
X216472656Y-98067357D01*
X216496491Y-98098419D01*
X216539461Y-98185555D01*
X216545815Y-98282502D01*
X216514585Y-98374501D01*
X216496492Y-98401578D01*
X216496492Y-98401580D01*
X216496491Y-98401581D01*
X216472655Y-98432644D01*
X216472653Y-98432647D01*
X216344648Y-98654360D01*
X216344646Y-98654364D01*
X216246678Y-98890882D01*
X216246676Y-98890888D01*
X216180416Y-99138174D01*
X216147000Y-99391994D01*
X216147000Y-99648005D01*
X216180416Y-99901825D01*
X216238838Y-100119861D01*
X216246678Y-100149118D01*
X216283551Y-100238139D01*
X216344646Y-100385635D01*
X216344648Y-100385639D01*
X216344650Y-100385643D01*
X216472656Y-100607357D01*
X216496491Y-100638419D01*
X216539461Y-100725555D01*
X216545815Y-100822502D01*
X216514585Y-100914501D01*
X216496491Y-100941581D01*
X216472655Y-100972644D01*
X216472653Y-100972647D01*
X216344648Y-101194360D01*
X216344646Y-101194364D01*
X216246678Y-101430882D01*
X216246676Y-101430888D01*
X216180416Y-101678174D01*
X216147000Y-101931994D01*
X216147000Y-102188006D01*
X216147805Y-102194117D01*
X216180416Y-102441825D01*
X216238838Y-102659861D01*
X216246678Y-102689118D01*
X216283551Y-102778139D01*
X216344646Y-102925635D01*
X216344648Y-102925639D01*
X216344650Y-102925643D01*
X216472656Y-103147357D01*
X216496491Y-103178419D01*
X216539461Y-103265555D01*
X216545815Y-103362502D01*
X216514585Y-103454501D01*
X216496491Y-103481581D01*
X216472655Y-103512644D01*
X216472653Y-103512647D01*
X216344648Y-103734360D01*
X216344646Y-103734364D01*
X216246678Y-103970882D01*
X216246676Y-103970888D01*
X216180416Y-104218174D01*
X216147000Y-104471994D01*
X216147000Y-104728005D01*
X216180416Y-104981825D01*
X216236684Y-105191822D01*
X216246678Y-105229118D01*
X216271683Y-105289485D01*
X216344646Y-105465635D01*
X216344648Y-105465639D01*
X216344650Y-105465643D01*
X216438350Y-105627937D01*
X216472653Y-105687352D01*
X216472663Y-105687367D01*
X216628502Y-105890459D01*
X216628507Y-105890465D01*
X216809535Y-106071493D01*
X216809539Y-106071496D01*
X216815299Y-106077256D01*
X216813804Y-106078750D01*
X216864703Y-106145097D01*
X216889839Y-106238944D01*
X216877147Y-106335267D01*
X216861107Y-106369474D01*
X216862153Y-106370007D01*
X216753915Y-106582436D01*
X216753913Y-106582441D01*
X216683265Y-106799874D01*
X216647500Y-107025676D01*
X216647500Y-107254323D01*
X216683265Y-107480125D01*
X216753913Y-107697558D01*
X216753915Y-107697563D01*
X216862153Y-107909993D01*
X216859768Y-107911207D01*
X216887303Y-107985834D01*
X216883492Y-108082915D01*
X216842820Y-108171147D01*
X216814622Y-108202067D01*
X216815299Y-108202744D01*
X216809539Y-108208503D01*
X216809535Y-108208507D01*
X216702542Y-108315500D01*
X216628502Y-108389540D01*
X216472663Y-108592632D01*
X216472653Y-108592647D01*
X216344648Y-108814360D01*
X216344646Y-108814364D01*
X216246678Y-109050882D01*
X216246676Y-109050888D01*
X216180416Y-109298174D01*
X216147000Y-109551994D01*
X216147000Y-109584700D01*
X216128046Y-109679988D01*
X216074070Y-109760770D01*
X215993288Y-109814746D01*
X215898000Y-109833700D01*
X211036645Y-109833700D01*
X211036621Y-109833699D01*
X211026347Y-109833699D01*
X210845254Y-109833699D01*
X210845251Y-109833699D01*
X210845243Y-109833700D01*
X210666394Y-109862027D01*
X210494165Y-109917987D01*
X210494155Y-109917991D01*
X210332814Y-110000199D01*
X210332807Y-110000203D01*
X210186301Y-110106645D01*
X208866377Y-111426570D01*
X208785595Y-111480546D01*
X208690307Y-111499500D01*
X208501989Y-111499500D01*
X208267992Y-111530306D01*
X208267990Y-111530306D01*
X208267986Y-111530307D01*
X208180149Y-111553843D01*
X208040012Y-111591392D01*
X207822482Y-111681495D01*
X207727193Y-111700448D01*
X207631905Y-111681493D01*
X207551125Y-111627518D01*
X207405466Y-111481859D01*
X207403659Y-111480546D01*
X207227122Y-111352285D01*
X207227119Y-111352283D01*
X207227113Y-111352279D01*
X207030716Y-111252209D01*
X207030709Y-111252206D01*
X207030706Y-111252205D01*
X206821051Y-111184085D01*
X206821045Y-111184084D01*
X206821041Y-111184083D01*
X206686607Y-111162790D01*
X206595457Y-111129163D01*
X206524115Y-111063213D01*
X206483440Y-110974982D01*
X206479627Y-110877902D01*
X206513254Y-110786752D01*
X206579204Y-110715410D01*
X206667435Y-110674735D01*
X206693056Y-110669987D01*
X206701789Y-110668838D01*
X206798508Y-110642921D01*
X206936082Y-110606059D01*
X206936084Y-110606058D01*
X206936100Y-110606054D01*
X207124349Y-110528079D01*
X207160201Y-110513229D01*
X207160206Y-110513226D01*
X207160212Y-110513224D01*
X207370289Y-110391936D01*
X207562738Y-110244265D01*
X207734265Y-110072738D01*
X207881936Y-109880289D01*
X208003224Y-109670212D01*
X208015210Y-109641277D01*
X208078737Y-109487906D01*
X208096054Y-109446100D01*
X208102196Y-109423180D01*
X208115567Y-109373275D01*
X208158838Y-109211789D01*
X208190500Y-108971288D01*
X208190500Y-108728712D01*
X208158838Y-108488211D01*
X208132398Y-108389535D01*
X208096059Y-108253917D01*
X208096057Y-108253911D01*
X208096054Y-108253900D01*
X208046785Y-108134954D01*
X208003229Y-108029798D01*
X208003221Y-108029782D01*
X207917971Y-107882126D01*
X207881936Y-107819711D01*
X207827287Y-107748491D01*
X207734270Y-107627268D01*
X207734261Y-107627258D01*
X207562741Y-107455738D01*
X207562731Y-107455729D01*
X207370289Y-107308064D01*
X207370279Y-107308058D01*
X207160217Y-107186778D01*
X207160201Y-107186770D01*
X206936105Y-107093948D01*
X206936103Y-107093947D01*
X206936100Y-107093946D01*
X206936096Y-107093945D01*
X206936082Y-107093940D01*
X206701795Y-107031163D01*
X206701790Y-107031162D01*
X206461288Y-106999500D01*
X206218712Y-106999500D01*
X205978209Y-107031162D01*
X205978204Y-107031163D01*
X205743917Y-107093940D01*
X205743894Y-107093948D01*
X205519798Y-107186770D01*
X205519782Y-107186778D01*
X205309720Y-107308058D01*
X205309710Y-107308064D01*
X205117268Y-107455729D01*
X205117258Y-107455738D01*
X204945738Y-107627258D01*
X204945729Y-107627268D01*
X204798064Y-107819710D01*
X204798058Y-107819720D01*
X204676778Y-108029782D01*
X204676770Y-108029798D01*
X204583948Y-108253894D01*
X204583940Y-108253917D01*
X204521163Y-108488204D01*
X204521162Y-108488209D01*
X204495095Y-108686211D01*
X204489500Y-108728712D01*
X204489500Y-108971288D01*
X204496396Y-109023667D01*
X204521162Y-109211790D01*
X204521163Y-109211795D01*
X204583940Y-109446082D01*
X204583948Y-109446105D01*
X204676770Y-109670201D01*
X204676778Y-109670217D01*
X204798058Y-109880279D01*
X204798064Y-109880289D01*
X204945729Y-110072731D01*
X204945738Y-110072741D01*
X205117258Y-110244261D01*
X205117268Y-110244270D01*
X205238491Y-110337287D01*
X205309711Y-110391936D01*
X205309720Y-110391941D01*
X205519782Y-110513221D01*
X205519798Y-110513229D01*
X205659858Y-110571242D01*
X205743900Y-110606054D01*
X205743911Y-110606057D01*
X205743917Y-110606059D01*
X205927021Y-110655121D01*
X205978211Y-110668838D01*
X206154151Y-110692000D01*
X206246149Y-110723229D01*
X206319194Y-110787288D01*
X206362165Y-110874423D01*
X206368520Y-110971370D01*
X206337291Y-111063369D01*
X206273232Y-111136414D01*
X206186097Y-111179385D01*
X206174116Y-111181932D01*
X206165154Y-111184084D01*
X206165152Y-111184084D01*
X206165149Y-111184085D01*
X205955494Y-111252205D01*
X205955492Y-111252205D01*
X205955492Y-111252206D01*
X205955483Y-111252209D01*
X205759086Y-111352279D01*
X205759081Y-111352283D01*
X205759078Y-111352284D01*
X205759078Y-111352285D01*
X205737136Y-111368227D01*
X205674123Y-111414008D01*
X205585892Y-111454682D01*
X205488812Y-111458495D01*
X205463322Y-111453077D01*
X205406421Y-111437831D01*
X205391116Y-111433730D01*
X205391114Y-111433729D01*
X205131120Y-111399500D01*
X204868880Y-111399500D01*
X204608887Y-111433729D01*
X204355582Y-111501601D01*
X204113310Y-111601953D01*
X204113306Y-111601955D01*
X203886201Y-111733073D01*
X203886187Y-111733082D01*
X203678154Y-111892713D01*
X203492713Y-112078154D01*
X203333082Y-112286187D01*
X203333073Y-112286201D01*
X203201955Y-112513306D01*
X203201953Y-112513310D01*
X203101601Y-112755582D01*
X203033729Y-113008887D01*
X202999500Y-113268880D01*
X202999500Y-113531119D01*
X203033729Y-113791112D01*
X203101601Y-114044417D01*
X203201953Y-114286689D01*
X203201955Y-114286693D01*
X203201957Y-114286697D01*
X203297935Y-114452937D01*
X203333073Y-114513798D01*
X203333082Y-114513812D01*
X203492713Y-114721845D01*
X203492718Y-114721851D01*
X203678149Y-114907282D01*
X203678153Y-114907285D01*
X203678154Y-114907286D01*
X203759640Y-114969813D01*
X203823699Y-115042858D01*
X203854928Y-115134857D01*
X203848573Y-115231804D01*
X203805602Y-115318939D01*
X203732557Y-115382998D01*
X203711039Y-115394064D01*
X203693334Y-115402105D01*
X203680374Y-115407993D01*
X203680372Y-115407993D01*
X203680368Y-115407996D01*
X203495350Y-115536177D01*
X203336177Y-115695350D01*
X203207996Y-115880368D01*
X203114905Y-116085312D01*
X203059903Y-116303592D01*
X203059902Y-116303595D01*
X203049500Y-116435772D01*
X203049500Y-118364227D01*
X203059902Y-118496404D01*
X203059903Y-118496407D01*
X203059903Y-118496410D01*
X203059904Y-118496411D01*
X203062089Y-118505081D01*
X203114905Y-118714687D01*
X203141383Y-118772979D01*
X203207993Y-118919626D01*
X203207995Y-118919629D01*
X203207996Y-118919631D01*
X203336177Y-119104649D01*
X203336178Y-119104650D01*
X203336181Y-119104654D01*
X203495346Y-119263819D01*
X203680374Y-119392007D01*
X203849369Y-119468767D01*
X203885312Y-119485094D01*
X203885313Y-119485094D01*
X203885317Y-119485096D01*
X204103589Y-119540096D01*
X204103592Y-119540096D01*
X204103595Y-119540097D01*
X204223179Y-119549508D01*
X204235784Y-119550500D01*
X204235785Y-119550500D01*
X205621306Y-119550500D01*
X205716594Y-119569454D01*
X205797376Y-119623430D01*
X205851352Y-119704212D01*
X205870306Y-119799500D01*
X205851352Y-119894788D01*
X205797376Y-119975570D01*
X205797373Y-119975572D01*
X205765772Y-120007172D01*
X205684990Y-120061148D01*
X205589701Y-120080100D01*
X205557204Y-120077970D01*
X205340952Y-120049500D01*
X205340951Y-120049500D01*
X205059049Y-120049500D01*
X205059048Y-120049500D01*
X204779564Y-120086295D01*
X204779562Y-120086295D01*
X204779558Y-120086296D01*
X204593385Y-120136181D01*
X204507264Y-120159257D01*
X204507255Y-120159260D01*
X204246827Y-120267131D01*
X204246811Y-120267139D01*
X204002682Y-120408088D01*
X204002678Y-120408091D01*
X203779040Y-120579695D01*
X203579695Y-120779040D01*
X203408091Y-121002678D01*
X203408088Y-121002682D01*
X203267139Y-121246811D01*
X203267131Y-121246827D01*
X203159260Y-121507255D01*
X203159258Y-121507261D01*
X203086296Y-121779558D01*
X203049500Y-122059049D01*
X203049500Y-122340951D01*
X203086296Y-122620442D01*
X203157132Y-122884803D01*
X203159257Y-122892735D01*
X203159260Y-122892744D01*
X203267131Y-123153172D01*
X203267139Y-123153188D01*
X203408088Y-123397317D01*
X203408091Y-123397321D01*
X203562146Y-123598089D01*
X203579700Y-123620965D01*
X203779035Y-123820300D01*
X204002683Y-123991912D01*
X204042508Y-124014905D01*
X204246811Y-124132860D01*
X204246827Y-124132868D01*
X204409594Y-124200287D01*
X204507261Y-124240742D01*
X204779558Y-124313704D01*
X205019121Y-124345243D01*
X205059048Y-124350500D01*
X205059049Y-124350500D01*
X205340952Y-124350500D01*
X205628524Y-124312640D01*
X205628871Y-124315278D01*
X205709547Y-124315148D01*
X205799367Y-124352183D01*
X205868176Y-124420771D01*
X205905501Y-124510471D01*
X205905658Y-124607625D01*
X205868623Y-124697445D01*
X205837434Y-124735512D01*
X205765776Y-124807170D01*
X205684994Y-124861146D01*
X205589706Y-124880100D01*
X205557205Y-124877970D01*
X205340952Y-124849500D01*
X205340951Y-124849500D01*
X205059049Y-124849500D01*
X205059048Y-124849500D01*
X204779564Y-124886295D01*
X204779562Y-124886295D01*
X204779558Y-124886296D01*
X204573708Y-124941453D01*
X204507264Y-124959257D01*
X204507255Y-124959260D01*
X204246827Y-125067131D01*
X204246811Y-125067139D01*
X204002682Y-125208088D01*
X204002678Y-125208091D01*
X203779040Y-125379695D01*
X203579695Y-125579040D01*
X203408091Y-125802678D01*
X203408088Y-125802682D01*
X203267139Y-126046811D01*
X203267131Y-126046827D01*
X203162382Y-126299718D01*
X203159258Y-126307261D01*
X203086296Y-126579558D01*
X203086295Y-126579562D01*
X203086295Y-126579564D01*
X203049500Y-126859048D01*
X203049500Y-127140951D01*
X203086172Y-127419504D01*
X203086296Y-127420442D01*
X203139669Y-127619631D01*
X203159257Y-127692735D01*
X203159260Y-127692744D01*
X203267131Y-127953172D01*
X203267139Y-127953188D01*
X203408088Y-128197317D01*
X203408091Y-128197321D01*
X203579192Y-128420304D01*
X203579700Y-128420965D01*
X203779035Y-128620300D01*
X204002683Y-128791912D01*
X204087254Y-128840739D01*
X204246811Y-128932860D01*
X204246827Y-128932868D01*
X204409594Y-129000287D01*
X204507261Y-129040742D01*
X204779558Y-129113704D01*
X205019121Y-129145243D01*
X205059048Y-129150500D01*
X205059049Y-129150500D01*
X205340952Y-129150500D01*
X205375887Y-129145900D01*
X205620442Y-129113704D01*
X205892739Y-129040742D01*
X206070452Y-128967131D01*
X206153172Y-128932868D01*
X206153177Y-128932865D01*
X206153183Y-128932863D01*
X206397317Y-128791912D01*
X206620965Y-128620300D01*
X206820300Y-128420965D01*
X206991912Y-128197317D01*
X207132863Y-127953183D01*
X207134182Y-127950000D01*
X207167735Y-127868993D01*
X207240742Y-127692739D01*
X207313704Y-127420442D01*
X207350500Y-127140951D01*
X207350500Y-126859049D01*
X207322029Y-126642792D01*
X207328383Y-126545847D01*
X207371354Y-126458711D01*
X207392830Y-126434222D01*
X207939323Y-125887730D01*
X208020104Y-125833754D01*
X208115392Y-125814800D01*
X208713119Y-125814800D01*
X208808407Y-125833754D01*
X208889189Y-125887730D01*
X208943165Y-125968512D01*
X208962119Y-126063800D01*
X208953635Y-126128245D01*
X208886295Y-126379562D01*
X208869113Y-126510075D01*
X208849500Y-126659049D01*
X208849500Y-126940951D01*
X208886296Y-127220442D01*
X208935418Y-127403767D01*
X208959257Y-127492735D01*
X208959260Y-127492744D01*
X209067131Y-127753172D01*
X209067139Y-127753188D01*
X209208088Y-127997317D01*
X209208091Y-127997321D01*
X209352176Y-128185096D01*
X209379700Y-128220965D01*
X209579035Y-128420300D01*
X209579039Y-128420303D01*
X209579040Y-128420304D01*
X209617742Y-128450001D01*
X209802683Y-128591912D01*
X209919039Y-128659090D01*
X210046811Y-128732860D01*
X210046827Y-128732868D01*
X210175816Y-128786296D01*
X210307261Y-128840742D01*
X210579558Y-128913704D01*
X210819121Y-128945243D01*
X210859048Y-128950500D01*
X210859049Y-128950500D01*
X211140952Y-128950500D01*
X211175887Y-128945900D01*
X211420442Y-128913704D01*
X211692739Y-128840742D01*
X211913018Y-128749500D01*
X211953172Y-128732868D01*
X211953177Y-128732865D01*
X211953183Y-128732863D01*
X212197317Y-128591912D01*
X212420965Y-128420300D01*
X212620300Y-128220965D01*
X212791912Y-127997317D01*
X212932863Y-127753183D01*
X213040742Y-127492739D01*
X213113704Y-127220442D01*
X213150500Y-126940951D01*
X213150500Y-126659049D01*
X213113704Y-126379558D01*
X213062427Y-126188192D01*
X213046365Y-126128245D01*
X213040011Y-126031298D01*
X213071241Y-125939299D01*
X213135300Y-125866255D01*
X213222436Y-125823284D01*
X213286881Y-125814800D01*
X214527834Y-125814800D01*
X214623122Y-125833754D01*
X214703904Y-125887730D01*
X214757880Y-125968512D01*
X214776834Y-126063800D01*
X214757880Y-126159088D01*
X214703904Y-126239870D01*
X214666652Y-126267755D01*
X214667551Y-126269001D01*
X214654918Y-126278109D01*
X214549718Y-126376053D01*
X214476375Y-126499660D01*
X214476374Y-126499664D01*
X214473439Y-126506749D01*
X214473436Y-126506757D01*
X214455456Y-126557723D01*
X214435000Y-126700002D01*
X214435000Y-127949999D01*
X214435001Y-127950000D01*
X216741759Y-127950000D01*
X216728822Y-127981233D01*
X216700000Y-128126131D01*
X216700000Y-128273869D01*
X216728822Y-128418767D01*
X216741759Y-128450000D01*
X214435001Y-128450000D01*
X214435000Y-128450001D01*
X214435000Y-129699992D01*
X214437894Y-129753986D01*
X214473443Y-129893262D01*
X214476372Y-129900331D01*
X214528107Y-129995078D01*
X214528109Y-129995081D01*
X214626053Y-130100281D01*
X214749660Y-130173624D01*
X214749664Y-130173625D01*
X214756749Y-130176560D01*
X214756757Y-130176563D01*
X214807723Y-130194543D01*
X214950003Y-130215000D01*
X217199999Y-130215000D01*
X217200000Y-130214999D01*
X217200000Y-128908240D01*
X217231233Y-128921178D01*
X217376131Y-128950000D01*
X217523869Y-128950000D01*
X217668767Y-128921178D01*
X217700000Y-128908240D01*
X217700000Y-130214999D01*
X217700001Y-130215000D01*
X219949993Y-130215000D01*
X220003986Y-130212105D01*
X220143262Y-130176556D01*
X220150331Y-130173627D01*
X220245078Y-130121892D01*
X220245081Y-130121890D01*
X220350281Y-130023946D01*
X220423624Y-129900339D01*
X220423625Y-129900335D01*
X220426560Y-129893250D01*
X220426563Y-129893242D01*
X220444543Y-129842276D01*
X220465000Y-129699997D01*
X220465000Y-128450001D01*
X220464999Y-128450000D01*
X218158241Y-128450000D01*
X218171178Y-128418767D01*
X218200000Y-128273869D01*
X218200000Y-128126131D01*
X218171178Y-127981233D01*
X218158241Y-127950000D01*
X220464999Y-127950000D01*
X220465000Y-127949999D01*
X220465000Y-126700007D01*
X220462105Y-126646013D01*
X220426556Y-126506737D01*
X220423627Y-126499668D01*
X220371892Y-126404921D01*
X220371890Y-126404918D01*
X220273946Y-126299718D01*
X220237244Y-126277941D01*
X220164967Y-126213016D01*
X220123038Y-126125375D01*
X220117840Y-126028359D01*
X220150164Y-125936739D01*
X220215089Y-125864462D01*
X220302730Y-125822533D01*
X220364305Y-125814800D01*
X235915656Y-125814800D01*
X235915680Y-125814801D01*
X235925954Y-125814801D01*
X236107043Y-125814801D01*
X236107046Y-125814801D01*
X236285909Y-125786471D01*
X236458139Y-125730511D01*
X236619494Y-125648296D01*
X236682275Y-125602683D01*
X236766001Y-125541853D01*
X236894053Y-125413801D01*
X236894053Y-125413799D01*
X236908240Y-125399613D01*
X236908244Y-125399608D01*
X249125862Y-113181989D01*
X251509500Y-113181989D01*
X251509500Y-113418011D01*
X251540307Y-113652014D01*
X251579697Y-113799019D01*
X251601393Y-113879989D01*
X251601394Y-113879992D01*
X251691713Y-114098043D01*
X251691718Y-114098054D01*
X251800632Y-114286697D01*
X251809727Y-114302450D01*
X251953408Y-114489699D01*
X252120301Y-114656592D01*
X252307550Y-114800273D01*
X252307559Y-114800278D01*
X252511945Y-114918281D01*
X252511948Y-114918282D01*
X252511951Y-114918284D01*
X252730007Y-115008606D01*
X252957986Y-115069693D01*
X253191989Y-115100500D01*
X253428011Y-115100500D01*
X253662014Y-115069693D01*
X253889993Y-115008606D01*
X254108049Y-114918284D01*
X254312450Y-114800273D01*
X254499699Y-114656592D01*
X254666592Y-114489699D01*
X254810273Y-114302450D01*
X254928284Y-114098049D01*
X255018606Y-113879993D01*
X255079693Y-113652014D01*
X255110500Y-113418011D01*
X255110500Y-113181989D01*
X255079693Y-112947986D01*
X255018606Y-112720007D01*
X254928284Y-112501951D01*
X254916766Y-112482002D01*
X254810278Y-112297559D01*
X254810272Y-112297549D01*
X254803261Y-112288412D01*
X254666592Y-112110301D01*
X254499699Y-111943408D01*
X254312450Y-111799727D01*
X254311908Y-111799414D01*
X254108054Y-111681718D01*
X254108043Y-111681713D01*
X253915489Y-111601955D01*
X253889993Y-111591394D01*
X253662014Y-111530307D01*
X253662007Y-111530306D01*
X253428011Y-111499500D01*
X253191989Y-111499500D01*
X252957992Y-111530306D01*
X252957990Y-111530306D01*
X252957986Y-111530307D01*
X252787312Y-111576039D01*
X252730010Y-111591393D01*
X252730007Y-111591394D01*
X252511956Y-111681713D01*
X252511945Y-111681718D01*
X252307559Y-111799721D01*
X252307549Y-111799727D01*
X252120301Y-111943408D01*
X252120297Y-111943411D01*
X251953411Y-112110297D01*
X251953408Y-112110301D01*
X251809727Y-112297549D01*
X251809721Y-112297559D01*
X251691718Y-112501945D01*
X251691713Y-112501956D01*
X251601394Y-112720007D01*
X251540307Y-112947986D01*
X251540306Y-112947990D01*
X251540306Y-112947992D01*
X251516572Y-113128274D01*
X251509500Y-113181989D01*
X249125862Y-113181989D01*
X254781036Y-107526815D01*
X254861815Y-107472842D01*
X254957103Y-107453888D01*
X255052391Y-107472842D01*
X255133173Y-107526818D01*
X255154648Y-107551306D01*
X255258343Y-107686444D01*
X255413556Y-107841657D01*
X255587701Y-107975283D01*
X255777798Y-108085036D01*
X255980595Y-108169037D01*
X256192620Y-108225849D01*
X256410247Y-108254500D01*
X256629753Y-108254500D01*
X256847380Y-108225849D01*
X257059405Y-108169037D01*
X257262202Y-108085036D01*
X257452299Y-107975283D01*
X257626444Y-107841657D01*
X257781657Y-107686444D01*
X257915283Y-107512299D01*
X258025036Y-107322202D01*
X258109037Y-107119405D01*
X258165849Y-106907380D01*
X258194500Y-106689753D01*
X258194500Y-106635691D01*
X258213454Y-106540403D01*
X258267427Y-106459625D01*
X258274434Y-106452618D01*
X258355212Y-106398645D01*
X258450500Y-106379691D01*
X258545788Y-106398645D01*
X258626570Y-106452621D01*
X258680546Y-106533403D01*
X258699500Y-106628691D01*
X258699500Y-124547373D01*
X258680546Y-124642661D01*
X258626570Y-124723443D01*
X258545788Y-124777419D01*
X258450500Y-124796373D01*
X258355212Y-124777419D01*
X258274430Y-124723443D01*
X258223792Y-124650350D01*
X258204385Y-124607625D01*
X258192007Y-124580374D01*
X258192005Y-124580371D01*
X258192005Y-124580370D01*
X258063822Y-124395350D01*
X258063821Y-124395349D01*
X258063819Y-124395346D01*
X257904654Y-124236181D01*
X257904650Y-124236178D01*
X257904649Y-124236177D01*
X257719631Y-124107996D01*
X257719629Y-124107995D01*
X257719626Y-124107993D01*
X257622990Y-124064099D01*
X257514687Y-124014905D01*
X257296407Y-123959903D01*
X257296404Y-123959902D01*
X257164227Y-123949500D01*
X257164216Y-123949500D01*
X256274667Y-123949500D01*
X256179379Y-123930546D01*
X256098597Y-123876570D01*
X252588430Y-120366403D01*
X252534454Y-120285621D01*
X252515500Y-120190333D01*
X252515500Y-119500003D01*
X252515500Y-119500000D01*
X252497400Y-119310075D01*
X252438956Y-119115201D01*
X252436027Y-119108130D01*
X252434211Y-119104654D01*
X252353584Y-118950301D01*
X252353579Y-118950293D01*
X252292490Y-118873404D01*
X252227024Y-118791005D01*
X252227021Y-118791002D01*
X252227020Y-118791001D01*
X252070997Y-118660452D01*
X252070985Y-118660444D01*
X251891879Y-118563977D01*
X251891870Y-118563973D01*
X251884799Y-118561044D01*
X251848320Y-118549851D01*
X251702410Y-118505083D01*
X251702400Y-118505081D01*
X251500019Y-118484501D01*
X251500003Y-118484500D01*
X251500000Y-118484500D01*
X246500000Y-118484500D01*
X246405037Y-118493550D01*
X246310074Y-118502600D01*
X246115196Y-118561045D01*
X246108130Y-118563973D01*
X246108112Y-118563981D01*
X245950301Y-118646415D01*
X245950293Y-118646420D01*
X245791001Y-118772979D01*
X245660452Y-118929002D01*
X245660444Y-118929014D01*
X245563977Y-119108120D01*
X245563973Y-119108129D01*
X245561044Y-119115201D01*
X245505083Y-119297589D01*
X245505081Y-119297599D01*
X245484501Y-119499980D01*
X245484500Y-119500005D01*
X245484500Y-122499998D01*
X245502600Y-122689925D01*
X245561045Y-122884803D01*
X245563973Y-122891869D01*
X245563981Y-122891887D01*
X245646415Y-123049698D01*
X245646420Y-123049706D01*
X245694249Y-123109905D01*
X245772976Y-123208995D01*
X245772977Y-123208996D01*
X245772979Y-123208998D01*
X245929002Y-123339547D01*
X245929007Y-123339550D01*
X245929009Y-123339552D01*
X245929011Y-123339553D01*
X245929014Y-123339555D01*
X246108120Y-123436022D01*
X246108124Y-123436023D01*
X246108130Y-123436027D01*
X246115201Y-123438956D01*
X246234091Y-123475433D01*
X246297589Y-123494916D01*
X246297599Y-123494918D01*
X246499980Y-123515498D01*
X246500000Y-123515500D01*
X251390333Y-123515500D01*
X251485621Y-123534454D01*
X251566403Y-123588430D01*
X253976570Y-125998597D01*
X254030546Y-126079379D01*
X254049500Y-126174667D01*
X254049500Y-126476286D01*
X254030546Y-126571574D01*
X253976570Y-126652356D01*
X253895788Y-126706332D01*
X253800500Y-126725286D01*
X253761549Y-126722221D01*
X253618092Y-126699500D01*
X252739465Y-126699500D01*
X252644177Y-126680546D01*
X252563395Y-126626570D01*
X252509419Y-126545788D01*
X252502094Y-126521438D01*
X252500914Y-126521793D01*
X252496405Y-126506757D01*
X252438956Y-126315201D01*
X252436027Y-126308130D01*
X252420345Y-126278109D01*
X252353584Y-126150301D01*
X252353579Y-126150293D01*
X252290999Y-126071527D01*
X252227024Y-125991005D01*
X252227021Y-125991002D01*
X252227020Y-125991001D01*
X252070997Y-125860452D01*
X252070985Y-125860444D01*
X251891879Y-125763977D01*
X251891870Y-125763973D01*
X251884799Y-125761044D01*
X251848320Y-125749851D01*
X251702410Y-125705083D01*
X251702400Y-125705081D01*
X251500019Y-125684501D01*
X251500003Y-125684500D01*
X251500000Y-125684500D01*
X246500000Y-125684500D01*
X246405037Y-125693550D01*
X246310074Y-125702600D01*
X246115196Y-125761045D01*
X246108130Y-125763973D01*
X246108112Y-125763981D01*
X245950301Y-125846415D01*
X245950293Y-125846420D01*
X245791001Y-125972979D01*
X245660452Y-126129002D01*
X245660444Y-126129014D01*
X245563977Y-126308120D01*
X245563973Y-126308129D01*
X245561044Y-126315201D01*
X245505083Y-126497589D01*
X245505081Y-126497599D01*
X245484501Y-126699980D01*
X245484500Y-126700005D01*
X245484500Y-129699998D01*
X245502600Y-129889925D01*
X245561045Y-130084803D01*
X245563973Y-130091869D01*
X245563981Y-130091887D01*
X245646415Y-130249698D01*
X245646420Y-130249706D01*
X245695908Y-130311993D01*
X245772976Y-130408995D01*
X245772977Y-130408996D01*
X245772979Y-130408998D01*
X245929002Y-130539547D01*
X245929007Y-130539550D01*
X245929009Y-130539552D01*
X245929011Y-130539553D01*
X245929014Y-130539555D01*
X246108120Y-130636022D01*
X246108124Y-130636023D01*
X246108130Y-130636027D01*
X246115201Y-130638956D01*
X246234091Y-130675433D01*
X246297589Y-130694916D01*
X246297599Y-130694918D01*
X246499980Y-130715498D01*
X246500000Y-130715500D01*
X246500006Y-130715500D01*
X251499997Y-130715500D01*
X251500000Y-130715500D01*
X251689925Y-130697400D01*
X251884799Y-130638956D01*
X251891870Y-130636027D01*
X252049701Y-130553583D01*
X252208995Y-130427024D01*
X252339552Y-130270991D01*
X252436027Y-130091870D01*
X252438956Y-130084799D01*
X252494917Y-129902406D01*
X252494917Y-129902396D01*
X252495373Y-129900150D01*
X252496263Y-129898020D01*
X252498506Y-129890710D01*
X252499225Y-129890930D01*
X252532837Y-129810509D01*
X252601753Y-129742027D01*
X252691629Y-129705132D01*
X252739434Y-129700500D01*
X252775333Y-129700500D01*
X252870621Y-129719454D01*
X252951403Y-129773430D01*
X253976570Y-130798597D01*
X254030546Y-130879379D01*
X254049500Y-130974667D01*
X254049500Y-131040951D01*
X254086296Y-131320442D01*
X254150737Y-131560937D01*
X254159257Y-131592735D01*
X254159260Y-131592744D01*
X254267131Y-131853172D01*
X254267139Y-131853188D01*
X254408088Y-132097317D01*
X254408091Y-132097321D01*
X254467696Y-132175000D01*
X254579700Y-132320965D01*
X254779035Y-132520300D01*
X255002683Y-132691912D01*
X255119039Y-132759090D01*
X255246811Y-132832860D01*
X255246827Y-132832868D01*
X255409594Y-132900287D01*
X255507261Y-132940742D01*
X255779558Y-133013704D01*
X256019121Y-133045243D01*
X256059048Y-133050500D01*
X256059049Y-133050500D01*
X256340952Y-133050500D01*
X256375887Y-133045900D01*
X256620442Y-133013704D01*
X256892739Y-132940742D01*
X257068993Y-132867735D01*
X257153172Y-132832868D01*
X257153177Y-132832865D01*
X257153183Y-132832863D01*
X257397317Y-132691912D01*
X257620965Y-132520300D01*
X257820300Y-132320965D01*
X257991912Y-132097317D01*
X258132863Y-131853183D01*
X258145804Y-131821942D01*
X258220454Y-131641719D01*
X258274430Y-131560937D01*
X258355211Y-131506960D01*
X258450499Y-131488006D01*
X258545787Y-131506960D01*
X258626569Y-131560936D01*
X258680546Y-131641717D01*
X258699500Y-131737005D01*
X258699500Y-133350500D01*
X258680546Y-133445788D01*
X258626570Y-133526570D01*
X258545788Y-133580546D01*
X258450500Y-133599500D01*
X211747357Y-133599500D01*
X211652069Y-133580546D01*
X211571287Y-133526570D01*
X211517311Y-133445788D01*
X211498357Y-133350500D01*
X211517311Y-133255212D01*
X211571287Y-133174430D01*
X211634313Y-133128640D01*
X211864779Y-133011211D01*
X211864785Y-133011207D01*
X211976492Y-132930047D01*
X211190645Y-132144200D01*
X211221942Y-132135815D01*
X211353058Y-132060115D01*
X211460115Y-131953058D01*
X211535815Y-131821942D01*
X211544200Y-131790645D01*
X212330047Y-132576492D01*
X212411207Y-132464785D01*
X212411211Y-132464779D01*
X212529109Y-132233390D01*
X212529117Y-132233373D01*
X212609371Y-131986373D01*
X212649999Y-131729867D01*
X212650000Y-131729855D01*
X212650000Y-131470144D01*
X212649999Y-131470132D01*
X212609371Y-131213626D01*
X212529117Y-130966626D01*
X212529109Y-130966609D01*
X212411206Y-130735212D01*
X212330047Y-130623506D01*
X211544200Y-131409352D01*
X211535815Y-131378058D01*
X211460115Y-131246942D01*
X211353058Y-131139885D01*
X211221942Y-131064185D01*
X211190644Y-131055798D01*
X211976492Y-130269951D01*
X211864786Y-130188793D01*
X211864779Y-130188789D01*
X211633390Y-130070890D01*
X211633373Y-130070882D01*
X211386373Y-129990628D01*
X211129867Y-129950000D01*
X210870132Y-129950000D01*
X210613626Y-129990628D01*
X210366626Y-130070882D01*
X210366609Y-130070890D01*
X210135220Y-130188789D01*
X210135207Y-130188797D01*
X210023506Y-130269951D01*
X210809354Y-131055799D01*
X210778058Y-131064185D01*
X210646942Y-131139885D01*
X210539885Y-131246942D01*
X210464185Y-131378058D01*
X210455799Y-131409354D01*
X209669951Y-130623506D01*
X209588797Y-130735207D01*
X209588789Y-130735220D01*
X209470890Y-130966609D01*
X209470882Y-130966626D01*
X209390628Y-131213626D01*
X209350000Y-131470132D01*
X209350000Y-131729867D01*
X209390628Y-131986373D01*
X209470882Y-132233373D01*
X209470890Y-132233390D01*
X209588789Y-132464779D01*
X209588793Y-132464786D01*
X209669951Y-132576492D01*
X210455798Y-131790644D01*
X210464185Y-131821942D01*
X210539885Y-131953058D01*
X210646942Y-132060115D01*
X210778058Y-132135815D01*
X210809352Y-132144200D01*
X210023506Y-132930047D01*
X210135212Y-133011206D01*
X210365687Y-133128640D01*
X210441984Y-133188788D01*
X210489456Y-133273555D01*
X210500875Y-133370037D01*
X210474503Y-133463544D01*
X210414355Y-133539841D01*
X210329588Y-133587313D01*
X210252643Y-133599500D01*
X206296689Y-133599500D01*
X206201401Y-133580546D01*
X206120619Y-133526570D01*
X206066643Y-133445788D01*
X206047689Y-133350500D01*
X206066643Y-133255212D01*
X206120619Y-133174430D01*
X206150330Y-133149055D01*
X206176492Y-133130047D01*
X205390645Y-132344200D01*
X205421942Y-132335815D01*
X205553058Y-132260115D01*
X205660115Y-132153058D01*
X205735815Y-132021942D01*
X205744200Y-131990645D01*
X206530047Y-132776492D01*
X206611207Y-132664785D01*
X206611211Y-132664779D01*
X206729109Y-132433390D01*
X206729117Y-132433373D01*
X206809371Y-132186373D01*
X206849999Y-131929867D01*
X206850000Y-131929855D01*
X206850000Y-131670144D01*
X206849999Y-131670132D01*
X206822943Y-131499312D01*
X206822943Y-131499311D01*
X206809371Y-131413627D01*
X206729117Y-131166626D01*
X206729109Y-131166609D01*
X206611206Y-130935212D01*
X206530047Y-130823506D01*
X205744200Y-131609352D01*
X205735815Y-131578058D01*
X205660115Y-131446942D01*
X205553058Y-131339885D01*
X205421942Y-131264185D01*
X205390644Y-131255798D01*
X206176492Y-130469951D01*
X206064786Y-130388793D01*
X206064779Y-130388789D01*
X205833390Y-130270890D01*
X205833373Y-130270882D01*
X205586373Y-130190628D01*
X205329867Y-130150000D01*
X205070132Y-130150000D01*
X204813626Y-130190628D01*
X204566626Y-130270882D01*
X204566609Y-130270890D01*
X204335220Y-130388789D01*
X204335207Y-130388797D01*
X204223506Y-130469951D01*
X205009354Y-131255799D01*
X204978058Y-131264185D01*
X204846942Y-131339885D01*
X204739885Y-131446942D01*
X204664185Y-131578058D01*
X204655799Y-131609354D01*
X203869951Y-130823506D01*
X203788797Y-130935207D01*
X203788789Y-130935220D01*
X203670890Y-131166609D01*
X203670882Y-131166626D01*
X203590628Y-131413626D01*
X203550000Y-131670132D01*
X203550000Y-131929867D01*
X203590628Y-132186373D01*
X203670882Y-132433373D01*
X203670890Y-132433390D01*
X203788789Y-132664779D01*
X203788793Y-132664786D01*
X203869951Y-132776492D01*
X204655798Y-131990644D01*
X204664185Y-132021942D01*
X204739885Y-132153058D01*
X204846942Y-132260115D01*
X204978058Y-132335815D01*
X205009352Y-132344200D01*
X204223506Y-133130047D01*
X204249668Y-133149055D01*
X204315617Y-133220398D01*
X204349243Y-133311548D01*
X204345429Y-133408628D01*
X204304754Y-133496859D01*
X204233411Y-133562808D01*
X204142261Y-133596434D01*
X204103309Y-133599500D01*
X202149500Y-133599500D01*
X202054212Y-133580546D01*
X201973430Y-133526570D01*
X201919454Y-133445788D01*
X201900500Y-133350500D01*
X201900500Y-92608712D01*
X204489500Y-92608712D01*
X204489500Y-92851287D01*
X204521162Y-93091790D01*
X204521163Y-93091795D01*
X204583940Y-93326082D01*
X204583948Y-93326105D01*
X204676770Y-93550201D01*
X204676778Y-93550217D01*
X204798058Y-93760279D01*
X204798064Y-93760289D01*
X204945729Y-93952731D01*
X204945738Y-93952741D01*
X205117258Y-94124261D01*
X205117268Y-94124270D01*
X205225573Y-94207375D01*
X205309711Y-94271936D01*
X205309720Y-94271941D01*
X205519782Y-94393221D01*
X205519798Y-94393229D01*
X205659858Y-94451242D01*
X205743900Y-94486054D01*
X205743911Y-94486057D01*
X205743917Y-94486059D01*
X205927021Y-94535121D01*
X205978211Y-94548838D01*
X206218712Y-94580500D01*
X206461288Y-94580500D01*
X206701789Y-94548838D01*
X206863275Y-94505567D01*
X206936082Y-94486059D01*
X206936084Y-94486058D01*
X206936100Y-94486054D01*
X207097022Y-94419398D01*
X207160201Y-94393229D01*
X207160206Y-94393226D01*
X207160212Y-94393224D01*
X207370289Y-94271936D01*
X207562738Y-94124265D01*
X207734265Y-93952738D01*
X207881936Y-93760289D01*
X208003224Y-93550212D01*
X208013189Y-93526156D01*
X208033231Y-93477766D01*
X208096054Y-93326100D01*
X208108249Y-93280590D01*
X208146507Y-93137808D01*
X208158838Y-93091789D01*
X208190500Y-92851288D01*
X208190500Y-92608712D01*
X208158838Y-92368211D01*
X208133138Y-92272299D01*
X208096059Y-92133917D01*
X208096057Y-92133911D01*
X208096054Y-92133900D01*
X208061242Y-92049858D01*
X208003229Y-91909798D01*
X208003221Y-91909782D01*
X207881941Y-91699720D01*
X207881935Y-91699710D01*
X207857127Y-91667380D01*
X207741566Y-91516777D01*
X207734270Y-91507268D01*
X207734261Y-91507258D01*
X207562741Y-91335738D01*
X207562731Y-91335729D01*
X207370289Y-91188064D01*
X207370279Y-91188058D01*
X207160217Y-91066778D01*
X207160201Y-91066770D01*
X206936105Y-90973948D01*
X206936103Y-90973947D01*
X206936100Y-90973946D01*
X206936096Y-90973945D01*
X206936082Y-90973940D01*
X206701795Y-90911163D01*
X206701790Y-90911162D01*
X206461288Y-90879500D01*
X206218712Y-90879500D01*
X205978209Y-90911162D01*
X205978204Y-90911163D01*
X205743917Y-90973940D01*
X205743894Y-90973948D01*
X205519798Y-91066770D01*
X205519782Y-91066778D01*
X205309720Y-91188058D01*
X205309710Y-91188064D01*
X205117268Y-91335729D01*
X205117258Y-91335738D01*
X204945738Y-91507258D01*
X204945729Y-91507268D01*
X204798064Y-91699710D01*
X204798058Y-91699720D01*
X204676778Y-91909782D01*
X204676770Y-91909798D01*
X204583948Y-92133894D01*
X204583940Y-92133917D01*
X204521163Y-92368204D01*
X204521162Y-92368209D01*
X204489500Y-92608712D01*
X201900500Y-92608712D01*
X201900500Y-88448631D01*
X201919454Y-88353343D01*
X201973430Y-88272561D01*
X202054212Y-88218585D01*
X202149500Y-88199631D01*
X202244788Y-88218585D01*
X202325570Y-88272561D01*
X202379546Y-88353343D01*
X202387289Y-88377174D01*
X202387606Y-88377072D01*
X202470882Y-88633373D01*
X202470890Y-88633390D01*
X202588789Y-88864779D01*
X202588793Y-88864786D01*
X202669951Y-88976492D01*
X203455798Y-88190644D01*
X203464185Y-88221942D01*
X203539885Y-88353058D01*
X203646942Y-88460115D01*
X203778058Y-88535815D01*
X203809352Y-88544200D01*
X203023506Y-89330047D01*
X203135212Y-89411206D01*
X203366609Y-89529109D01*
X203366626Y-89529117D01*
X203613626Y-89609371D01*
X203870132Y-89649999D01*
X203870145Y-89650000D01*
X204129855Y-89650000D01*
X204129867Y-89649999D01*
X204386373Y-89609371D01*
X204633373Y-89529117D01*
X204633390Y-89529109D01*
X204864779Y-89411211D01*
X204864785Y-89411207D01*
X204976492Y-89330047D01*
X204190645Y-88544200D01*
X204221942Y-88535815D01*
X204353058Y-88460115D01*
X204460115Y-88353058D01*
X204535815Y-88221942D01*
X204544200Y-88190645D01*
X205330047Y-88976492D01*
X205411207Y-88864785D01*
X205411211Y-88864779D01*
X205529109Y-88633390D01*
X205529117Y-88633373D01*
X205609371Y-88386373D01*
X205649999Y-88129867D01*
X205650000Y-88129855D01*
X205650000Y-87870144D01*
X205649999Y-87870132D01*
X205609371Y-87613626D01*
X205529117Y-87366626D01*
X205529109Y-87366609D01*
X205411206Y-87135212D01*
X205330047Y-87023506D01*
X204544200Y-87809352D01*
X204535815Y-87778058D01*
X204460115Y-87646942D01*
X204353058Y-87539885D01*
X204221942Y-87464185D01*
X204190644Y-87455798D01*
X204976492Y-86669951D01*
X204864786Y-86588793D01*
X204864779Y-86588789D01*
X204634313Y-86471360D01*
X204558016Y-86411212D01*
X204510544Y-86326445D01*
X204499125Y-86229963D01*
X204525497Y-86136456D01*
X204585645Y-86060159D01*
X204670412Y-86012687D01*
X204747357Y-86000500D01*
X207157096Y-86000500D01*
X207252384Y-86019454D01*
G37*
%TD.AperFunction*%
%TA.AperFunction,Conductor*%
G36*
X254397094Y-104169754D02*
G01*
X254477876Y-104223730D01*
X254531852Y-104304512D01*
X254550806Y-104399800D01*
X254531852Y-104495088D01*
X254477876Y-104575870D01*
X246807995Y-112245750D01*
X246727213Y-112299726D01*
X246631925Y-112318680D01*
X246536637Y-112299726D01*
X246485565Y-112271124D01*
X246371350Y-112188140D01*
X246189025Y-112095242D01*
X246189019Y-112095240D01*
X245994413Y-112032009D01*
X245792323Y-112000001D01*
X245792308Y-112000000D01*
X245587692Y-112000000D01*
X245587676Y-112000001D01*
X245385586Y-112032009D01*
X245190980Y-112095240D01*
X245190974Y-112095242D01*
X245008647Y-112188142D01*
X244964078Y-112220523D01*
X245643555Y-112900000D01*
X245637339Y-112900000D01*
X245535606Y-112927259D01*
X245444394Y-112979920D01*
X245369920Y-113054394D01*
X245317259Y-113145606D01*
X245290000Y-113247339D01*
X245290000Y-113253555D01*
X244610523Y-112574078D01*
X244578142Y-112618647D01*
X244485242Y-112800974D01*
X244485240Y-112800980D01*
X244422009Y-112995586D01*
X244390001Y-113197676D01*
X244390000Y-113197692D01*
X244390000Y-113402307D01*
X244390001Y-113402323D01*
X244422009Y-113604413D01*
X244485240Y-113799019D01*
X244485242Y-113799025D01*
X244578140Y-113981350D01*
X244661124Y-114095565D01*
X244701800Y-114183795D01*
X244705615Y-114280875D01*
X244671989Y-114372025D01*
X244635750Y-114417995D01*
X235612877Y-123440870D01*
X235532095Y-123494846D01*
X235436807Y-123513800D01*
X220952054Y-123513800D01*
X220856766Y-123494846D01*
X220775984Y-123440870D01*
X220722008Y-123360088D01*
X220703054Y-123264800D01*
X220722008Y-123169512D01*
X220761086Y-123105012D01*
X220768432Y-123096231D01*
X220789552Y-123070991D01*
X220886027Y-122891870D01*
X220888956Y-122884799D01*
X220944917Y-122702406D01*
X220946187Y-122689925D01*
X220965498Y-122500019D01*
X220965500Y-122499994D01*
X220965500Y-120300700D01*
X220984454Y-120205412D01*
X221038430Y-120124630D01*
X221119212Y-120070654D01*
X221214500Y-120051700D01*
X224490956Y-120051700D01*
X224490980Y-120051701D01*
X224501254Y-120051701D01*
X224682343Y-120051701D01*
X224682346Y-120051701D01*
X224861209Y-120023371D01*
X225033439Y-119967411D01*
X225194794Y-119885196D01*
X225204934Y-119877829D01*
X225341301Y-119778753D01*
X225469353Y-119650701D01*
X225469355Y-119650697D01*
X234060009Y-111060043D01*
X234140783Y-111006073D01*
X234236071Y-110987119D01*
X234331359Y-111006073D01*
X234412141Y-111060049D01*
X234466117Y-111140831D01*
X234485071Y-111236119D01*
X234482941Y-111268616D01*
X234478000Y-111306150D01*
X234478000Y-111306156D01*
X234478000Y-111553844D01*
X234482236Y-111586021D01*
X234508588Y-111786187D01*
X234510330Y-111799414D01*
X234528250Y-111866291D01*
X234574438Y-112038668D01*
X234669220Y-112267492D01*
X234669225Y-112267503D01*
X234793061Y-112481992D01*
X234793072Y-112482010D01*
X234943843Y-112678498D01*
X234943846Y-112678501D01*
X234943851Y-112678507D01*
X235118993Y-112853649D01*
X235118997Y-112853652D01*
X235119001Y-112853656D01*
X235315489Y-113004427D01*
X235315494Y-113004430D01*
X235315498Y-113004433D01*
X235361721Y-113031120D01*
X235529996Y-113128274D01*
X235529999Y-113128275D01*
X235530002Y-113128277D01*
X235530007Y-113128279D01*
X235758831Y-113223061D01*
X235758834Y-113223061D01*
X235758837Y-113223063D01*
X235998086Y-113287170D01*
X236243656Y-113319500D01*
X236491344Y-113319500D01*
X236736914Y-113287170D01*
X236976163Y-113223063D01*
X237204998Y-113128277D01*
X237419502Y-113004433D01*
X237555602Y-112900000D01*
X237615998Y-112853656D01*
X237615998Y-112853655D01*
X237616007Y-112853649D01*
X237700776Y-112768880D01*
X239099500Y-112768880D01*
X239099500Y-113031119D01*
X239133729Y-113291112D01*
X239201601Y-113544417D01*
X239301953Y-113786689D01*
X239301955Y-113786693D01*
X239301957Y-113786697D01*
X239330618Y-113836340D01*
X239433073Y-114013798D01*
X239433082Y-114013812D01*
X239563516Y-114183795D01*
X239592718Y-114221851D01*
X239778149Y-114407282D01*
X239778153Y-114407285D01*
X239778154Y-114407286D01*
X239986187Y-114566917D01*
X239986192Y-114566920D01*
X239986197Y-114566924D01*
X240213303Y-114698043D01*
X240455581Y-114798398D01*
X240708884Y-114866270D01*
X240968880Y-114900500D01*
X241231120Y-114900500D01*
X241491116Y-114866270D01*
X241744419Y-114798398D01*
X241986697Y-114698043D01*
X242213803Y-114566924D01*
X242421851Y-114407282D01*
X242607282Y-114221851D01*
X242766924Y-114013803D01*
X242898043Y-113786697D01*
X242998398Y-113544419D01*
X243066270Y-113291116D01*
X243100500Y-113031120D01*
X243100500Y-112768880D01*
X243066270Y-112508884D01*
X242998398Y-112255581D01*
X242908550Y-112038668D01*
X242898046Y-112013310D01*
X242898044Y-112013306D01*
X242898043Y-112013303D01*
X242766924Y-111786197D01*
X242766920Y-111786192D01*
X242766917Y-111786187D01*
X242607286Y-111578153D01*
X242607279Y-111578146D01*
X242573428Y-111544294D01*
X242519453Y-111463512D01*
X242500500Y-111368227D01*
X242500500Y-111151882D01*
X242500500Y-111151878D01*
X242466015Y-110934149D01*
X242397895Y-110724494D01*
X242397891Y-110724486D01*
X242397890Y-110724483D01*
X242297820Y-110528086D01*
X242297816Y-110528081D01*
X242297815Y-110528078D01*
X242168242Y-110349735D01*
X242012365Y-110193858D01*
X241834022Y-110064285D01*
X241834019Y-110064283D01*
X241834013Y-110064279D01*
X241637616Y-109964209D01*
X241637609Y-109964206D01*
X241637606Y-109964205D01*
X241427951Y-109896085D01*
X241427945Y-109896084D01*
X241427938Y-109896082D01*
X241210232Y-109861601D01*
X241210225Y-109861600D01*
X241210222Y-109861600D01*
X240989778Y-109861600D01*
X240989775Y-109861600D01*
X240989767Y-109861601D01*
X240772061Y-109896082D01*
X240772054Y-109896084D01*
X240772052Y-109896084D01*
X240772049Y-109896085D01*
X240562394Y-109964205D01*
X240562392Y-109964205D01*
X240562392Y-109964206D01*
X240562383Y-109964209D01*
X240365986Y-110064279D01*
X240365979Y-110064284D01*
X240187633Y-110193859D01*
X240031759Y-110349733D01*
X239902184Y-110528079D01*
X239902179Y-110528086D01*
X239802109Y-110724483D01*
X239802105Y-110724492D01*
X239802105Y-110724494D01*
X239733985Y-110934149D01*
X239733984Y-110934152D01*
X239733984Y-110934154D01*
X239733982Y-110934161D01*
X239699501Y-111151867D01*
X239699500Y-111151882D01*
X239699500Y-111368227D01*
X239680546Y-111463515D01*
X239626572Y-111544294D01*
X239592721Y-111578145D01*
X239592713Y-111578154D01*
X239433082Y-111786187D01*
X239433073Y-111786201D01*
X239301955Y-112013306D01*
X239301953Y-112013310D01*
X239201601Y-112255582D01*
X239133729Y-112508887D01*
X239099500Y-112768880D01*
X237700776Y-112768880D01*
X237791149Y-112678507D01*
X237882259Y-112559770D01*
X237941927Y-112482010D01*
X237941927Y-112482009D01*
X237941933Y-112482002D01*
X238065777Y-112267498D01*
X238160563Y-112038663D01*
X238224670Y-111799414D01*
X238257000Y-111553844D01*
X238257000Y-111306156D01*
X238224670Y-111060586D01*
X238160563Y-110821337D01*
X238097395Y-110668836D01*
X238065779Y-110592507D01*
X238065774Y-110592496D01*
X237949980Y-110391936D01*
X237941933Y-110377998D01*
X237941930Y-110377994D01*
X237941927Y-110377989D01*
X237791156Y-110181501D01*
X237791152Y-110181497D01*
X237791149Y-110181493D01*
X237616007Y-110006351D01*
X237588423Y-109985185D01*
X237524365Y-109912141D01*
X237493135Y-109820142D01*
X237499489Y-109723195D01*
X237538563Y-109641277D01*
X237555480Y-109617993D01*
X237654731Y-109423201D01*
X237654740Y-109423180D01*
X237722295Y-109215264D01*
X237722300Y-109215247D01*
X237758031Y-108989654D01*
X237759299Y-108989854D01*
X237782825Y-108906450D01*
X237842975Y-108830154D01*
X237927744Y-108782685D01*
X238004682Y-108770500D01*
X248229456Y-108770500D01*
X248229480Y-108770501D01*
X248239754Y-108770501D01*
X248420843Y-108770501D01*
X248420846Y-108770501D01*
X248599709Y-108742171D01*
X248771939Y-108686211D01*
X248882614Y-108629818D01*
X248933285Y-108604001D01*
X248933287Y-108603999D01*
X248933294Y-108603996D01*
X248948920Y-108592643D01*
X249079801Y-108497553D01*
X249207853Y-108369501D01*
X249207853Y-108369499D01*
X249222040Y-108355313D01*
X249222043Y-108355308D01*
X253353623Y-104223730D01*
X253434405Y-104169754D01*
X253529693Y-104150800D01*
X254301806Y-104150800D01*
X254397094Y-104169754D01*
G37*
%TD.AperFunction*%
%TA.AperFunction,Conductor*%
G36*
X234324288Y-101169454D02*
G01*
X234405070Y-101223430D01*
X234459046Y-101304212D01*
X234475286Y-101385856D01*
X234477467Y-101385714D01*
X234477999Y-101393839D01*
X234510329Y-101639409D01*
X234574438Y-101878668D01*
X234669220Y-102107492D01*
X234669225Y-102107503D01*
X234793061Y-102321992D01*
X234793072Y-102322010D01*
X234844030Y-102388419D01*
X234887001Y-102475554D01*
X234893355Y-102572501D01*
X234862125Y-102664500D01*
X234844030Y-102691581D01*
X234793072Y-102757989D01*
X234793061Y-102758007D01*
X234669225Y-102972496D01*
X234669220Y-102972507D01*
X234574438Y-103201331D01*
X234510329Y-103440590D01*
X234477999Y-103686160D01*
X234477467Y-103694286D01*
X234475286Y-103694143D01*
X234459046Y-103775787D01*
X234405070Y-103856569D01*
X234324288Y-103910545D01*
X234229000Y-103929499D01*
X234197954Y-103929499D01*
X234197951Y-103929499D01*
X234197944Y-103929500D01*
X234019100Y-103957827D01*
X234019096Y-103957828D01*
X234019091Y-103957829D01*
X233846861Y-104013789D01*
X233846859Y-104013789D01*
X233846859Y-104013790D01*
X233846850Y-104013794D01*
X233729750Y-104073460D01*
X233636243Y-104099832D01*
X233616706Y-104100600D01*
X225305145Y-104100600D01*
X225305121Y-104100599D01*
X225294847Y-104100599D01*
X225113754Y-104100599D01*
X225113751Y-104100599D01*
X225113743Y-104100600D01*
X224934893Y-104128927D01*
X224934890Y-104128927D01*
X224770961Y-104182190D01*
X224770962Y-104182191D01*
X224762661Y-104184888D01*
X224601309Y-104267101D01*
X224601307Y-104267103D01*
X224454801Y-104373545D01*
X224454799Y-104373546D01*
X224454799Y-104373547D01*
X224326747Y-104501599D01*
X224326741Y-104501606D01*
X224326740Y-104501606D01*
X223690499Y-105137846D01*
X223609718Y-105191822D01*
X223514430Y-105210776D01*
X223419147Y-105191824D01*
X223413316Y-105189409D01*
X223413310Y-105189407D01*
X223413306Y-105189405D01*
X223203651Y-105121285D01*
X223203645Y-105121284D01*
X223203638Y-105121282D01*
X222985932Y-105086801D01*
X222985925Y-105086800D01*
X222985922Y-105086800D01*
X222765478Y-105086800D01*
X222765475Y-105086800D01*
X222765467Y-105086801D01*
X222547761Y-105121282D01*
X222547754Y-105121284D01*
X222547752Y-105121284D01*
X222547749Y-105121285D01*
X222338094Y-105189405D01*
X222338092Y-105189405D01*
X222338092Y-105189406D01*
X222338083Y-105189409D01*
X222141686Y-105289479D01*
X222141679Y-105289484D01*
X221963333Y-105419059D01*
X221807459Y-105574933D01*
X221677884Y-105753279D01*
X221677879Y-105753286D01*
X221577809Y-105949683D01*
X221577805Y-105949692D01*
X221577805Y-105949694D01*
X221509685Y-106159349D01*
X221509684Y-106159352D01*
X221509684Y-106159354D01*
X221509682Y-106159361D01*
X221475201Y-106377067D01*
X221475200Y-106377082D01*
X221475200Y-106478806D01*
X221456246Y-106574094D01*
X221402270Y-106654876D01*
X219795621Y-108261524D01*
X219714839Y-108315500D01*
X219619551Y-108334454D01*
X219524263Y-108315500D01*
X219443484Y-108261526D01*
X219390465Y-108208507D01*
X219390460Y-108208503D01*
X219384701Y-108202744D01*
X219386201Y-108201243D01*
X219335322Y-108134954D01*
X219310164Y-108041113D01*
X219322833Y-107944788D01*
X219338900Y-107910529D01*
X219337847Y-107909993D01*
X219446084Y-107697563D01*
X219446086Y-107697558D01*
X219516734Y-107480125D01*
X219552499Y-107254323D01*
X219552500Y-107254311D01*
X219552500Y-107025688D01*
X219552499Y-107025676D01*
X219516734Y-106799874D01*
X219446086Y-106582441D01*
X219446084Y-106582436D01*
X219337847Y-106370007D01*
X219340235Y-106368790D01*
X219312702Y-106294204D01*
X219316498Y-106197123D01*
X219357155Y-106108885D01*
X219385388Y-106077945D01*
X219384701Y-106077258D01*
X219512275Y-105949683D01*
X219571493Y-105890465D01*
X219727344Y-105687357D01*
X219855350Y-105465643D01*
X219953322Y-105229118D01*
X220019583Y-104981829D01*
X220053000Y-104728006D01*
X220053000Y-104471994D01*
X220053000Y-104471990D01*
X220046000Y-104418828D01*
X220052352Y-104321881D01*
X220095321Y-104234744D01*
X220116791Y-104210260D01*
X223103623Y-101223430D01*
X223184405Y-101169454D01*
X223279693Y-101150500D01*
X234229000Y-101150500D01*
X234324288Y-101169454D01*
G37*
%TD.AperFunction*%
%TA.AperFunction,Conductor*%
G36*
X258545788Y-86019454D02*
G01*
X258626570Y-86073430D01*
X258680546Y-86154212D01*
X258699500Y-86249500D01*
X258699500Y-94883307D01*
X258680546Y-94978595D01*
X258626570Y-95059377D01*
X258545788Y-95113353D01*
X258450500Y-95132307D01*
X258355212Y-95113353D01*
X258274430Y-95059377D01*
X258087682Y-94872629D01*
X258033706Y-94791847D01*
X258014752Y-94696559D01*
X258033706Y-94601272D01*
X258081431Y-94486051D01*
X258109037Y-94419405D01*
X258165849Y-94207380D01*
X258194500Y-93989753D01*
X258194500Y-93770247D01*
X258165849Y-93552620D01*
X258109037Y-93340595D01*
X258025036Y-93137798D01*
X257915283Y-92947701D01*
X257781657Y-92773556D01*
X257626444Y-92618343D01*
X257452299Y-92484717D01*
X257398505Y-92453659D01*
X257382406Y-92444364D01*
X257382404Y-92444363D01*
X257262202Y-92374964D01*
X257198929Y-92348755D01*
X257189233Y-92343703D01*
X257168807Y-92327295D01*
X257123400Y-92296954D01*
X256584089Y-91757643D01*
X256682114Y-91731378D01*
X256777886Y-91676084D01*
X256856084Y-91597886D01*
X256911378Y-91502114D01*
X256937643Y-91404089D01*
X257453306Y-91919752D01*
X257523393Y-91956274D01*
X257524097Y-91955305D01*
X257607986Y-91790662D01*
X257607990Y-91790651D01*
X257665092Y-91614909D01*
X257693999Y-91432405D01*
X257694000Y-91432393D01*
X257694000Y-91247606D01*
X257693999Y-91247594D01*
X257665092Y-91065090D01*
X257607990Y-90889348D01*
X257607988Y-90889342D01*
X257524094Y-90724690D01*
X257523393Y-90723724D01*
X257453305Y-90760246D01*
X256937642Y-91275909D01*
X256911378Y-91177886D01*
X256856084Y-91082114D01*
X256777886Y-91003916D01*
X256682114Y-90948622D01*
X256584088Y-90922356D01*
X257123399Y-90383045D01*
X257168794Y-90352712D01*
X257189234Y-90336294D01*
X257198905Y-90331254D01*
X257262202Y-90305036D01*
X257452299Y-90195283D01*
X257626444Y-90061657D01*
X257781657Y-89906444D01*
X257915283Y-89732299D01*
X258025036Y-89542202D01*
X258109037Y-89339405D01*
X258165849Y-89127380D01*
X258194500Y-88909753D01*
X258194500Y-88690247D01*
X258165849Y-88472620D01*
X258109037Y-88260595D01*
X258025036Y-88057798D01*
X257915283Y-87867701D01*
X257781657Y-87693556D01*
X257626444Y-87538343D01*
X257452299Y-87404717D01*
X257262202Y-87294964D01*
X257262200Y-87294963D01*
X257262191Y-87294959D01*
X257059410Y-87210965D01*
X257059409Y-87210964D01*
X257059405Y-87210963D01*
X256847380Y-87154151D01*
X256847375Y-87154150D01*
X256847377Y-87154150D01*
X256629753Y-87125500D01*
X256410247Y-87125500D01*
X256192624Y-87154150D01*
X255980601Y-87210961D01*
X255980589Y-87210965D01*
X255777808Y-87294959D01*
X255777799Y-87294963D01*
X255587700Y-87404717D01*
X255413556Y-87538343D01*
X255413552Y-87538346D01*
X255258346Y-87693552D01*
X255258343Y-87693556D01*
X255124717Y-87867700D01*
X255014963Y-88057799D01*
X255014959Y-88057808D01*
X254930965Y-88260589D01*
X254930961Y-88260601D01*
X254874150Y-88472624D01*
X254845500Y-88690247D01*
X254845500Y-88909752D01*
X254874150Y-89127375D01*
X254930961Y-89339398D01*
X254930965Y-89339410D01*
X255009540Y-89529109D01*
X255014964Y-89542202D01*
X255124717Y-89732299D01*
X255258343Y-89906444D01*
X255413556Y-90061657D01*
X255587701Y-90195283D01*
X255777798Y-90305036D01*
X255841079Y-90331248D01*
X255850765Y-90336295D01*
X255871198Y-90352708D01*
X255916597Y-90383042D01*
X256455911Y-90922356D01*
X256357886Y-90948622D01*
X256262114Y-91003916D01*
X256183916Y-91082114D01*
X256128622Y-91177886D01*
X256102356Y-91275910D01*
X255586691Y-90760245D01*
X255513602Y-90722159D01*
X255454870Y-90776454D01*
X255363721Y-90810083D01*
X255266640Y-90806270D01*
X255178409Y-90765597D01*
X255148693Y-90740219D01*
X250834044Y-86425570D01*
X250780068Y-86344788D01*
X250761114Y-86249500D01*
X250780068Y-86154212D01*
X250834044Y-86073430D01*
X250914826Y-86019454D01*
X251010114Y-86000500D01*
X258450500Y-86000500D01*
X258545788Y-86019454D01*
G37*
%TD.AperFunction*%
%TA.AperFunction,Conductor*%
G36*
X203347931Y-86019454D02*
G01*
X203428713Y-86073430D01*
X203482689Y-86154212D01*
X203501643Y-86249500D01*
X203482689Y-86344788D01*
X203428713Y-86425570D01*
X203365687Y-86471360D01*
X203135220Y-86588789D01*
X203135207Y-86588797D01*
X203023506Y-86669951D01*
X203809354Y-87455799D01*
X203778058Y-87464185D01*
X203646942Y-87539885D01*
X203539885Y-87646942D01*
X203464185Y-87778058D01*
X203455799Y-87809354D01*
X202669951Y-87023506D01*
X202588797Y-87135207D01*
X202588789Y-87135220D01*
X202470890Y-87366609D01*
X202470882Y-87366626D01*
X202387606Y-87622928D01*
X202385712Y-87622312D01*
X202350941Y-87697733D01*
X202279596Y-87763679D01*
X202188445Y-87797304D01*
X202091365Y-87793486D01*
X202003135Y-87752809D01*
X201937189Y-87681464D01*
X201903564Y-87590313D01*
X201900500Y-87551368D01*
X201900500Y-86249500D01*
X201919454Y-86154212D01*
X201973430Y-86073430D01*
X202054212Y-86019454D01*
X202149500Y-86000500D01*
X203252643Y-86000500D01*
X203347931Y-86019454D01*
G37*
%TD.AperFunction*%
%TD*%
M02*
