M48
; DRILL file KiCad 10.0.6-1.fc44 date 2026-09-07T03:03:46
; FORMAT={-:-/ absolute / metric / decimal}
; #@! TF.CreationDate,2026-09-07T03:03:46+09:00
; #@! TF.GenerationSoftware,Kicad,Pcbnew,10.0.6-1.fc44
; #@! TF.FileFunction,Plated,1,2,PTH
FMAT,2
METRIC
; #@! TA.AperFunction,Plated,PTH,ViaDrill
T1C0.400
; #@! TA.AperFunction,Plated,PTH,ComponentDrill
T2C0.800
; #@! TA.AperFunction,Plated,PTH,ComponentDrill
T3C0.840
; #@! TA.AperFunction,Plated,PTH,ComponentDrill
T4C1.000
; #@! TA.AperFunction,Plated,PTH,ComponentDrill
T5C1.150
; #@! TA.AperFunction,Plated,PTH,ComponentDrill
T6C1.270
; #@! TA.AperFunction,Plated,PTH,ComponentDrill
T7C1.500
; #@! TA.AperFunction,Plated,PTH,ComponentDrill
T8C2.500
%
G90
G05
T1
X206.493Y-112.55
X222.876Y-106.487
X233.806Y-104.499
X241.1Y-111.262
T2
X208.62Y-113.3
X218.78Y-113.3
X245.69Y-113.3
X253.31Y-113.3
T3
X241.28Y-88.8
X241.28Y-91.34
X241.28Y-93.88
X241.28Y-96.42
X241.28Y-98.96
X241.28Y-101.5
X241.28Y-104.04
X241.28Y-106.58
X256.52Y-88.8
X256.52Y-91.34
X256.52Y-93.88
X256.52Y-96.42
X256.52Y-98.96
X256.52Y-101.5
X256.52Y-104.04
X256.52Y-106.58
T4
X236.367Y-88.57
X236.367Y-91.11
X236.367Y-93.65
X236.367Y-96.19
X236.367Y-98.73
X236.367Y-101.27
X236.367Y-103.81
X236.367Y-106.35
X236.367Y-108.89
X236.367Y-111.43
T5
X204.0Y-88.0
X205.2Y-117.4
X205.2Y-122.2
X205.2Y-127.0
X205.2Y-131.8
X208.8Y-88.0
X211.0Y-122.0
X211.0Y-126.8
X211.0Y-131.6
X213.6Y-88.0
X218.4Y-88.0
X256.2Y-126.1
X256.2Y-130.9
T6
X218.1Y-91.9
X218.1Y-94.44
X218.1Y-96.98
X218.1Y-99.52
X218.1Y-102.06
X218.1Y-104.6
X218.1Y-107.14
X218.1Y-109.68
T7
X217.45Y-121.0
X217.45Y-128.2
X249.0Y-121.0
X249.0Y-128.2
T8
X223.667Y-88.57
X223.667Y-111.43
M30
